<svg width="438" height="388" viewBox="0 0 438 388" fill="none" xmlns="http://www.w3.org/2000/svg">
<g clip-path="url(#clip0_1594_53826)">
<path d="M50.2375 391L49.8564 390.858C36.9442 385.977 26.828 375.651 22.1953 362.622C20.9401 359.002 20.1448 355.237 19.8281 351.417L19.797 351.052L20.1562 351.117C24.4443 351.888 28.9459 352.314 30.9515 352.481L19.6992 345.019L19.7195 344.631C19.8947 340.988 22.264 337.818 25.7031 336.626C29.1751 335.341 33.0779 336.302 35.5602 339.053C36.6789 340.27 37.8615 341.495 39.0051 342.68C42.9352 346.751 46.9991 350.96 49.5688 355.929C53.4335 363.586 53.6432 372.582 50.1397 380.411L50.2375 391H50.2375Z" fill="#F2F2F2"/>
<path d="M277.913 383.769L277.908 383.729C277.411 372.66 275.385 361.715 271.887 351.204L271.884 351.187C271.68 350.107 271.739 348.994 272.057 347.943C273.034 344.929 276.063 343.084 279.182 343.603C282.404 344.21 285.736 343.639 288.575 341.996C290.378 340.947 292.565 340.802 294.49 341.603C296.305 342.345 297.663 343.903 298.151 345.806C298.189 345.956 298.222 346.107 298.251 346.26C298.353 357.381 300.391 368.398 304.274 378.816L304.276 378.829C304.682 380.981 304.034 383.197 302.534 384.788C301.207 386.137 299.349 386.821 297.467 386.654C294.088 386.423 290.613 387.11 286.843 388.755C285.527 389.342 284.046 389.446 282.66 389.049C280.21 388.329 278.373 386.286 277.913 383.769V383.769Z" fill="#30C07B"/>
<path d="M169.904 231.725V377.073H271.504V231.725C271.507 229.579 270.113 227.682 268.067 227.049C267.598 226.893 267.106 226.817 266.611 226.822H174.811C172.106 226.817 169.91 229.01 169.904 231.721V231.725V231.725ZM209.554 281.667C209.609 275.664 214.51 270.842 220.5 270.898C226.412 270.952 231.191 275.742 231.246 281.667V298.532C231.217 304.535 226.339 309.379 220.349 309.351C214.399 309.322 209.582 304.495 209.554 298.532V281.667V281.667Z" fill="#F2F2F2"/>
<path d="M169.593 372.425V386.441C169.598 387.952 170.815 389.178 172.322 389.19H269.086C270.595 389.183 271.815 387.954 271.815 386.441V372.425H169.593V372.425Z" fill="#E6E6E6"/>
<path d="M10.0747 12.7406V278.124C10.0803 285.166 15.7748 290.874 22.8011 290.879H415.199C422.225 290.874 427.92 285.166 427.926 278.124V12.7406C427.909 5.70561 422.219 0.00892422 415.199 0H22.8011C15.7817 0.00895928 10.0914 5.70563 10.0747 12.7406H10.0747Z" fill="#E6E6E6"/>
<path d="M411.925 9.2118H26.0745C22.3159 9.21999 19.2733 12.2758 19.2729 16.0427V274.851C19.2794 278.613 22.3208 281.661 26.0745 281.668H411.925C415.679 281.661 418.721 278.613 418.727 274.851V16.0427C418.727 12.2758 415.684 9.21999 411.925 9.21179V9.2118ZM314.593 193.083C313.44 195.367 311.101 196.804 308.547 196.798L308.507 196.795C304.808 196.279 301.095 195.938 297.369 195.773C297.947 196.189 298.456 196.693 298.877 197.269C299.959 198.822 300.291 200.778 299.783 202.602C298.94 205.889 298.98 209.439 299.906 213.454C300.242 214.858 300.074 216.336 299.432 217.629C298.279 219.913 295.939 221.35 293.386 221.344L293.345 221.341C284.512 220.108 275.568 219.869 266.682 220.629C266.646 220.854 266.602 221.079 266.545 221.304C265.702 224.591 265.742 228.141 266.668 232.155C267.004 233.56 266.836 235.038 266.193 236.331C265.04 238.615 262.701 240.052 260.147 240.046L260.107 240.043C251.035 238.777 241.847 238.56 232.726 239.397C232.657 241.68 232.893 243.962 233.429 246.182C233.765 247.586 233.597 249.064 232.955 250.357C231.802 252.641 229.463 254.078 226.909 254.072L226.869 254.069C215.919 252.54 204.812 252.54 193.862 254.069H193.845C192.749 254.073 191.668 253.812 190.694 253.307C187.915 251.795 186.658 248.474 187.736 245.495C188.067 244.557 188.313 243.591 188.471 242.609C178.436 241.45 168.296 241.569 158.292 242.965H158.274C157.178 242.969 156.097 242.708 155.123 242.203C152.344 240.691 151.087 237.369 152.165 234.39C153.348 231.326 153.397 227.938 152.302 224.841C151.786 223.389 151.786 221.803 152.302 220.351C144.759 219.965 137.198 220.297 129.718 221.341H129.7C128.604 221.345 127.523 221.084 126.55 220.579C123.771 219.067 122.514 215.746 123.592 212.767C124.775 209.702 124.823 206.314 123.729 203.217C123.029 201.25 123.286 199.068 124.423 197.317C125.481 195.664 127.258 194.61 129.214 194.476C129.367 194.466 129.522 194.46 129.678 194.46C133.51 195.132 137.379 195.57 141.264 195.772C138.786 194.14 137.747 191.017 138.753 188.221C139.936 185.156 139.985 181.768 138.89 178.671C138.191 176.704 138.447 174.522 139.584 172.771C139.633 172.696 139.691 172.629 139.742 172.556C136.978 172.747 134.219 173.034 131.468 173.418H131.45C130.354 173.422 129.273 173.161 128.299 172.656C125.521 171.144 124.263 167.822 125.341 164.843C126.524 161.779 126.573 158.391 125.478 155.294C124.779 153.327 125.035 151.144 126.172 149.394C127.231 147.74 129.007 146.687 130.963 146.553C131.117 146.543 131.271 146.537 131.427 146.537C136.035 147.346 140.696 147.816 145.372 147.944C144.179 146.221 143.886 144.028 144.585 142.051C145.768 138.986 145.816 135.599 144.721 132.502C144.022 130.534 144.279 128.352 145.415 126.601C146.474 124.948 148.251 123.894 150.206 123.76C150.36 123.75 150.514 123.745 150.67 123.745C154.57 124.428 158.508 124.87 162.461 125.068C161.612 123.456 161.473 121.561 162.078 119.842C163.262 116.778 163.31 113.39 162.215 110.293C161.516 108.326 161.772 106.144 162.909 104.393C163.968 102.739 165.745 101.686 167.7 101.552C167.854 101.542 168.008 101.536 168.164 101.536C172.753 102.341 177.393 102.811 182.05 102.941C181.416 101.44 181.364 99.7559 181.905 98.2186C183.088 95.1543 183.136 91.7665 182.042 88.6694C181.342 86.7018 181.599 84.5197 182.736 82.7689C183.794 81.1156 185.571 80.062 187.527 79.9281C187.68 79.9179 187.835 79.9124 187.991 79.9124C198.919 81.8402 210.099 81.8417 221.028 79.9167H221.041C221.885 80.0909 222.755 80.0909 223.598 79.9167H223.612C234.54 81.8417 245.72 81.8402 256.649 79.9124C256.805 79.9124 256.959 79.9179 257.113 79.9281C259.068 80.062 260.845 81.1156 261.904 82.7689C263.04 84.5197 263.297 86.7018 262.598 88.6694C261.503 91.7665 261.551 95.1543 262.734 98.2186C263.275 99.7559 263.224 101.44 262.59 102.941C267.246 102.811 271.887 102.341 276.475 101.536C276.631 101.536 276.785 101.542 276.939 101.552C278.895 101.686 280.672 102.739 281.73 104.393C282.867 106.144 283.124 108.326 282.424 110.293C281.329 113.39 281.378 116.778 282.561 119.842C283.166 121.561 283.027 123.456 282.178 125.068C286.132 124.87 290.07 124.428 293.969 123.745C294.125 123.745 294.279 123.75 294.433 123.76C296.389 123.894 298.165 124.948 299.224 126.601C300.361 128.352 300.617 130.534 299.918 132.502C298.823 135.599 298.872 138.986 300.055 142.051C300.755 144.033 300.459 146.232 299.259 147.957C299.78 148.351 300.24 148.819 300.627 149.346C301.708 150.898 302.04 152.855 301.533 154.679C300.69 157.966 300.73 161.516 301.656 165.531C301.991 166.935 301.824 168.413 301.181 169.706C300.946 170.167 300.66 170.599 300.328 170.995C303.058 170.754 305.781 170.396 308.497 169.919H308.511C310.695 169.911 312.751 170.954 314.039 172.723C315.12 174.276 315.452 176.232 314.945 178.056C314.102 181.343 314.142 184.893 315.068 188.908C315.403 190.312 315.236 191.79 314.593 193.083L314.593 193.083Z" fill="white"/>
<path d="M399.41 44.8637H38.3713C37.5783 44.8462 36.9497 44.1878 36.9672 43.3931C36.9841 42.623 37.6029 42.0028 38.3713 41.9858H399.41C400.203 42.0033 400.832 42.6618 400.815 43.4565C400.798 44.2265 400.179 44.8468 399.41 44.8637Z" fill="#E6E6E6"/>
<path d="M223.253 247.178L223.212 247.175C212.263 245.646 201.155 245.646 190.206 247.175H190.188C189.092 247.179 188.011 246.918 187.038 246.413C184.259 244.901 183.002 241.579 184.08 238.6C185.263 235.536 185.311 232.148 184.216 229.051C183.517 227.084 183.774 224.902 184.911 223.151C185.969 221.498 187.746 220.444 189.701 220.31C189.855 220.3 190.01 220.294 190.166 220.294C201.094 222.222 212.274 222.224 223.202 220.299H223.216C225.401 220.291 227.456 221.334 228.744 223.103C229.825 224.656 230.158 226.612 229.65 228.436C228.807 231.723 228.847 235.273 229.773 239.288C230.109 240.692 229.941 242.17 229.299 243.463C228.145 245.747 225.806 247.184 223.253 247.178V247.178Z" fill="#30C07B"/>
<path d="M256.924 189.877L248.116 182.571C241.51 186.041 231.459 199.894 231.459 199.894L208.272 216.608C205.487 216.741 203.337 219.111 203.47 221.902C203.602 224.693 205.967 226.848 208.752 226.715C210.559 226.629 212.182 225.58 213.006 223.966L244.511 207.28L256.924 189.877V189.877Z" fill="#FFB8B8"/>
<path d="M271.786 162.072C276.87 166.387 277.501 174.016 273.195 179.111C272.713 179.682 272.178 180.207 271.599 180.679L265.997 185.243C265.997 185.243 252.025 205.402 244.752 207.74L226.081 217.516L217.662 209.056L234.584 195.235C234.584 195.235 242.367 187.857 243.146 182.456C243.623 179.149 249.209 170.139 254.808 163.456C259.105 158.376 266.697 157.749 271.766 162.055L271.786 162.072V162.072Z" fill="#1B1B2D"/>
<path d="M253.683 380.855L245.725 380.855L241.939 350.091L253.685 350.091L253.683 380.855Z" fill="#FFB6B6"/>
<path d="M253.963 389.176L229.491 389.175V388.864C229.492 383.592 233.756 379.319 239.016 379.318H239.017L243.487 375.919L251.827 379.319L253.964 379.319L253.963 389.176V389.176Z" fill="#2F2E41"/>
<path d="M314.319 338.876L310.55 345.9L281.722 334.675L287.284 324.307L314.319 338.876Z" fill="#FFB6B6"/>
<path d="M321.764 342.568L310.175 364.17L309.902 364.023C305.269 361.526 303.532 355.738 306.023 351.095L306.023 351.094L305.153 345.539L312.09 339.786L313.102 337.9L321.764 342.568V342.568Z" fill="#2F2E41"/>
<path d="M238.637 239.972L231.613 296.288L235.125 315.168L298.339 342.924L301.851 331.485C285.693 321.575 268.42 306.578 257.536 305.476C257.536 305.476 256.633 295.482 264.43 289.314C266.003 288.07 265.659 286.386 266.295 284.86C266.733 283.811 268.473 282.718 268.919 281.641C269.497 280.246 268.782 278.859 269.363 277.442C269.689 276.645 270.927 276.594 271.252 275.797C271.805 274.436 271.443 272.329 271.982 270.984C273.135 268.111 274.243 265.302 275.255 262.668C278.404 254.47 280.621 247.974 280.341 246.572C279.463 242.172 238.637 239.972 238.637 239.972V239.972Z" fill="#2F2E41"/>
<path d="M237.427 296.125L233.753 319.907L243.027 368.441H255.319C259.735 352.134 259.962 330.7 255.758 312.566L237.427 296.125V296.125Z" fill="#2F2E41"/>
<path d="M245.324 171.166L250.991 161.271L257.074 156.379L268.488 154.62L271.659 157.063C283.071 174.544 287.326 195.757 283.542 216.3L282.651 221.135L282.086 224.205L282.331 227.873L280.426 233.215L280.688 237.126L280.828 239.215L280.969 241.311L281.165 244.237C281.516 245.908 279.748 245.687 279.998 247.16C280.437 249.745 282.406 253.576 279.415 253.588L248.509 247.16C240.658 247.192 233.348 237.809 240.929 230.211L245.324 171.166H245.324Z" fill="#1B1B2D"/>
<path d="M259.791 151.863C268.08 151.863 274.799 145.129 274.799 136.822C274.799 128.515 268.08 121.781 259.791 121.781C251.502 121.781 244.783 128.515 244.783 136.822C244.783 145.129 251.502 151.863 259.791 151.863Z" fill="#FFB8B8"/>
<path d="M260.045 151.436C262.241 151.47 264.436 151.316 266.606 150.976C268.756 150.538 273.568 147.004 274.909 144.878C275.905 143.298 276.543 140.831 276.902 139.039C277.88 134.245 276.784 129.261 273.887 125.323C273.336 124.508 272.576 123.858 271.687 123.441C271.608 123.41 271.527 123.382 271.445 123.359C270.149 123.017 268.985 122.295 268.102 121.286C267.931 121.082 267.745 120.89 267.546 120.713C266.548 119.868 265.364 119.273 264.093 118.975C262.04 118.424 259.068 118.971 255.262 120.601C253.349 121.42 251.258 121.124 249.649 120.774C249.465 120.738 249.277 120.803 249.153 120.944C248.469 121.588 247.566 121.949 246.627 121.953C246.052 121.978 245.449 122.777 244.72 123.817C244.554 124.053 244.361 124.329 244.222 124.497L244.203 124.175L243.878 124.534C242.204 126.383 242.343 129.241 244.188 130.919C244.683 131.369 245.273 131.704 245.914 131.898C246.492 132.052 247.085 132.147 247.683 132.18C248.045 132.213 248.419 132.247 248.778 132.309C251.121 132.79 253.04 134.469 253.831 136.731C254.162 137.658 255.18 138.14 256.105 137.807C256.25 137.755 256.388 137.684 256.515 137.597C257.273 137.004 258.273 136.822 259.192 137.108C259.583 137.326 259.887 137.672 260.054 138.088C260.256 138.552 260.592 138.944 261.018 139.216C262.476 139.969 262.576 143.305 262.053 146.086C261.548 148.767 260.551 150.706 259.627 150.802C258.916 150.876 258.835 150.927 258.784 151.053L258.738 151.165L258.817 151.271C259.21 151.414 259.629 151.47 260.045 151.436V151.436Z" fill="#2F2E41"/>
<path d="M229.667 142.565L229.627 142.562C218.678 141.033 207.57 141.033 196.621 142.562H196.603C195.507 142.567 194.426 142.305 193.452 141.801C190.674 140.288 189.416 136.967 190.494 133.988C191.677 130.923 191.726 127.536 190.631 124.439C189.932 122.471 190.188 120.289 191.325 118.538C192.384 116.885 194.161 115.831 196.116 115.697C196.27 115.687 196.424 115.682 196.58 115.682C207.508 117.609 218.688 117.611 229.617 115.686H229.631C231.815 115.678 233.871 116.721 235.158 118.49C236.24 120.043 236.572 121.999 236.064 123.823C235.222 127.111 235.261 130.66 236.187 134.675C236.523 136.08 236.355 137.558 235.713 138.851C234.56 141.134 232.221 142.571 229.667 142.565V142.565Z" fill="#30C07B"/>
<path d="M243.701 177.991L249.911 168.37C245.701 162.2 230.798 153.815 230.798 153.815L211.526 132.688C211.069 129.932 208.469 128.069 205.719 128.527C202.969 128.985 201.11 131.591 201.567 134.347C201.864 136.136 203.093 137.628 204.789 138.26L225.005 167.669L243.701 177.991H243.701Z" fill="#FFB8B8"/>
<path d="M272.991 189.534C269.309 195.099 261.823 196.618 256.271 192.928C255.648 192.514 255.066 192.044 254.531 191.522L249.353 186.48C249.353 186.48 227.652 175.124 224.485 168.158L210.266 147.944L219.8 139.324L236.371 154.423C236.371 154.423 244.001 163.265 249.444 163.41C252.778 163.498 262.359 168.005 269.635 172.796C275.171 176.48 276.68 183.964 273.005 189.513L272.991 189.534V189.534Z" fill="#1B1B2D"/>
<path d="M128.427 389.088L128.387 389.085C117.438 387.556 106.33 387.556 95.3808 389.085H95.3632C94.267 389.09 93.186 388.828 92.2124 388.324C89.4338 386.811 88.1764 383.49 89.2546 380.511C90.4376 377.446 90.4861 374.059 89.3912 370.962C88.6919 368.994 88.9486 366.812 90.0854 365.061C91.1439 363.408 92.9208 362.354 94.8763 362.22C95.0301 362.21 95.1844 362.205 95.3404 362.205C106.269 364.132 117.449 364.134 128.377 362.209H128.391C130.576 362.201 132.631 363.244 133.919 365.013C135 366.566 135.332 368.522 134.825 370.346C133.982 373.633 134.022 377.183 134.948 381.198C135.284 382.603 135.116 384.081 134.473 385.374C133.32 387.657 130.981 389.094 128.427 389.088H128.427Z" fill="#30C07B"/>
<path d="M137.757 364.542L137.717 364.539C126.768 363.01 115.66 363.01 104.711 364.539H104.693C103.597 364.544 102.516 364.282 101.542 363.777C98.7639 362.265 97.5065 358.944 98.5846 355.965C99.7677 352.9 99.8162 349.513 98.7213 346.416C98.0219 344.448 98.2787 342.266 99.4155 340.515C100.474 338.862 102.251 337.808 104.206 337.674C104.36 337.664 104.514 337.659 104.67 337.659C115.599 339.586 126.779 339.588 137.707 337.663H137.721C139.906 337.655 141.961 338.698 143.249 340.467C144.33 342.02 144.663 343.976 144.155 345.8C143.312 349.087 143.352 352.637 144.278 356.652C144.614 358.056 144.446 359.535 143.803 360.828C142.65 363.111 140.311 364.548 137.757 364.542H137.757Z" fill="#30C07B"/>
<path d="M56.1119 371.234L56.1369 371.202C63.5356 362.969 69.7595 353.749 74.631 343.803L74.6409 343.788C75.2516 342.876 76.0734 342.125 77.036 341.599C79.8428 340.14 83.2922 340.958 85.1501 343.522C87.0197 346.221 89.7922 348.159 92.9653 348.986C94.9833 349.508 96.6428 350.944 97.4527 352.868C98.2259 354.673 98.101 356.739 97.116 358.437C97.0383 358.57 96.9563 358.702 96.8689 358.831C89.1524 366.823 82.8868 376.103 78.3541 386.253L78.3465 386.265C77.1288 388.082 75.1151 389.205 72.9318 389.282C71.0424 389.31 69.2396 388.49 68.0166 387.046C65.772 384.504 62.8161 382.548 58.9793 381.067C57.6303 380.559 56.5028 379.592 55.7942 378.334C54.5531 376.097 54.676 373.35 56.1119 371.234V371.234Z" fill="#30C07B"/>
<path d="M93.4474 31.5055C96.1709 31.5055 98.3787 29.2434 98.3787 26.4531C98.3787 23.6627 96.1709 21.4006 93.4474 21.4006C90.7239 21.4006 88.5161 23.6627 88.5161 26.4531C88.5161 29.2434 90.7239 31.5055 93.4474 31.5055Z" fill="#1B1B2D"/>
<path d="M110.483 31.5055C113.207 31.5055 115.414 29.2434 115.414 26.4531C115.414 23.6627 113.207 21.4006 110.483 21.4006C107.76 21.4006 105.552 23.6627 105.552 26.4531C105.552 29.2434 107.76 31.5055 110.483 31.5055Z" fill="#1B1B2D"/>
<path d="M127.518 31.5055C130.242 31.5055 132.45 29.2434 132.45 26.4531C132.45 23.6627 130.242 21.4006 127.518 21.4006C124.795 21.4006 122.587 23.6627 122.587 26.4531C122.587 29.2434 124.795 31.5055 127.518 31.5055Z" fill="#1B1B2D"/>
<path d="M146.943 30.4463C146.792 30.4463 146.641 30.3875 146.526 30.2705L143.199 26.8616C142.977 26.6344 142.977 26.2714 143.199 26.0443L146.526 22.6356C146.752 22.405 147.122 22.4013 147.351 22.6265C147.581 22.8522 147.585 23.2223 147.36 23.4529L144.432 26.4529L147.36 29.4532C147.585 29.6838 147.581 30.0539 147.351 30.2797C147.238 30.391 147.09 30.4463 146.943 30.4463V30.4463Z" fill="#1B1B2D"/>
<path d="M152.534 30.4464C152.387 30.4464 152.24 30.391 152.127 30.2797C151.896 30.054 151.892 29.6842 152.117 29.4533L155.046 26.453L152.117 23.4529C151.892 23.2224 151.896 22.8522 152.127 22.6265C152.356 22.4005 152.726 22.4048 152.951 22.6356L156.278 26.0443C156.5 26.2715 156.5 26.6345 156.278 26.8616L152.951 30.2706C152.837 30.3876 152.686 30.4464 152.534 30.4464V30.4464Z" fill="#1B1B2D"/>
<path d="M326.605 21.9856H320.418C319.712 21.9856 319.141 22.5583 319.141 23.2655V29.4721C319.141 30.1793 319.712 30.752 320.418 30.752H326.605C327.31 30.752 327.888 30.1793 327.888 29.4721V23.2655C327.888 22.5583 327.31 21.9856 326.605 21.9856Z" fill="#1B1B2D"/>
<path d="M311.443 21.9856H305.256C304.55 21.9856 303.979 22.5583 303.979 23.2655V29.4721C303.979 30.1793 304.55 30.752 305.256 30.752H311.443C312.149 30.752 312.726 30.1793 312.726 29.4721V23.2655C312.726 22.5583 312.149 21.9856 311.443 21.9856Z" fill="#1B1B2D"/>
<path d="M340.891 22.2778H334.704C333.999 22.2778 333.427 22.8506 333.427 23.5577V29.7644C333.427 30.4715 333.999 31.0443 334.704 31.0443H340.891C341.597 31.0443 342.174 30.4715 342.174 29.7644V23.5577C342.174 22.8506 341.597 22.2778 340.891 22.2778Z" fill="#1B1B2D"/>
<path d="M247.636 24.6389H198.181C197.317 24.6389 196.624 25.3402 196.624 26.1994C196.624 27.0585 197.317 27.7598 198.181 27.7598H247.636C248.493 27.7598 249.193 27.0585 249.193 26.1994C249.193 25.3403 248.493 24.6389 247.636 24.6389V24.6389Z" fill="#1B1B2D"/>
</g>
<defs>
<clipPath id="clip0_1594_53826">
<rect width="438" height="388" fill="white"/>
</clipPath>
</defs>
</svg>
