<svg width="389" height="393" viewBox="0 0 389 393" fill="none" xmlns="http://www.w3.org/2000/svg">
<g clip-path="url(#clip0_1594_53863)">
<path d="M104.114 137.732C101.338 138.789 98.5037 139.686 95.6248 140.417C91.822 141.345 89.675 141.774 86.0046 140.349C85.8757 140.299 85.7526 140.25 85.6366 140.201C78.6796 137.242 72.7326 132.323 68.5194 126.043C64.3062 119.763 62.0086 112.393 61.9062 104.83C61.8879 104.571 61.8879 104.298 61.8879 104.032C61.8843 102.75 61.9455 101.469 62.0714 100.193C62.2322 98.4558 62.51 96.7311 62.9029 95.031L62.8662 95.0243C59.8946 91.9841 58.7512 87.8197 59.1303 83.6353C59.39 80.7985 60.2899 78.0576 61.7621 75.6193C63.2343 73.1809 65.2405 71.1087 67.6294 69.5587C71.3733 67.2037 75.5948 65.7129 79.9868 65.1947C81.1661 65.0587 82.3522 64.9898 83.5393 64.9885H94.6921C96.9956 64.449 99.3356 64.0799 101.693 63.8842H101.712C124.158 62.0215 141.859 76.9097 140.208 95.0243C140.196 95.0443 140.178 95.0642 140.166 95.0842C139.689 95.8625 139.267 96.6009 138.894 97.3061C138.533 97.9647 138.227 98.5966 137.964 99.1954C135.916 103.825 145.65 175.661 142.159 176.752C140.172 177.371 132.162 123.916 133.599 134.081C135.409 146.834 114.454 133.907 104.114 137.732Z" fill="#2F2E41"/>
<path d="M137.928 267.59L169.043 333.911L49.3506 321.782L74.3357 258.116L137.928 267.59Z" fill="#FFB6B6"/>
<path d="M200.388 400.56C179.575 407.491 157.64 410.431 135.737 409.224L126.212 393.769C126.212 393.769 125.813 399.525 125.219 408.324C114.792 407.115 104.501 404.932 94.4815 401.804C75.4795 395.859 62.0556 402.264 44 393.769C40.3429 371.958 34.5823 322.708 54.8011 303.129L163.628 323.08C163.628 323.08 181.089 336.147 176.418 340.827C171.747 345.5 171.024 344.777 174.092 347.847C177.161 350.918 183.793 355.023 183.861 357.708C183.888 358.756 191.33 377.768 200.388 400.56Z" fill="#2F2E41"/>
<path d="M118.924 139.435L92.6316 141.271L75.6379 157.7L69.6863 158.763C64.3366 159.717 59.5229 162.602 56.158 166.872C52.7931 171.141 51.1109 176.497 51.4305 181.924C52.6547 202.675 55.3957 233.681 61.1247 243.741C70.008 259.339 77.3453 254.445 70.0079 259.339C62.6706 264.233 57.7445 260.388 61.1247 268.122C64.5049 275.857 56.5561 285.777 56.5561 285.777L53.3918 288.943L56.7479 290.319L163.687 304.241C163.687 304.241 154.44 262.646 160.223 252.428C166.005 242.21 180.026 211.323 167.513 199.238L155.278 156.16L134.232 149.95L118.924 139.435Z" fill="#30C07B"/>
<path d="M278.084 310.155C276.324 310.099 274.598 309.661 273.024 308.872C271.45 308.083 270.066 306.961 268.968 305.585C267.87 304.208 267.084 302.609 266.664 300.898C266.245 299.188 266.201 297.407 266.538 295.678L216.375 261.689L222.36 245.495L281.644 286.3C284.511 287.083 286.991 288.89 288.615 291.38C290.238 293.87 290.893 296.869 290.454 299.81C290.015 302.75 288.513 305.427 286.233 307.334C283.953 309.24 281.054 310.244 278.084 310.155V310.155Z" fill="#FFB6B6"/>
<path d="M136.399 154.125L129.109 157.013L167.993 232.994L248.489 287.89L260.092 268.269L198.818 215.317L174.287 168.245C170.834 161.621 165.051 156.512 158.054 153.904C151.056 151.296 143.341 151.375 136.399 154.125Z" fill="#30C07B"/>
<path d="M104.409 132.753C118.99 132.753 130.811 120.927 130.811 106.339C130.811 91.7506 118.99 79.9244 104.409 79.9244C89.8285 79.9244 78.0083 91.7506 78.0083 106.339C78.0083 120.927 89.8285 132.753 104.409 132.753Z" fill="#FFB6B6"/>
<path d="M127.368 95.1689C126.928 95.4013 126.493 95.6154 126.053 95.8295C125.595 96.0498 125.136 96.27 124.671 96.478C115.836 100.485 108.639 100.932 104.273 95.1689C104.154 92.1371 103.472 89.154 102.262 86.3718C102.476 89.4809 101.657 92.5736 99.9321 95.1689H91.1394C82.0839 101.182 77.4369 106.707 83.7226 126.448C84.1322 127.745 86.9388 173.822 87.7398 177.364C74.0311 172.103 62.2057 116.244 61.9061 101.525C61.8877 101.286 61.8877 101.036 61.8877 100.791C61.8841 99.6118 61.9454 98.4334 62.0712 97.261C62.2325 95.6605 62.5104 94.0739 62.9027 92.5138L62.866 92.5077C61.4713 91.1736 60.4072 89.532 59.7586 87.7137C59.11 85.8954 58.8948 83.9507 59.1301 82.0345C61.4298 79.0219 64.2757 76.4692 67.5192 74.5099C70.4685 73.081 73.5427 71.9261 76.7031 71.0596C76.7826 71.0413 76.8499 71.0229 76.9294 71.0046C77.8955 70.7415 78.886 70.5029 79.8766 70.2949C81.9179 69.8666 83.9817 69.5542 86.0583 69.359C86.2112 69.3528 86.3579 69.3406 86.4924 69.3406C87.323 69.3411 88.1382 69.5651 88.8526 69.989C88.8587 69.989 88.8587 69.9952 88.8709 69.9952C89.5574 70.4055 90.1267 70.9858 90.524 71.6801C90.9213 72.3744 91.1332 73.1593 91.1394 73.9593H100.935C101.296 73.9593 101.656 73.9716 102.017 73.9899C115.659 74.5343 126.622 80.3705 127.325 93.7863C127.356 94.2512 127.368 94.7039 127.368 95.1689Z" fill="#2F2E41"/>
<path d="M69.4558 96.2308C79.0618 96.2308 86.849 88.4396 86.849 78.8288C86.849 69.218 79.0618 61.4269 69.4558 61.4269C59.8497 61.4269 52.0625 69.218 52.0625 78.8288C52.0625 88.4396 59.8497 96.2308 69.4558 96.2308Z" fill="#2F2E41"/>
<path d="M93.3349 70.7799C91.3589 80.1852 81.6098 85.8103 72.2832 83.5093C67.8044 82.4043 63.9477 79.5645 61.5617 75.6145C59.1757 71.6646 58.4557 66.9281 59.5601 62.4471C61.86 53.1158 73.1791 55.8059 80.6118 49.7177C91.1265 41.105 95.9997 58.0961 93.3349 70.7799Z" fill="#2F2E41"/>
<path d="M54.6894 332.587C69.5133 272.105 98.8856 220.119 147.53 179.39C149.413 176.291 152.447 174.066 155.967 173.203C159.487 172.34 163.206 172.909 166.307 174.786L281.947 244.936C285.044 246.819 287.268 249.855 288.131 253.377C288.993 256.899 288.424 260.619 286.549 263.722C267.982 325.783 240.173 379.636 193.708 416.919C191.826 420.018 188.792 422.243 185.271 423.106C181.751 423.969 178.033 423.4 174.931 421.523L59.2914 351.373C56.1944 349.49 53.9705 346.454 53.1078 342.932C52.2451 339.41 52.8138 335.69 54.6894 332.587V332.587Z" fill="#F2F2F2"/>
<path opacity="0.2" d="M75.2432 352.97C72.1462 351.086 69.9224 348.051 69.0597 344.529C68.197 341.007 68.7658 337.286 70.6414 334.184C85.4653 273.701 114.838 221.716 163.482 180.986C164.728 178.958 166.488 177.295 168.582 176.166L166.307 174.785C163.206 172.909 159.487 172.34 155.967 173.203C152.447 174.066 149.413 176.291 147.53 179.389C98.8856 220.119 69.5134 272.104 54.6895 332.587C52.8139 335.689 52.2451 339.41 53.1078 342.932C53.9705 346.454 56.1943 349.489 59.2913 351.373L174.931 421.523C176.989 422.762 179.338 423.435 181.74 423.473C184.142 423.511 186.511 422.913 188.608 421.74L75.2432 352.97Z" fill="black"/>
<path d="M210.86 319.179L133.237 272.385C132.003 271.639 131.116 270.434 130.77 269.035C130.424 267.635 130.648 266.156 131.391 264.921C132.135 263.686 133.338 262.797 134.736 262.449C136.135 262.101 137.614 262.323 138.849 263.065L216.472 309.859C217.702 310.606 218.586 311.811 218.93 313.209C219.275 314.607 219.051 316.084 218.308 317.317C217.565 318.551 216.364 319.439 214.968 319.788C213.572 320.137 212.094 319.918 210.859 319.178L210.86 319.179Z" fill="white"/>
<path d="M165.703 257.125L148.626 246.83C147.389 246.09 146.496 244.887 146.145 243.488C145.793 242.089 146.011 240.607 146.752 239.369C147.492 238.131 148.694 237.237 150.092 236.886C151.491 236.534 152.972 236.753 154.21 237.493L154.239 237.511L171.316 247.806C172.546 248.553 173.431 249.757 173.775 251.155C174.12 252.553 173.896 254.031 173.153 255.265C172.41 256.498 171.209 257.387 169.813 257.735C168.416 258.084 166.938 257.865 165.703 257.125V257.125Z" fill="white"/>
<path d="M198.523 339.664L120.9 292.87C119.665 292.126 118.776 290.922 118.428 289.523C118.08 288.123 118.302 286.643 119.044 285.407C119.787 284.171 120.989 283.281 122.387 282.931C123.786 282.582 125.265 282.802 126.501 283.544L126.512 283.55L204.135 330.344C205.365 331.091 206.249 332.296 206.594 333.694C206.938 335.092 206.714 336.569 205.971 337.803C205.229 339.036 204.028 339.924 202.631 340.273C201.235 340.622 199.758 340.403 198.523 339.664L198.523 339.664Z" fill="white"/>
<path d="M220.717 230.947C233.238 230.947 243.389 220.791 243.389 208.264C243.389 195.736 233.238 185.58 220.717 185.58C208.196 185.58 198.045 195.736 198.045 208.264C198.045 220.791 208.196 230.947 220.717 230.947Z" fill="#3F3D56"/>
<path d="M181.636 416.641C208.399 416.641 230.094 394.935 230.094 368.159C230.094 341.383 208.399 319.676 181.636 319.676C154.873 319.676 133.178 341.383 133.178 368.159C133.178 394.935 154.873 416.641 181.636 416.641Z" fill="white"/>
<path d="M181.636 417.317C171.918 417.317 162.419 414.434 154.339 409.033C146.259 403.631 139.961 395.953 136.242 386.971C132.523 377.988 131.55 368.104 133.446 358.568C135.342 349.033 140.021 340.273 146.893 333.398C153.764 326.523 162.519 321.841 172.05 319.945C181.581 318.048 191.461 319.021 200.439 322.742C209.417 326.463 217.091 332.763 222.49 340.847C227.888 348.931 230.77 358.436 230.77 368.158C230.756 381.192 225.574 393.687 216.363 402.903C207.152 412.119 194.663 417.303 181.636 417.317V417.317ZM181.636 320.353C172.186 320.353 162.947 323.156 155.09 328.409C147.232 333.662 141.108 341.129 137.491 349.864C133.875 358.6 132.928 368.212 134.772 377.485C136.616 386.759 141.167 395.277 147.849 401.963C154.532 408.649 163.046 413.202 172.314 415.046C181.583 416.891 191.191 415.944 199.922 412.326C208.653 408.707 216.115 402.58 221.366 394.718C226.616 386.856 229.418 377.613 229.418 368.158C229.404 355.484 224.365 343.333 215.407 334.37C206.45 325.408 194.304 320.367 181.636 320.353V320.353Z" fill="#3F3D56"/>
<path d="M175.026 393.391C174.189 393.391 173.364 393.196 172.615 392.822C171.867 392.447 171.216 391.904 170.714 391.234L157.494 373.598C157.068 373.031 156.759 372.386 156.583 371.7C156.406 371.014 156.367 370.299 156.467 369.598C156.567 368.896 156.804 368.221 157.165 367.612C157.525 367.002 158.003 366.469 158.569 366.044C159.136 365.619 159.781 365.31 160.467 365.134C161.153 364.958 161.867 364.92 162.568 365.02C163.269 365.121 163.943 365.358 164.553 365.72C165.162 366.081 165.694 366.559 166.118 367.127L174.767 378.664L196.981 345.326C197.374 344.737 197.879 344.231 198.467 343.837C199.055 343.443 199.715 343.168 200.409 343.03C201.103 342.891 201.818 342.89 202.512 343.027C203.207 343.165 203.867 343.438 204.456 343.831C205.045 344.223 205.551 344.729 205.945 345.317C206.339 345.905 206.613 346.566 206.752 347.26C206.891 347.955 206.892 348.67 206.754 349.364C206.617 350.059 206.344 350.72 205.951 351.309L179.511 390.99C179.033 391.707 178.39 392.3 177.635 392.717C176.881 393.135 176.038 393.365 175.176 393.39C175.126 393.39 175.076 393.391 175.026 393.391Z" fill="#30C07B"/>
<path d="M338.133 157.155C340.058 156.99 341.527 155.77 341.412 154.43C341.297 153.09 339.644 152.137 337.718 152.302C335.792 152.466 334.324 153.686 334.439 155.027C334.553 156.367 336.207 157.32 338.133 157.155Z" fill="white"/>
<path d="M359.799 149.802C361.724 149.637 363.193 148.417 363.078 147.077C362.964 145.736 361.31 144.783 359.384 144.948C357.458 145.113 355.99 146.333 356.105 147.673C356.219 149.013 357.873 149.966 359.799 149.802Z" fill="#3F3D56"/>
<path d="M327.862 140.617C329.788 140.452 331.256 139.232 331.142 137.892C331.027 136.552 329.373 135.599 327.448 135.764C325.522 135.928 324.054 137.148 324.168 138.489C324.283 139.829 325.937 140.782 327.862 140.617Z" fill="#FF6584"/>
<path d="M318.774 135.288C319.603 135.101 320.057 133.983 319.788 132.791C319.518 131.599 318.628 130.784 317.8 130.972C316.971 131.159 316.517 132.277 316.786 133.469C317.055 134.661 317.946 135.476 318.774 135.288Z" fill="#E6E6E6"/>
<path d="M312.305 122.351C313.133 122.164 313.587 121.046 313.318 119.854C313.049 118.662 312.159 117.847 311.33 118.035C310.501 118.222 310.047 119.34 310.317 120.532C310.586 121.724 311.476 122.539 312.305 122.351Z" fill="#3F3D56"/>
<path d="M343.349 140.519C344.177 140.332 344.631 139.214 344.362 138.022C344.093 136.83 343.202 136.015 342.374 136.203C341.545 136.39 341.091 137.508 341.36 138.7C341.63 139.892 342.52 140.707 343.349 140.519Z" fill="#E6E6E6"/>
<path d="M333.886 148.379C334.714 148.192 335.168 147.073 334.899 145.881C334.63 144.689 333.74 143.875 332.911 144.062C332.082 144.25 331.628 145.368 331.898 146.56C332.167 147.752 333.057 148.566 333.886 148.379Z" fill="#FF6584"/>
<path d="M351.113 154.781C351.942 154.593 352.396 153.475 352.126 152.283C351.857 151.091 350.967 150.277 350.138 150.464C349.31 150.651 348.856 151.77 349.125 152.962C349.394 154.154 350.284 154.968 351.113 154.781Z" fill="#3F3D56"/>
<path d="M248.682 56.9417C249.012 55.6379 247.761 54.1958 245.888 53.7208C244.015 53.2458 242.228 53.9177 241.898 55.2216C241.568 56.5255 242.818 57.9676 244.692 58.4426C246.565 58.9176 248.352 58.2456 248.682 56.9417Z" fill="white"/>
<path d="M225.804 56.7942C226.134 55.4903 224.883 54.0483 223.01 53.5733C221.137 53.0983 219.35 53.7702 219.02 55.0741C218.69 56.378 219.941 57.8201 221.814 58.2951C223.687 58.7701 225.474 58.0981 225.804 56.7942Z" fill="#3F3D56"/>
<path d="M252.975 75.9319C253.305 74.628 252.054 73.1859 250.181 72.7109C248.307 72.2359 246.521 72.9078 246.191 74.2117C245.861 75.5156 247.111 76.9577 248.985 77.4327C250.858 77.9077 252.645 77.2357 252.975 75.9319Z" fill="#FF6584"/>
<path d="M258.308 83.0926C258.444 81.8781 257.869 80.8171 257.025 80.7227C256.181 80.6283 255.386 81.5363 255.25 82.7507C255.115 83.9652 255.689 85.0262 256.534 85.1206C257.378 85.215 258.173 84.307 258.308 83.0926Z" fill="#E6E6E6"/>
<path d="M260.189 97.436C260.325 96.2215 259.75 95.1605 258.906 95.0661C258.061 94.9717 257.267 95.8796 257.131 97.0941C256.996 98.3086 257.57 99.3696 258.415 99.464C259.259 99.5584 260.054 98.6504 260.189 97.436Z" fill="#3F3D56"/>
<path d="M236.801 70.1016C236.936 68.8872 236.362 67.8261 235.517 67.7317C234.673 67.6373 233.878 68.5453 233.743 69.7598C233.607 70.9742 234.182 72.0353 235.026 72.1297C235.87 72.2241 236.665 71.3161 236.801 70.1016Z" fill="#E6E6E6"/>
<path d="M248.313 65.7742C248.449 64.5598 247.874 63.4987 247.03 63.4043C246.185 63.3099 245.391 64.2179 245.255 65.4324C245.12 66.6468 245.694 67.7079 246.539 67.8023C247.383 67.8967 248.178 66.9887 248.313 65.7742Z" fill="#FF6584"/>
<path d="M234.13 54.0829C234.265 52.8685 233.691 51.8074 232.846 51.713C232.002 51.6186 231.207 52.5266 231.072 53.7411C230.936 54.9555 231.511 56.0166 232.355 56.111C233.2 56.2054 233.994 55.2974 234.13 54.0829Z" fill="#3F3D56"/>
<path d="M61.9002 333.227C60.1723 332.519 58.6189 331.444 57.3473 330.075C56.0757 328.707 55.1163 327.079 54.5355 325.304C53.9546 323.528 53.7662 321.648 53.9832 319.792C54.2003 317.936 54.8176 316.15 55.7925 314.557L18.542 262.168L30.4922 248.297L74.2805 310.843C76.8391 312.685 78.6338 315.401 79.3245 318.478C80.0151 321.555 79.5537 324.778 78.0276 327.537C76.5016 330.296 74.017 332.399 71.0446 333.448C68.0722 334.497 64.8186 334.418 61.9002 333.227H61.9002Z" fill="#FFB6B6"/>
<path d="M62.7559 167.209C60.8713 166.1 58.6533 165.698 56.4998 166.078C54.3464 166.457 52.3986 167.592 51.0061 169.279L0.675781 239.703L47.3189 305.983L65.5705 286.37L37.1791 241.732L74.9115 205.789C78.0122 198.993 78.4858 191.288 76.2409 184.163C73.9959 177.038 69.1916 170.997 62.7559 167.209V167.209Z" fill="#30C07B"/>
</g>
<defs>
<clipPath id="clip0_1594_53863">
<rect width="389" height="393" fill="white"/>
</clipPath>
</defs>
</svg>
