<svg width="539" height="358" viewBox="0 0 539 358" fill="none" xmlns="http://www.w3.org/2000/svg">
<g clip-path="url(#clip0_1594_53783)">
<path d="M208.39 32.343H142.996C140.753 32.343 138.928 30.521 138.928 28.2817C138.928 26.0423 140.753 24.2203 142.996 24.2203H208.39C210.633 24.2203 212.459 26.0423 212.459 28.2817C212.459 30.521 210.633 32.343 208.39 32.343Z" fill="#E6E7E8"/>
<path d="M259.423 46.0892H142.996C140.753 46.0892 138.928 44.2672 138.928 42.0279C138.928 39.7885 140.753 37.9665 142.996 37.9665H259.423C261.667 37.9665 263.492 39.7885 263.492 42.0279C263.492 44.2672 261.667 46.0892 259.423 46.0892Z" fill="#E6E7E8"/>
<path d="M259.423 59.7117H142.996C140.753 59.7117 138.928 57.8897 138.928 55.6504C138.928 53.411 140.753 51.589 142.996 51.589H259.423C261.667 51.589 263.492 53.411 263.492 55.6504C263.492 57.8897 261.667 59.7117 259.423 59.7117Z" fill="#E6E7E8"/>
<path d="M271.756 130.405V128.459C249.253 128.459 229.602 110.11 224.377 84.5498L232.856 86.7272C228.755 82.8488 224.612 76.3561 222.042 71.0497C220.524 76.7463 217.689 83.9051 214.398 88.4889L222.421 84.6955C227.755 111.287 248.251 130.405 271.756 130.405V130.405Z" fill="#3F3D56"/>
<path d="M263.244 55.93C263.244 58.0761 261.495 59.8222 259.345 59.8222H208.656C206.506 59.8222 204.757 58.0761 204.757 55.93C204.757 53.7839 206.506 52.0379 208.656 52.0379H259.345C261.495 52.0379 263.244 53.7839 263.244 55.93Z" fill="#30C07B"/>
<path d="M34.9987 272.74C34.2271 270.057 32.9057 267.77 31.3325 266.138L25.6166 240.129L13.1577 243.175L20.2973 269.231C19.8278 271.435 19.9217 274.067 20.6934 276.749C22.4562 282.877 27.0876 286.946 31.0379 285.839C34.9882 284.732 36.7615 278.867 34.9987 272.74H34.9987V272.74Z" fill="#FFB6B6"/>
<path d="M33.275 102.126C33.275 102.126 19.8181 101.663 12.0198 110.42C3.08536 121.315 -3.02176 164.003 1.56288 166.877L13.9843 254.923L31.697 252.493L27.1511 146.851L33.275 102.126V102.126V102.126Z" fill="#30C07B"/>
<path d="M124.12 250.537L120.896 357.997H74.5938L72.7223 316.575L64.4951 357.997H14.8687L21.0585 286.79L27.4531 271.815L31.7812 261.666L124.12 250.537Z" fill="#2F2E41"/>
<path d="M87.3443 84.5736L55.1763 82.6276L44.4536 96.2501C35.1928 98.2294 26.8283 100.785 21.0587 105.007C22.439 145.803 19.4068 198.849 31.7814 209.122L20.793 286.54C20.793 286.54 25.2243 282.75 32.6266 284.088C35.1839 284.55 38.2709 290.301 41.4133 290.649C65.5585 293.327 104.713 290.573 124.12 250.537L116.588 192.581L118.537 107.927C112.443 103.117 104.865 99.9922 96.1173 98.1962L87.3443 84.5737V84.5736H87.3443Z" fill="#30C07B"/>
<path d="M149.273 60.8911C149.622 64.2645 149.179 67.437 148.158 69.9806L153.517 101.908L138.222 104.009L134.433 71.3955C132.913 69.1138 131.83 66.0987 131.481 62.7252C130.684 55.0185 134.02 48.3605 138.933 47.854C143.846 47.3475 148.475 53.1844 149.273 60.891V60.8911H149.273H149.273Z" fill="#FFB6B6"/>
<path d="M98.4251 110.366C96.8237 112.724 97.2698 115.375 96.8875 118.56C95.2644 132.082 121.223 172.038 139.184 176.639C141.541 177.243 142.883 179.78 145.262 180.291H145.262C152.31 181.803 158.871 176.219 158.491 169.034L153.612 76.8795L133.115 83.8582L134.427 131.703C134.296 121.791 125.178 111.699 118.272 107.501C118.272 107.501 104.283 101.739 98.4251 110.366L98.4251 110.366Z" fill="#30C07B"/>
<path d="M74.5985 80.1095C90.2475 80.1095 102.933 67.4464 102.933 51.8256C102.933 36.2048 90.2475 23.5416 74.5985 23.5416C58.9496 23.5416 46.2637 36.2048 46.2637 51.8256C46.2637 67.4464 58.9496 80.1095 74.5985 80.1095Z" fill="#FFB6B6"/>
<path d="M100.991 31.0566C100.748 31.1151 104.721 27.249 104.891 27.1645C108.79 25.2184 104.783 44.2413 101.966 43.7061C95.0355 42.3925 92.0429 39.7847 89.3525 46.2944C88.6019 48.1042 88.134 50.1476 86.6719 51.4418C84.6638 53.2029 81.33 53.057 79.6924 55.1587C78.3764 56.8518 78.7566 59.3428 79.7314 61.2499C80.7062 63.1668 82.1879 64.7918 83.0749 66.7476C84.0692 68.9467 79.8288 75.9428 78.2107 79.8738V79.8836L78.2011 79.9066C77.7711 80.9377 76.7494 77.9674 75.6706 77.6709C74.3798 77.3161 72.4781 80.3586 70.4221 79.8057C70.4124 79.8057 70.4026 79.796 70.3929 79.796C68.4335 79.2511 66.25 78.6673 64.086 78.0834H64.0763C57.9838 76.4293 56.4437 78.8035 56.1512 78.7354L52.3691 74.7849C51.0711 73.8415 51.2178 70.796 50.3025 69.9781C49.554 69.3091 47.6879 70.8549 47.138 70.2119C44.4414 67.0593 43.8209 63.9054 42.2312 57.6789C40.7788 51.9867 37.7667 34.9488 43.9566 34.18C49.7956 33.4503 45.526 25.3352 51.404 25.6368C51.0531 24.1578 51.7062 22.5717 52.7687 21.4819C53.8215 20.3824 55.2252 19.7013 56.6386 19.1175C63.6084 16.2762 62.4484 13.834 69.7983 15.4881C70.5293 14.4664 79.9042 11.8029 81.23 12.1435C81.3275 12.1629 79.1855 16.3152 84.4201 15.4881C84.2251 16.6849 87.0787 14.0895 87.3444 18.4072C92.9275 15.0626 95.9323 23.068 96.1175 24.2454C96.3612 25.7147 94.1387 24.9654 95.6204 25.1892C96.4977 25.3254 97.9989 27.1061 97.8527 27.9915C98.4863 27.1353 99.1199 26.2887 99.7632 25.4325C99.8802 25.4422 99.9874 25.4617 100.104 25.4811C103.068 26.0455 99.6704 35.7155 99.7925 32.7011C100.017 27.1645 103.945 30.4047 100.991 31.0566H100.991V31.0566Z" fill="#2F2E41"/>
<path d="M462.41 25.2578C461.363 33.8471 460.219 42.4246 458.979 50.9882C458.475 54.4663 457.942 57.9887 456.54 61.2124C455.583 63.4129 454.243 65.4223 452.91 67.4183C451.335 69.777 449.734 72.1658 447.595 74.0303C445.456 75.8948 442.677 77.204 439.846 76.9849C447.358 71.9372 452.407 63.3997 453.204 54.3956C453.579 50.1631 453.065 45.9086 452.966 41.6608C452.867 37.4129 453.224 33.0172 455.187 29.2472C457.15 25.4773 461.029 22.4594 465.284 22.5666L462.41 25.2578H462.41V25.2578Z" fill="#2F2E41"/>
<path d="M386.277 208.454C380.165 213.403 372.652 214.267 369.497 210.384C366.342 206.501 368.74 199.342 374.852 194.394C377.528 192.227 380.472 190.844 383.201 190.299L409.365 169.654L418.809 182.116L392.014 201.145C390.916 203.698 388.953 206.288 386.277 208.454H386.277L386.277 208.454L386.277 208.454Z" fill="#A0616A"/>
<path d="M391.219 180.428L430.204 143.503L434.103 140.584C434.103 140.584 456.481 118.821 462.276 118.322C464.731 118.112 467.185 118.723 469.253 120.063C472.593 122.226 474.323 125.785 474.323 129.372C474.323 132.369 473.114 135.381 470.638 137.599L434.948 169.582L419.764 183.187L400.882 200.112L398.962 196.209L392.471 182.983L391.219 180.428V180.428L391.219 180.428H391.219Z" fill="#30C07B"/>
<path d="M474.578 155.439L435.544 167.373C442.08 169.21 444.816 208.96 438.734 210.195C438.734 210.195 503.426 214.788 499.896 210.195C495.593 204.596 501.364 167.389 504.115 167.373L474.578 155.439V155.439Z" fill="#A0616A"/>
<path d="M526.518 358L523.106 316.899C523.106 302.196 522.151 288.914 520.621 277.073C514.489 229.54 499.117 205.175 499.117 205.175H441.604C441.526 205.263 441.448 205.331 441.37 205.418L441.361 205.428C427.792 219.663 420.734 255.461 417.595 277.073C416.104 287.358 415.5 294.432 415.5 294.432L409.875 344.329L413.94 358H447.404L446.878 355.071L468.411 277.073L468.674 276.119L468.908 277.073L488.872 358H526.518V358V358Z" fill="#2F2E41"/>
<path d="M442.783 131.729L454.936 107.241L465.176 89.4493L473.457 81.0253H496.12L498.229 89.4493L510.888 96.4692L515.366 131.569L499.414 207.724C480.426 192.28 441.289 188.003 441.289 188.003L434.948 169.582L430.756 147.392L430.25 144.739L442.783 131.729V131.729V131.729Z" fill="#30C07B"/>
<path d="M441.325 176.028C433.458 175.805 427.196 171.573 427.338 166.576C427.48 161.579 433.972 157.708 441.839 157.931C445.283 158.028 448.419 158.894 450.845 160.256L484.168 161.618L483.195 177.213L450.448 174.216C447.949 175.438 444.769 176.125 441.325 176.027V176.027L441.325 176.028V176.028Z" fill="#A0616A"/>
<path d="M483.939 122.795L515.373 153.946L460.621 159.543L447.897 177.408L524.212 179.934C531.097 182.382 538.431 177.632 538.998 170.358V170.358C539.189 167.902 523.511 105.581 514.02 99.7949C502.896 93.0138 483.939 122.795 483.939 122.795L490.148 112.478L483.939 122.795V122.795Z" fill="#30C07B"/>
<path d="M505.775 50.4593C506.003 36.31 494.697 24.6548 480.523 24.4266C466.348 24.1985 454.672 35.4838 454.443 49.6331C454.215 63.7824 465.52 75.4376 479.695 75.6658C493.87 75.8939 505.546 64.6086 505.775 50.4593Z" fill="#A0616A"/>
<path d="M536.456 129.881C535.812 132.313 530.802 133.569 529.632 136.692C525.908 138.813 527.926 121.483 526.425 120.345C525.265 119.479 524.953 121.571 524.69 119.771C523.695 113.018 517.194 114.526 512.378 113.436C511.832 112.376 511.413 111.344 511.14 110.342C510.653 108.532 508.43 107.9 507.114 109.233C506.52 108.708 506.091 106.849 505.672 104.991C505.37 103.638 505.067 102.285 504.716 101.429L501.363 93.8784L502.445 99.5026C500.252 98.7144 498.039 99.5318 496.762 96.8267C495.124 93.353 494.471 89.2857 495.661 85.6368C496.743 82.3285 498.566 75.7021 500.622 70.2142C498.293 71.8975 495.495 73.1236 492.249 73.7366C493.399 71.557 494.569 69.3385 495.056 66.9156C495.534 64.4927 495.241 61.7974 493.701 59.8708C492.434 58.2848 490.562 58.6837 488.983 57.409C487.755 56.4166 486.693 53.877 485.952 52.4855C489.11 62.9651 491.498 74.0966 487.482 84.0994C484.704 91.0275 478.855 96.6613 471.837 99.2204C475.57 96.5543 479.216 93.713 482.014 90.0933C485.006 86.2109 486.956 81.3068 486.361 76.4416C485.425 68.8033 471.232 44.6428 469.488 39.8944C470.443 44.5358 470.072 48.1555 467.557 50.1502C466.904 43.4168 459.554 44.0298 455.548 41.3345C455.548 41.3345 452.448 23.849 459.72 23.742C463.229 23.6933 466.904 15.4614 470.092 13.9921C475.18 11.6471 478.3 13.2429 483.944 13.4181C489.578 13.5835 494.988 16.0063 498.429 20.4531C500.232 22.7787 500.895 20.9299 503.605 22.3797C506.179 23.7517 507.914 22.477 510.828 22.5646C516.667 22.7203 522.331 25.834 525.606 30.6505C528.881 35.4768 530.899 35.0292 529.603 42.4924C529.583 42.5799 529.583 42.7551 529.603 43.0178C530.314 54.7721 528.492 66.5556 523.822 77.3757C522.38 80.7035 529.436 84.1382 529.427 88.2931C529.417 93.1193 521.629 97.5176 522.35 99.5804C524.417 109.515 536.027 107.306 533.287 123.936C533.063 125.288 536.884 128.256 536.456 129.881V129.881Z" fill="#2F2E41"/>
<path d="M465.342 99.4547C465.557 99.3866 465.771 99.3088 465.986 99.2212C465.713 99.4158 465.45 99.6007 465.177 99.7953L465.342 99.4547H465.342Z" fill="#2F2E41"/>
<path d="M501.499 17.4759C498.707 17.8902 495.87 13.2657 497.456 6.85278C500.911 12.1262 502.677 18.0628 502.955 24.5836L501.093 25.1595L501.499 17.4759V17.4759Z" fill="#30C07B"/>
<path d="M515.766 11.4901C513.86 18.2299 504.184 22.7406 502.474 20.395L502.279 24.4143L501.083 22.878C504.553 17.7264 509.284 13.7744 515.766 11.4901H515.766V11.4901Z" fill="#30C07B"/>
<path d="M303.277 193.239C303.277 191 305.102 189.178 307.346 189.178H372.739C374.983 189.178 376.808 191 376.808 193.239C376.808 195.478 374.983 197.3 372.739 197.3H307.346C305.102 197.3 303.277 195.478 303.277 193.239Z" fill="#E6E7E8"/>
<path d="M303.277 220.484C303.277 218.245 305.102 216.423 307.346 216.423H372.739C374.983 216.423 376.808 218.245 376.808 220.484C376.808 222.723 374.983 224.545 372.739 224.545H307.346C305.102 224.545 303.277 222.723 303.277 220.484Z" fill="#E6E7E8"/>
<path d="M256.312 211.047C254.069 211.047 252.244 209.225 252.244 206.985C252.244 204.746 254.069 202.924 256.312 202.924H372.739C374.983 202.924 376.808 204.746 376.808 206.985C376.808 209.225 374.983 211.047 372.739 211.047H256.312Z" fill="#E6E7E8"/>
<path d="M247.657 172.176L239.634 168.382C242.925 172.966 245.76 180.125 247.278 185.822C249.848 180.515 253.991 174.022 258.092 170.144L249.613 172.321C254.838 146.762 274.489 128.413 296.992 128.413V126.466C273.487 126.466 252.991 145.584 247.657 172.176Z" fill="#3F3D56"/>
<path d="M284.581 211.121H233.892C231.742 211.121 229.993 209.375 229.993 207.228C229.993 205.082 231.742 203.336 233.892 203.336H284.581C286.731 203.336 288.48 205.082 288.48 207.228C288.48 209.375 286.731 211.121 284.581 211.121Z" fill="#30C07B"/>
<path d="M299.385 131.521C300.735 123.215 295.085 115.39 286.764 114.042C278.444 112.694 270.604 118.335 269.254 126.64C267.904 134.946 273.554 142.771 281.875 144.119C290.195 145.467 298.035 139.826 299.385 131.521Z" fill="#3F3D56"/>
<path d="M201.463 18.7939C206.662 18.7939 210.877 14.5868 210.877 9.39697C210.877 4.20717 206.662 0 201.463 0C196.264 0 192.049 4.20717 192.049 9.39697C192.049 14.5868 196.264 18.7939 201.463 18.7939Z" fill="#E6E7E8"/>
<path d="M311.614 181.291C316.813 181.291 321.027 177.084 321.027 171.894C321.027 166.704 316.813 162.497 311.614 162.497C306.414 162.497 302.2 166.704 302.2 171.894C302.2 177.084 306.414 181.291 311.614 181.291Z" fill="#E6E7E8"/>
</g>
<defs>
<clipPath id="clip0_1594_53783">
<rect width="539" height="358" fill="white"/>
</clipPath>
</defs>
</svg>
