<svg width="16" height="16" viewBox="0 0 16 16" fill="none" xmlns="http://www.w3.org/2000/svg">
<path d="M8.98871 5.32818C8.96436 5.2005 8.88895 5.09441 8.78134 5.03507C8.7185 5.0009 8.71457 5 8.62188 5C8.53155 5 8.52448 5.0018 8.46557 5.03237C8.40351 5.06474 8.39487 5.07463 7.24962 6.38284C6.49398 7.246 6.08552 7.71983 6.06432 7.7558C5.98341 7.89606 5.9787 8.08128 6.05096 8.21794C6.07845 8.26919 8.38702 10.9108 8.43022 10.9405C8.61874 11.0681 8.86381 10.9827 8.95807 10.758C9.01306 10.6249 9.0107 10.4891 8.94943 10.365C8.92822 10.321 8.713 10.0692 7.91258 9.15393L6.90244 7.99766L7.91808 6.8342C9.0162 5.57633 8.96436 5.64017 8.98949 5.5062C9.00363 5.43068 9.00363 5.4046 8.98871 5.32818Z" fill="rgb(196, 196, 196)"/>
</svg>
