<svg width="16" height="16" viewBox="0 0 16 16" fill="none" xmlns="http://www.w3.org/2000/svg">
<path d="M7.01129 10.6718C7.03564 10.7995 7.11105 10.9056 7.21866 10.9649C7.2815 10.9991 7.28543 11 7.37812 11C7.46845 11 7.47552 10.9982 7.53443 10.9676C7.59649 10.9353 7.60513 10.9254 8.75038 9.61716C9.50602 8.754 9.91448 8.28017 9.93568 8.2442C10.0166 8.10394 10.0213 7.91872 9.94904 7.78206C9.92155 7.73081 7.61298 5.0892 7.56978 5.05953C7.38126 4.93185 7.13619 5.01727 7.04193 5.24205C6.98694 5.37512 6.9893 5.51088 7.05057 5.63496C7.07178 5.67902 7.287 5.93077 8.08742 6.84608L9.09756 8.00234L8.08192 9.1658C6.9838 10.4237 7.03564 10.3598 7.01051 10.4938C6.99637 10.5693 6.99637 10.5954 7.01129 10.6718Z" fill="#1B1B2D"/>
</svg>
