<svg width="378" height="473" viewBox="0 0 378 473" fill="none" xmlns="http://www.w3.org/2000/svg">
<path fill-rule="evenodd" clip-rule="evenodd" d="M70.875 189.2V118.25C70.875 86.8881 83.3203 56.8108 105.473 34.6346C127.626 12.4584 157.671 0 189 0C220.329 0 250.374 12.4584 272.527 34.6346C294.68 56.8108 307.125 86.8881 307.125 118.25V189.2H330.75C343.281 189.2 355.3 194.183 364.161 203.054C373.022 211.924 378 223.955 378 236.5V425.7C378 438.245 373.022 450.276 364.161 459.146C355.3 468.017 343.281 473 330.75 473H47.25C34.7185 473 22.7003 468.017 13.8392 459.146C4.97811 450.276 0 438.245 0 425.7V236.5C0 223.955 4.97811 211.924 13.8392 203.054C22.7003 194.183 34.7185 189.2 47.25 189.2H70.875ZM47.25 236.5V425.7H330.75V236.5H47.25ZM118.125 189.2H259.875V118.25C259.875 99.4329 252.408 81.3865 239.116 68.0808C225.825 54.7751 207.797 47.3 189 47.3C170.203 47.3 152.175 54.7751 138.884 68.0808C125.592 81.3865 118.125 99.4329 118.125 118.25V189.2ZM236.25 283.8H283.5V378.4H236.25V283.8Z" fill="#FFFFFF"/>
</svg>
