<svg width="381" height="381" viewBox="0 0 381 381" fill="none" xmlns="http://www.w3.org/2000/svg">
<path d="M340.457 150.118C362.672 233.024 313.473 318.239 230.565 340.454C147.659 362.668 62.4444 313.469 40.2299 230.564C18.0147 147.655 67.2122 62.4374 150.119 40.2227C233.026 18.0077 318.242 67.2094 340.457 150.118Z" fill="url(#paint0_linear_571_1527)"/>
<path d="M340.252 150.324C362.449 233.164 313.289 318.312 230.447 340.51C147.607 362.707 62.458 313.547 40.261 230.706C18.0643 147.867 67.225 62.7171 150.065 40.5203C232.907 18.3229 318.055 67.4839 340.252 150.324ZM191.193 76.3272L192.306 75.9569L192.82 75.4622L194.26 75.5371L194.378 74.746L192.681 74.2156L192.151 75.0041L191.446 75.5458L190.486 75.9975L189.271 76.4544L189.237 75.4148L188.279 74.9938L186.91 74.9086L186.155 75.1287L186.314 75.8087L186.156 76.4484L187.073 76.8898L187.222 77.8449L188.094 77.6924L187.978 78.2706L189.011 78.4008L188.731 79.0047L189.131 79.9277L189.191 79.9485L190.263 79.8323L191.921 79.4559L193.094 78.7751L192.918 78.0494L193.775 78.516L194.947 78.2696L196.111 77.6645L197.26 76.7371L195.893 76.7641L194.468 76.6445L192.956 76.5341L191.922 76.6754L191.193 76.3272ZM252.933 85.5608L253.919 85.4598L253.819 84.786L253.021 84.5389L252.581 84.9237L252.933 85.5608ZM252.151 83.9939L253.35 84.0974L253.409 83.5122L252.919 82.7941L252.507 82.9591L251.855 82.3964L250.903 82.3535L251.534 83.1697L252.151 83.9939ZM254.304 84.5873L254.853 84.3776L254.539 83.7745L254.092 83.4104L253.975 83.9027L254.304 84.5873ZM245.881 76.031L246.85 76.0016L246.186 75.4472L245.158 75.3208L244.444 74.8519L245.079 75.6177L245.881 76.031ZM289.738 110.404L289.932 109.782L290.427 109.537L289.61 108.531L289.066 108.974L289.738 110.404ZM340.662 156.177L340.663 155.843L340.408 154.915L340.35 155.085L340.662 156.177ZM233.006 339.722L232.844 339.759L233.174 339.657L232.565 339.816L231.767 340.057L231.294 340.197L233.006 339.722ZM174.633 191.293L175.931 191.514L176.941 191.809L177.055 190.63L176.022 191.061L174.633 191.293ZM232.252 339.692L231.924 339.854L231.927 339.898L231.624 340.047L232.722 339.744L233.209 339.568L232.89 339.627L233.546 339.392L233.38 339.396L232.252 339.692ZM246.166 264.63L247.558 263.99L247.985 263.189L247.637 262.129L246.091 263.037L246.562 263.042L246.844 263.91L246.166 264.63ZM186.153 253.772L186.535 254.136L186.351 254.497L186.918 254.503L187.684 254.123L187.164 253.48L186.54 253.175L186.153 253.772ZM241.614 251.017L242.056 251.672L242.26 250.93L242.845 250.666L242.251 250.287L242.261 250.931L241.614 251.017ZM209.789 250.644L211.005 250.291L211.145 249.191L210.898 249.908L210.035 249.928L209.789 250.644ZM196.312 239.641L195.885 239.212L195.174 239.371L194.165 240.043L193.335 239.697L196.312 239.641ZM197.802 240.612L197.966 239.251L196.611 238.511L197.802 240.612ZM201.405 243.145L201.111 242.012L199.451 241.453L201.405 243.145ZM207.652 247.934L208.304 246.788L206.924 246.498L207.652 247.934ZM214.603 247.252L212.927 247.172L212.195 247.997L214.603 247.252ZM194.907 216.7L195.693 216.024L195.812 215.083L194.907 216.7ZM195.208 201.29L196.468 200.677L197.711 200.086L198.832 199.039L198.052 198.796L197.204 199.529L196.28 200.03L195.185 200.596L195.208 201.29ZM174.937 162.686L175.752 162.3L174.981 163.574L175.846 163.396L176.203 162.636L176.425 163.733L176.482 162.14L175.985 161.568L174.937 162.686ZM173.374 171.835L174.381 172.116L175.539 172.335L174.939 171.329L174.227 171.217L173.374 171.835ZM166.698 118.965L166.571 119.79L166.986 120.783L168.087 120.926L168.796 120.401L170.084 120.368L170.042 119.638L169.568 118.743L168.663 118.47L167.591 118.585L166.698 118.965ZM157.817 105.392L158.275 106.02L158.489 106.903L158.15 107.712L158.21 108.745L158.845 109.547L160.343 109.449L160.986 108.562L161.409 107.445L162.067 106.793L162.037 105.938L161.194 105.762L161.422 104.792L161.052 104.268L160.064 104.175L159.642 103.529L159.452 102.535L158.817 102.561L158.618 103.573L157.97 104.375L157.817 105.392ZM155.72 105.578L156.489 105.951L156.165 104.98L155.72 105.578ZM155.941 110.754L156.899 111.225L158.016 111.482L158.547 110.951L158.495 110.418L157.113 110.386L155.941 110.754ZM151.186 110.401L150.993 111.556L151.668 111.881L151.593 111.029L151.74 110.28L151.186 110.401ZM149.822 116.426L150.589 116.492L150.392 115.636L149.822 116.426ZM147.634 108.283L148.532 108.377L148.888 108.779L149.624 108.858L150.123 108.511L149.426 107.884L148.268 107.815L147.634 108.283ZM146.408 108.784L146.477 109.362L146.909 109.355L147.202 108.594L146.408 108.784ZM147.157 109.419L146.959 110.2L147.647 110.589L148.727 110.2L149.249 109.197L148.696 109.105L147.956 109.313L147.157 109.419ZM141.401 113.294L141.825 113.714L142.403 113.188L143.065 112.401L142.135 112.695L141.401 113.294ZM77.1884 103.449L76.7477 104.132L76.766 104.539L77.225 103.756L77.1884 103.449ZM72.9089 116.48L73.2517 116.51L73.5299 115.811L72.9089 116.48ZM73.0101 117.768L73.1398 118.371L73.4516 117.627L73.0101 117.768ZM73.7375 119.707L73.9166 120.175L74.3726 120.002L73.7375 119.707ZM75.5463 125.343L76.4716 125.642L76.8323 125.758L77.2874 125.365L77.0382 124.925L75.5463 125.343ZM76.9058 126.132L77.3684 126.609L77.8789 126.928L78.4264 126.442L78.245 125.614L77.6371 126.147L76.9058 126.132ZM96.9764 107.269L96.2402 107.692L96.5305 108.437L95.9046 109.676L96.5731 110.197L96.634 109.228L97.0945 108.331L96.9764 107.269ZM90.1897 115.9L89.7997 116.822L89.7572 117.575L90.2588 117.947L90.7627 117.568L90.7939 116.908L90.4878 116.407L90.1897 115.9ZM88.9317 132.515L88.4185 134.145L89.2266 134.276L90.0093 133.958L90.7852 134.374L91.2345 133.521L91.1248 132.908L92.0909 133.242L92.3088 132.401L91.2786 132.387L90.3173 132.41L88.9317 132.515ZM198.027 93.9669L199.023 94.3284L199.144 93.8308L198.027 93.9669ZM295.514 75.9366L294.978 75.4513L294.669 75.1956L294.454 75.0496L294.581 75.2235L294.911 75.596L294.551 75.3629L294.074 75.0342L293.797 74.9234L293.733 74.99L293.434 74.9026L295.514 75.9366ZM272.321 58.2786L272.764 58.5663L271.608 57.8457L270.627 57.2538L269.382 56.521L269.193 56.3903L268.996 56.2625L268.074 55.7235L272.321 58.2786ZM207.881 36.3335L207.497 36.1967L207.389 36.113L206.337 36.1331L206.147 36.1883L204.968 36.0749L203.99 36.0155L202.395 35.8649L201.09 35.69L200.067 35.6293L199.111 35.4875L197.707 35.3938L196.538 35.3855L197.424 35.4469L198.308 35.4768L199.11 35.5651L200.067 35.6293L200.862 35.7285L202.091 35.8783L203.61 36.0318L204.394 36.1565L205.724 36.2435L206.841 36.3328L207.881 36.3335ZM85.7757 75.5677L85.4935 75.7997L85.195 76.2049L84.3885 76.9903L83.9374 77.5499L83.5949 78.0082L84.2017 77.339L84.4678 77.1681L84.9541 76.7399L85.0976 76.8187L85.5416 76.216L86.2436 75.5441L87.1555 74.712L88.2281 73.8051L88.9044 73.2574L89.7758 72.6124L90.6406 71.9427L90.9112 71.5848L90.0741 72.1571L89.7476 72.3036L89.5267 72.3901L89.7129 72.1411L89.2813 72.4374L85.7757 75.5677ZM84.4336 77.313L84.3129 77.5533L84.1836 77.8136L84.4336 77.313ZM83.4104 78.6904L83.1244 79.1918L82.7569 79.8101L82.5303 80.3458L82.7785 79.8906L83.3271 79.3233L83.5045 78.9233L83.4104 78.6904ZM82.0186 81.0699L81.7662 81.4273L81.6897 81.9176L81.997 81.4105L82.0186 81.0699ZM82.8619 84.8586L82.4645 85.0462L82.2152 85.7008L82.4599 85.7886L82.8382 85.615L82.6743 85.3558L82.8619 84.8586ZM106.832 64.0785L106.16 64.4081L106.114 64.8225L106.963 64.2787L106.832 64.0785ZM91.2617 88.4706L91.5245 89.2999L92.0762 88.9618L92.031 88.4901L91.2617 88.4706ZM100.011 68.637L99.1829 68.8728L98.7302 68.854L98.11 69.0025L97.3346 69.4499L96.7262 69.6756L96.2085 69.7693L95.5171 70.0401L94.9227 70.2355L94.5248 70.3193L94.3448 70.2724L93.8544 70.5668L93.0801 70.9822L92.8088 70.9826L92.1609 71.2646L92.0078 71.1833L90.9879 71.8135L91.217 71.8428L91.0896 72.0937L90.4783 72.6277L89.6054 73.3004L90.1652 73.028L90.7641 72.5467L91.2317 72.2857L91.9105 71.7831L92.4907 71.4329L92.9681 71.291L93.1676 71.3777L93.4535 71.3328L93.3744 71.5936L92.804 72.1484L91.8463 72.9116L92.5425 72.54L93.4359 72.0432L94.3337 71.563L95.1461 71.1875L95.9666 70.8231L96.8708 70.3861L97.4178 70.3163L98.0689 70.1647L98.9017 69.8464L99.6489 69.6322L100.344 69.3058L100.676 68.9092L99.8615 69.2588L99.7975 69.0724L100.011 68.637ZM114.834 93.1357L113.965 92.609L113.269 92.9312L113.584 93.5517L114.834 93.1357ZM113.584 93.551L113.297 94.1656L113.87 95.0562L114.748 94.229L114.834 93.1343L113.584 93.551ZM131.443 70.5485L130.489 70.8995L129.364 71.7973L129.955 71.9422L131.322 71.5441L131.792 70.9211L131.443 70.5485ZM132.933 70.7733L132.288 70.6615L132.087 71.0087L132.522 71.1452L132.933 70.7733ZM132.468 74.2385L131.196 74.3668L129.736 75.1741L129.239 75.768L129.9 76.125L130.886 75.3682L131.825 74.5377L132.468 74.2385ZM203.133 57.7677L201.948 57.398L201.091 57.5553L201.232 58.3035L202.318 58.2885L203.133 57.7677ZM178.334 68.4671L177.694 68.1952L176.658 68.4094L175.968 67.9749L175.444 68.0791L174.783 68.763L174.37 68.4533L173.614 68.5652L173.28 69.2918L174.242 69.0885L174.783 68.7629L175.94 68.882L176.659 68.4092L177.301 68.7298L178.334 68.4671ZM177.747 69.7003L177.347 69.1386L176.316 69.0711L176.272 69.4761L175.353 69.8087L174.781 70.4773L175.95 70.2496L176.612 69.6836L177.153 69.9316L177.747 69.7003ZM179.092 69.1187L178.41 68.8537L178.365 69.3224L179.092 69.1187ZM181.212 71.1632L181.145 70.7609L180.748 70.492L181.253 70.1847L181.044 69.7437L180.394 69.525L179.859 69.8894L178.977 70.0352L179.028 70.329L180.188 70.4613L179.791 70.7166L179.779 71.0953L181.212 71.1632ZM235.069 97.9691L235.398 97.5734L234.594 96.699L234.554 97.6094L235.069 97.9691ZM241.554 93.8266L240.485 93.4987L240.929 93.9403L241.554 93.8266ZM246.402 102.201L245.587 100.897L244.408 100.141L245.012 101.331L245.856 101.679L246.402 102.201ZM242.421 72.2613L242.833 71.9931L242.131 71.4985L241.427 71.0094L241.503 71.7528L242.421 72.2613ZM240.872 71.709L241.223 71.6554L240.703 71.1126L240.316 71.5283L240.872 71.709ZM288.404 84.7091L288.741 84.3112L289.602 84.8127L289.975 84.8071L289.708 84.2275L290.176 84.1834L289.319 83.4004L289.668 83.135L288.734 82.9518L288.03 82.7923L287.866 82.1806L287.127 82.2069L286.972 82.6731L286.959 83.2143L287.605 84.058L288.404 84.7091ZM291.719 83.7212L291.353 83.0147L291.148 82.4008L291.228 82.108L290.648 81.1425L290.037 80.1809L289.461 79.8153L290.175 80.6592L289.715 80.4301L290.227 81.2604L290.332 81.7301L290.876 82.5156L290.618 82.4667L290.897 83.2194L291.719 83.7212ZM284.383 72.0661L284.786 72.121L284.335 71.4508L283.598 70.7219L283.032 70.3308L282.591 69.8164L282.33 69.8185L280.985 68.7821L281.893 69.6235L282.587 70.3189L283.17 70.909L283.729 71.3603L284.383 72.0661ZM286.582 77.0823L287.049 77.2234L286.397 76.612L285.566 76.0751L286.582 77.0823ZM282.283 76.6119L281.793 76.418L282.139 76.8037L282.283 76.6119ZM302.153 159.067L302.895 159.239L302.828 158.503L302.295 157.488L302.348 158.414L302.153 159.067ZM303.538 157.896L304.046 158.122L304.184 157.389L303.753 157.011L303.365 157.368L303.538 157.896ZM304.614 155.077L304.646 154.051L303.69 153.028L303.776 152.304L303.418 151.727L303.39 152.312L303.69 153.028L304.206 154.634L304.614 155.077ZM43.1692 196.47L43.2381 197.066L43.4029 197.461L43.6195 196.937L43.4285 196.477L43.1692 196.47ZM44.0411 199.925L44.0314 200.764L44.372 201.496L44.3346 200.123L44.0411 199.925ZM45.0022 203.831L45.1015 204.524L45.0415 205.024L45.2535 205.292L45.4855 205.415L45.3396 204.433L45.1516 204.271L45.0022 203.831ZM279.056 74.4699L278.592 73.7352L278.042 72.8973L277.554 72.1732L277.133 72.101L276.532 71.4259L276.41 71.8796L276.384 71.9351L276.933 72.7513L277.691 73.7414L278.456 74.3409L279.515 75.2186L279.056 74.4699ZM283.269 97.6526L282.821 96.7732L282.06 96.0916L283.144 96.5967L283.841 96.8171L284.605 97.4124L285.698 98.1638L284.884 98.4365L284.19 98.2206L283.269 97.6526ZM286.724 100.05L287.442 100.418L288.269 100.504L289.314 101.06L290.363 101.755L290.999 101.513L290.245 100.639L290.168 100.017L289.287 99.3128L288.398 98.742L287.517 98.2908L286.668 97.9711L285.857 98.1295L286.637 99.2043L286.877 99.7824L286.724 100.05ZM292.035 97.1841L292.772 97.1313L292.673 96.6424L293.1 95.999L293.104 95.352L293.632 95.2149L293.527 94.3028L292.81 93.7177L292.224 93.6077L291.165 92.8563L290.185 91.9345L290.796 93.0819L291.239 94.2605L291.444 95.1139L291.24 95.5527L291.402 96.2918L292.035 97.1841ZM174.921 303.362L174.959 304.296L175.96 304.706L175.208 305.21L176.164 305.451L176.901 304.797L176.028 304.069L174.921 303.362ZM199.95 260.102L200.777 259.916L201.808 260.522L202.912 260.456L203.638 259.858L204.544 259.864L205.374 259.657L204.743 258.966L203.619 258.842L202.315 258.934L201.014 259.039L200.06 259.679L199.95 260.102ZM181.766 254.287L183.397 254.049L183.651 253.159L185.083 252.934L185.796 252.187L186.481 251.437L187.76 251.451L189.447 251.352L188.306 251.988L189.253 252.453L190.53 252.424L192.378 252.068L193.331 252.518L194.41 252.499L195.74 252.654L196.924 252.196L197.436 252.49L197.881 253.46L199.308 253.978L201.163 253.544L201.788 254.258L201.097 255.052L200.626 255.793L202.289 255.402L203.474 254.882L204.711 254.572L206.003 254.466L207.236 254.14L207.941 253.516L209.119 252.989L208.809 252.638L208.199 252.811L207.174 252.244L205.89 252.358L205.11 252.789L205.07 251.728L203.986 251.801L202.705 251.892L201.275 251.398L200.142 251.235L198.985 250.864L197.612 250.535L196.293 250.418L195.066 250.679L194.041 250.026L192.947 249.841L191.823 249.627L190.602 249.864L189.286 249.674L188.061 249.894L186.928 250.523L185.739 250.928L184.559 251.348L183.45 252.151L182.761 252.887L182.918 253.695L181.766 254.287ZM209.427 257.341L211.304 257.648L211.587 257.137L212.829 256.779L213.925 256.684L214.902 256.16L216.195 255.994L217.542 256.836L218.092 255.599L217.922 255.015L219.03 254.226L219.203 254.803L220.37 254.215L221.659 253.345L222.876 252.924L223.915 253.428L224.44 252.162L223.119 251.553L220.999 251.872L221.81 250.95L220.411 251.429L219.756 250.772L218.298 251.051L217.028 251.255L215.399 251.772L214.705 252.402L213.12 252.239L211.675 252.667L211.033 253.494L212.258 253.139L213.096 253.756L213.319 254.533L214.634 255.207L213.761 256.1L212.525 256.463L211.378 256.369L210.085 256.526L209.427 257.341ZM227.598 252.291L228.667 252.095L229.612 251.525L230.595 251.145L231.002 250.335L230.027 250.067L228.643 250.605L227.231 251.138L227.598 252.291ZM196.024 243.121L196.42 243.924L195.966 244.677L197.416 245.415L198.323 246.506L198.532 245.599L197.728 244.924L197.526 244.088L196.621 242.988L196.024 243.121ZM204.21 171.686L205.553 171.855L206.224 172.304L207.335 172.296L208.51 172.044L209.438 171.624L208.523 171.028L207.548 170.986L206.437 170.972L205.283 171.235L204.21 171.686ZM207.828 179.455L208.655 179.843L209.928 180.036L211.619 180.039L211.254 179.219L211.821 178.226L210.644 178.985L209.663 179.415L208.486 179.446L207.989 178.652L207.828 179.455ZM167.518 148.188L168.535 147.816L169.5 146.545L169.472 146.34L168.665 146.48L167.805 147.067L167.518 148.188ZM171.906 146.985L172.06 148.49L172.709 149.021L173.034 147.836L172.93 146.773L171.906 146.985ZM214.549 172.681L215.317 173.574L216.311 172.557L217.762 172.087L218.947 171.462L220.123 170.826L221.261 170.449L221.697 171.231L221.239 172.258L222.29 171.959L222.402 170.337L222.916 169.761L223.807 169.527L224.105 170.926L224.537 169.887L225.097 170.849L226.01 170.306L225.559 168.995L225.117 167.68L224.484 168.342L224.162 166.954L223.781 167.437L223.848 168.721L223.233 168.546L223.034 167.623L223.456 165.792L222.452 166.644L221.62 166.089L221.775 164.678L220.805 164.717L219.809 165.287L218.948 166.055L217.608 165.741L217.899 164.808L216.823 164.907L216.133 166.294L215.971 164.845L216.026 163.801L215.969 162.288L215.65 160.918L214.934 161.313L214.297 162.429L214.244 163.464L214.424 164.655L214.438 166.174L214.799 167.759L214.656 169.352L214.663 170.625L215.278 170.555L214.897 171.751L214.549 172.681ZM162.908 144.889L164.494 144.699L164.699 145.973L165.789 145.618L166.459 144.425L167.054 143.475L167.93 143.335L168.996 143.804L170.108 144.465L171.017 143.213L169.745 142.803L169 141.846L168.025 141.158L166.6 140.513L165.376 139.639L164.896 138.42L163.894 139.607L163.697 140.709L163.612 142.214L164.013 143.694L162.908 144.889ZM172.361 132.944L173.068 134.061L174.202 133.571L174.72 132.786L174.616 131.725L173.913 131.058L172.775 131.349L172.361 132.944ZM159.529 124.787L160.367 125.752L161.033 126.925L161.878 127.851L163.346 128.52L164.637 128.342L166.503 128.443L167.388 128.083L168.933 128.836L169.62 128.263L170.216 126.874L170.956 127.762L172.772 128.585L172.849 130.256L173.752 129.172L174.794 130.177L176.228 130.62L176.92 131.719L177.578 132.623L177.144 133.616L176.675 134.853L176.034 135.902L177.349 136.848L176.501 137.983L175.045 138.369L173.299 138.349L173.296 139.212L172.7 139.585L172.541 140.694L173.42 141.598L175.141 141.186L175.838 140.348L177.116 140.223L178.421 140.524L179.595 140.635L180.734 140.957L181.069 141.989L182.315 142.487L183.34 142.615L184.654 142.611L185.272 143.078L186.592 143.298L187.838 143.308L189.103 143.05L188.686 142.068L187.468 141.59L186.112 140.963L184.933 140.461L184.08 139.641L185.633 139.767L186.997 140.166L188.562 140.474L189.981 139.899L189.545 138.235L188.265 137.592L187.644 136.456L186.583 135.972L185.009 135.431L184.951 135.378L183.897 134.486L183.505 132.819L185.707 133.327L186.845 134.487L188.429 134.745L188.208 133.448L189.205 132.544L188.971 131.504L188.912 129.883L187.803 129.471L186.469 129.145L185.068 128.811L183.765 128.233L182.284 128.815L180.634 128.308L180.166 127.154L181.204 126.32L179.769 125.773L179.737 124.678L178.558 123.801L177.062 123.465L175.326 122.52L174.175 122.241L172.83 122.434L172.496 121.271L172.017 120.581L170.948 121.062L169.985 120.809L169.15 120.761L168.383 121.744L167.45 121.94L166.753 122.814L166.849 121.568L166.161 120.572L166.261 119.456L165.805 118.935L164.9 119.286L163.916 120.237L163.09 121.372L163.103 122.584L163.094 123.613L163.446 124.572L162.563 123.877L162.442 122.865L162.327 121.879L162.605 120.828L163.006 120.097L164.083 119.293L163.025 119.373L161.847 119.517L161.116 120.196L160.299 121.265L159.902 122.316L159.555 123.362L159.529 124.787ZM155.183 117.068L155.981 117.501L157.037 117.847L157.157 116.576L156.746 115.75L155.98 115.756L155.183 117.068ZM156.172 112.256L155.992 113.105L156.574 114.097L157.742 113.884L158.372 114.447L158.526 115.409L158.236 116.419L158.274 117.607L159.658 118.05L160.959 118.081L162.154 118.068L163.408 117.904L164.108 117.011L165.232 117.425L166.415 116.796L166.666 115.761L166.514 114.857L165.271 114.503L164.286 114.672L163.118 114.614L161.88 115.339L160.556 115.192L159.646 114.609L159.975 114.136L159.311 113.713L159.035 113.073L157.964 113.125L157.229 112.508L156.172 112.256ZM160.098 101.941L160.231 103.045L160.949 103.721L162.138 103.583L162.98 103.168L164.185 102.958L165.399 102.429L164.707 103.233L163.483 103.828L163.004 104.4L162.017 104.158L161.665 105.441L162.388 105.731L162.44 106.748L162.789 107.563L162.071 107.936L161.254 109.362L162.377 109.807L161.023 110.17L161.025 111.119L161.616 111.453L160.927 111.805L160.121 112.573L160.099 113.537L161.194 113.645L162.833 113.636L163.54 113.135L164.397 113.213L165.032 112.699L165.498 113.392L166.664 112.564L167.246 111.463L166.172 110.711L166.935 109.765L166.594 109.048L167.748 108.58L167.905 107.363L167.613 106.274L167.799 105.063L168.822 104.241L169.128 103.02L169.32 102.065L169.836 101.005L170.301 99.7044L170.068 99.2065L170.383 98.4074L170.545 97.7312L170.291 97.3208L169.584 97.3295L168.85 97.0558L167.876 97.1634L166.94 97.1295L166.082 97.405L165.512 97.7923L164.734 97.8379L163.512 98.3915L162.986 99.2287L162.176 99.9022L161.586 100.417L161.592 100.877L160.716 100.967L160.098 101.941ZM152.09 106.858L152.119 107.339L152.835 107.834L152.201 108.47L152.447 109.05L153.399 109.451L154.102 109.507L154.315 110.508L155.041 110.146L155.966 110.056L156.709 109.992L157.037 109.294L156.905 108.719L155.938 107.893L155.659 108.858L155.254 109.776L154.742 109.637L154.712 108.818L154.93 107.896L154.418 107.115L153.664 107.05L153.198 106.578L152.544 106.496L152.09 106.858ZM150.731 112.972L150.881 113.99L150.796 114.804L151.154 115.838L152.242 115.424L152.529 116.799L154.032 116.875L154.577 115.668L154.648 114.667L154.814 113.768L154.038 113.049L153.017 112.916L152.453 113.542L152.148 114.528L151.772 113.598L151.353 112.928L150.731 112.972ZM139.891 110.846L139.886 111.906L140.56 112.046L141.144 112.522L142.177 111.987L142.915 111.369L143.409 112.064L144.631 111.348L144.856 110.483L145.71 110.092L145.385 109.351L144.579 109.82L143.8 109.477L142.985 109.659L142.037 110.018L140.963 110.617L139.891 110.846ZM141.964 114.368L142.645 114.904L143.101 115.456L144.018 114.981L144.264 115.9L143.279 116.155L143.347 116.747L144.057 117.136L144.858 117.039L145.757 116.549L146.686 116.233L147.969 116.585L148.838 116.519L149.287 115.495L149.797 114.585L149.106 114.115L148.439 113.241L148.529 112.096L147.859 112.511L147.111 113.181L147.5 113.637L147.098 114.228L147.19 115.076L146.049 114.663L146.061 113.778L145.889 113.101L145.278 112.307L144.561 111.979L143.792 112.633L142.812 113.532L141.964 114.368ZM133.112 119.628L133.441 120.96L133.13 122.512L134.382 122.326L135.312 122.439L136.582 121.525L137.695 120.11L139.06 119.654L140.273 119.288L141.554 118.872L140.96 117.82L140.835 116.664L139.716 116.282L139.01 115.336L137.793 115.535L136.546 115.467L136.092 116.913L135.198 117.994L134.089 118.87L133.112 119.628ZM300.646 290.165L301.052 289.251L302.036 287.827L302.414 286.908L303.379 285.451L303.618 284.619L303.692 283.916L303.898 283.083L304.514 282.096L304.568 281.371L304.779 280.37L305.097 279.263L304.98 278.643L304.996 277.893L304.864 277.263L305.005 276.371L305.132 275.207L306.002 273.881L306.718 272.537L307.415 270.926L307.809 269.712L308.333 268.357L308.736 267.534L309.555 266.157L309.927 265.045L310.576 263.638L310.934 262.528L311.269 261.263L311.591 259.988L311.583 258.712L311.336 257.987L310.902 257.28L310.457 256.545L309.86 255.959L308.817 256.65L307.984 257.66L307.084 258.349L306.395 258.325L305.425 258.722L304.702 258.707L303.987 258.655L302.953 258.896L301.914 259.132L300.849 259.341L299.915 260.156L299.043 261.271L298.092 262.077L297.035 262.433L296.068 263.226L294.989 263.569L293.972 264.213L293.085 265.44L291.992 266.623L292.107 265.48L291.428 265.125L290.92 264.61L289.982 265.683L289.484 265.324L288.036 266.05L286.925 266.489L285.566 266.749L284.35 267.608L283.706 268.4L283.352 270.249L282.747 270.321L282.916 269.308L282.937 267.842L281.624 268.389L280.591 269.259L279.472 269.825L278.679 270.878L278.955 271.943L278.918 273.39L278.062 272.522L276.883 273.796L276.811 272.613L276.918 271.467L277.668 270.25L278.222 269.175L278.874 267.643L278.648 266.113L277.345 266.783L276.603 265.748L275.5 264.922L275.157 263.799L273.762 263.515L272.88 263.481L271.569 263.515L270.424 263.411L269.152 263.589L268.108 263.828L267.304 264.084L266.074 264.418L264.878 264.883L263.735 265.524L262.642 266.337L261.486 266.967L260.084 267.506L259.357 267.173L259.292 267.149L258.337 267.06L256.955 266.997L256.044 267.649L255.962 266.703L255.295 266.068L253.892 265.96L252.492 265.861L250.895 265.841L249.207 267.02L249.232 265.622L248.491 264.766L246.986 265.053L245.869 265.175L245.128 265.699L244.026 265.176L243.005 264.826L244.89 263.579L243.492 264.199L241.873 264.903L240.461 265.503L239.522 266.907L238.406 267.772L236.922 268.151L235.783 268.222L235.2 267.85L234.184 268.243L233.193 268.812L231.749 269.347L230.326 270.058L229.719 269.494L229.222 268.669L228.04 268.493L226.736 268.756L225.681 269.116L224.826 267.799L223.957 268.692L224.623 269.471L223.747 270.353L222.789 271.066L221.822 271.754L222.184 273.023L223.397 273.991L223.745 275.222L222.342 276.06L221.89 275.232L221.054 274.728L221.393 273.461L221.828 272.554L221.142 271.78L220.199 270.894L221.362 270.125L221.737 269.029L221.178 268.611L220.262 268.683L219.583 269.491L219.157 270.432L218.188 271.103L217.497 271.898L216.373 272.814L214.607 273.124L214.16 274.022L213.061 274.135L212.079 274.791L211.625 275.678L211.702 276.809L211.989 277.88L210.944 278.333L210.531 279.388L209.463 280.6L209.877 282.176L208.505 281.394L207.459 280.879L206.416 280.381L205.138 279.928L203.989 279.978L202.834 279.867L201.526 280.145L201.051 280.987L199.831 281.612L198.603 282.212L197.141 282.862L196.143 282.493L195.038 282.689L194.4 281.861L193.168 281.513L191.895 280.981L191.029 280.179L190.166 279.387L189.534 278.531L189.74 277.543L189.489 276.435L189.634 275.072L189.383 273.95L189.087 272.642L189.523 271.589L189.136 269.875L188.612 269.554L187.477 269.352L187.422 269.324L186.19 268.549L185.07 268.518L184.183 268.431L182.943 268.813L181.617 268.771L180.412 269.32L179.167 269.654L177.603 269.449L176.203 270.181L175.039 269.701L173.888 269.404L175.021 268.522L175.367 266.893L175.146 265.717L174.985 263.731L175.798 264.638L176.213 263.387L176.184 261.98L176.165 260.761L176.145 259.537L176.35 258.279L177.212 257.143L177.03 256.143L176.333 255.801L175.094 255.934L174.017 255.847L172.813 256.16L171.64 256.692L170.431 256.989L169.225 257.28L168.471 257.753L168.474 259.182L168.438 260.212L168.139 261.039L168.306 262.047L167.544 262.51L166.809 263.158L167.11 263.743L165.71 264.203L165.648 263.822L164.132 263.677L162.77 264.331L161.345 264.595L159.924 265.012L159.096 265.027L158.156 264.253L156.853 263.86L155.558 263.48L154.581 262.467L153.834 261.45L153.07 260.236L152.166 259.424L151.464 258.61L150.934 257.576L151.262 256.774L149.959 255.911L149.423 254.671L149.733 253.666L149.613 252.427L149.496 251.18L149.382 249.931L149.677 248.686L149.943 247.435L150.445 246.387L150.167 245.318L150.062 244.048L149.564 242.761L149.679 241.487L150.377 240.653L151.466 239.824L152.549 238.955L153.687 238.749L154.39 238.1L155.114 237.445L154.45 236.367L155.168 235.943L155.263 237.004L156.35 236.337L157.293 236.112L158.605 235.864L159.795 236.237L160.974 236.419L161.869 235.728L163.12 236.517L163.405 237.358L164.596 237.518L165.911 237.198L166.648 236.725L167.441 236.869L168.112 237.466L168.446 236.993L167.169 236.241L167.11 235.8L167.633 235.339L167.731 234.676L166.762 234.754L165.837 235.084L165.027 234.931L165.037 234.882L165.475 233.752L166.706 234.313L167.768 233.572L168.73 233.485L169.91 233.585L170.391 232.883L170.91 233.725L172.061 233.601L173.175 233.239L174.29 232.895L175.158 233.448L176.384 233.739L176.956 234.744L178.079 234.38L178.913 233.594L180.028 233.219L181.155 233.916L182.417 235.25L183.04 235.381L183.664 236.598L183.687 237.677L183.855 238.541L184.59 238.181L184.467 239.51L184.83 240.341L185.781 241.039L186.596 241.992L187.456 243.14L188.64 243.782L189.275 244.751L190.214 244.341L190.726 243.823L191.047 242.454L190.929 240.934L190.606 239.475L189.689 238.129L188.777 236.75L188.593 235.914L187.529 234.794L186.884 233.588L186.042 232.416L185.568 231.17L185.123 229.915L185.426 228.517L185.722 227.123L186.619 225.816L187.602 224.947L188.528 223.862L189.07 222.85L189.422 221.851L190.372 220.958L191.246 220.544L191.959 219.476L192.639 218.386L193.865 217.867L194.243 217.083L193.166 217.35L194.027 216.228L194.733 216.049L194.933 215.306L194.702 214.429L193.809 214.654L192.74 214.919L193.533 214.282L194.173 213.87L194.765 213.969L194.316 212.919L193.735 212.152L192.626 211.492L192.41 210.631L192.321 209.489L190.882 208.926L191.968 208.883L191.589 208.058L191.096 206.793L191.209 205.845L191.949 205.186L191.82 206.138L192.049 207.026L191.992 208.18L192.949 208.412L192.955 209.108L193.639 208.929L193.531 209.875L193.512 211.269L193.98 210.926L193.996 209.535L194.392 208.262L194.732 207.475L193.471 206.19L192.804 204.968L193.59 205.236L194.327 205.961L195.112 204.824L195.415 203.342L195.404 202.003L195.392 201.942L194.614 201.684L195.026 200.643L195.83 199.709L196.682 198.977L197.658 198.688L198.632 198.391L199.468 197.647L199.533 196.691L200.217 197.185L200.872 196.49L201.012 196.928L202.158 196.065L201.877 195.214L202.09 195.856L201.132 196.177L200.454 195.2L199.693 194.99L199.959 194.196L199.599 193.596L199.79 192.568L200.126 191.511L199.981 191.074L200.773 190.351L201.693 189.549L201.942 188.253L202.55 188.528L203.453 187.713L204.209 186.976L204.871 186.004L204.545 185.142L205.877 184.631L206.905 183.759L207.871 182.374L208.064 183.294L209.14 182.586L208.318 183.922L207.758 184.615L207.046 185.891L207 187.106L207.719 188.048L208.873 188.322L209.447 187.124L209.996 185.901L210.243 184.831L211.124 184.46L212.033 183.33L213.495 181.939L214.731 180.866L214.644 179.918L215.432 179.038L216.033 177.756L214.531 177.485L214.076 176.197L213.467 175.976L213.408 177.262L213.037 178.66L213.513 179.693L212.574 179.882L211.759 180.724L210.522 181.029L208.88 180.754L207.706 180.744L206.605 179.728L205.869 178.329L205.722 177.156L204.48 178.154L202.867 177.329L204.544 176.672L205.203 175.908L205.896 174.886L205.549 174.061L204.746 173.661L203.477 173.685L202.328 174.373L201.182 175.077L200.312 176.129L199.494 176.89L198.597 177.931L197.919 179.143L197.561 180.44L197.144 181.551L196.696 182.644L195.659 183.463L196.112 182.352L196.406 181.31L196.852 180.223L197.118 179.156L197.468 177.865L198.138 176.655L198.873 175.21L199.984 174.804L199.841 173.644L200.199 172.553L201.238 171.655L202.17 171.288L203.239 170.857L204.346 170.163L205.309 169.988L205.348 169.971L206.276 169.569L207.313 169.11L208.29 169.174L209.353 168.414L210.776 167.739L211.135 166.567L211.368 165.46L211.556 164.338L212.482 163.105L213.84 162.149L214.352 160.859L214.728 159.886L213.356 158.577L213.022 157.464L211.416 156.805L210.381 157.358L209.726 156.454L208.229 156.959L208.939 155.593L207.931 155.356L206.57 155.807L205.691 155.225L204.115 155.756L203.365 154.863L201.936 154.794L200.977 154.265L200.386 153.071L200.553 152.028L199.597 151.732L199.195 150.923L198.159 150.432L196.938 149.52L195.832 148.56L194.538 147.682L193.365 146.748L192.585 146.13L192.319 147.178L192.063 147.985L192.828 148.612L192.734 149.844L192.014 150.833L191.912 151.805L190.826 152.914L189.386 151.808L188.546 151.879L187.506 151.069L187.211 150.253L186.866 148.985L186.174 148.058L186.015 146.952L185.011 147.072L184.071 147.379L182.931 147.055L182.976 146.139L181.856 145.807L180.778 145.209L179.684 144.852L178.392 145.668L177.575 145.887L176.348 145.745L175.079 145.837L174.409 146.659L174.641 147.726L175.507 148.191L175.421 149.307L175.233 150.474L176.024 150.963L176.52 152.19L176.767 153.263L176.327 154.474L175.486 154.908L175.54 155.784L176.533 156.454L177.437 156.709L178.242 158.093L178.739 159.117L179.456 160.53L179.871 162.263L179.388 163.531L178.506 164.861L177.559 166.001L176.545 166.906L177.269 167.873L177.89 168.891L178.35 170.386L178.629 171.699L179.572 172.871L178.909 174.396L177.722 175.582L178.025 176.427L176.739 175.777L175.986 174.772L175.011 174.052L174.131 173.062L172.884 172.136L172.924 170.764L172.751 169.68L172.21 168.669L172.181 168.635L172.254 166.581L170.888 166.138L169.37 166.378L167.846 166.596L166.213 165.682L164.927 165.407L163.887 165.066L162.946 164.035L161.542 163.28L160.065 162.948L158.591 162.168L157.521 162.681L156.687 163.148L156.682 162.269L156.198 161.169L156.199 160.079L155.645 158.533L154.727 158.348L153.804 158.578L153.392 157.5L153.444 156.175L153.618 154.613L153.986 153.525L154.353 152.414L155.036 151.083L155.695 149.962L156.537 149.51L156.563 148.206L157.685 147.706L158.899 147.192L158.783 145.898L159.555 144.34L161.306 144.196L162.117 142.821L162.897 141.446L162.822 140.169L163.799 138.334L162.94 137.592L164.253 137.226L164.754 137.797L166.222 137.996L167.251 136.775L168.413 135.496L168.447 134.004L167.098 133.611L166.934 132.371L167.91 131.562L167.682 130.036L166.299 129.955L166.037 129.144L164.767 128.941L163.622 129.104L163.709 130.341L163.898 131.773L164.009 133.218L162.991 134.21L163.054 135.237L162.307 135.758L161.308 134.389L161.436 133.116L161.403 132.062L160.493 130.895L159.549 132.654L158.839 131.452L158.241 130.437L157.256 129.864L158.291 128.764L157.812 127.55L157.199 126.765L156.561 125.751L156.103 124.531L156.714 123.707L156.383 122.91L157.144 122.476L158.055 122.435L158.562 121.391L159.101 120.365L159.493 119.736L158.774 119.328L157.343 119.033L155.856 119.472L155.432 120.49L155.564 121.486L155.619 122.705L155.51 123.732L155.383 124.96L154.628 125.583L154.119 126.89L153.517 128.254L154.31 129.728L155.751 130.738L155.042 131.805L155.341 133.058L154.341 134.334L154.011 134.387L153.568 135.603L152.656 134.781L152.737 133.418L152.733 133.363L154.118 132.441L153.486 130.978L152.276 129.702L151.494 130.934L150.439 131.718L151.765 132.837L151.006 133.646L150.711 135.112L149.441 135.281L147.807 134.733L146.752 133.918L145.448 132.952L144.802 131.452L143.57 131.66L142.246 131.884L141.308 132.583L142.189 133.391L141.556 134.388L140.68 133.782L139.968 132.978L138.614 133.142L137.183 133.232L136.296 132.57L135.271 132.289L135.839 131.526L136.84 131.447L136.756 130.29L135.904 129.37L134.709 128.912L133.895 128.032L133.088 127.046L132.724 125.891L131.485 125.387L130.495 126.28L129.953 125.892L130.696 124.545L129.226 125.553L128.852 124.903L129.237 123.606L129.092 122.036L127.876 123.13L126.998 123.162L127.388 122.09L126.092 122.161L124.685 122.258L123.73 122.56L123.539 121.779L122.793 121.509L121.766 121.86L120.985 122.693L120.618 121.558L120.607 120.436L120.425 119.354L119.69 118.552L119.656 117.734L119.632 116.764L119.063 116.179L118.396 115.779L118.34 114.813L117.761 114.119L117.657 112.886L117.155 112.157L116.717 111.52L117.198 110.328L116.59 109.325L117.003 108.64L117.002 107.505L115.63 107.493L115.167 106.731L113.894 106.484L113.428 105.908L112.264 105.8L111.133 106.234L110.191 106.414L109.575 105.751L109.17 105.087L108.007 105.62L107.38 106.72L106.926 108.012L105.924 109.063L105.405 110.264L104.698 111.403L103.851 111.603L103.474 110.429L104.378 109.771L104.198 109.154L103.434 108.699L102.695 108.219L101.608 108.008L101.347 108.671L101.31 109.512L100.529 109.699L99.8739 110.426L99.7918 111.79L100.248 112.667L100.152 113.691L100.886 113.901L101.447 114.32L101.485 114.365L100.545 114.802L99.8075 115.845L98.6849 116.43L98.1544 115.546L97.0673 115.57L97.3585 114.43L96.6532 114.176L95.9206 114.53L94.7211 114.694L93.2181 115.241L92.5207 116.535L91.5738 117.589L90.7093 118.901L90.0194 120.003L90.2611 120.771L91.3325 120.872L90.3373 122.269L89.6017 122.578L88.8913 123.587L89.4259 123.846L89.9449 125.158L89.2407 126.631L89.9754 126.285L90.1004 127.038L90.5015 127.423L89.3653 128.378L88.1801 129.27L87.2706 129.233L86.2027 129.329L85.2081 129.008L84.0488 129.305L83.5474 128.513L82.7542 128.016L81.7729 128.116L80.9855 127.486L79.9047 127.116L79.4926 127.722L80.4545 128.309L81.3434 128.64L81.9445 129.216L82.6219 129.382L83.2688 130.041L84.1039 130.526L84.7696 131.054L85.6904 130.626L86.4885 130.905L87.5601 131.26L88.5748 130.966L89.7838 131.058L90.8771 131.257L91.7445 131.087L92.7865 130.74L92.6956 129.793L93.4628 129.384L94.3139 129.558L95.3863 129.275L96.4573 128.549L97.407 128.381L98.5643 128.549L98.978 129.13L98.0836 129.37L97.2668 128.969L96.1351 129.991L94.9312 130.526L94.8936 131.264L94.0095 131.474L94.7169 132.157L95.7524 132.141L96.7651 132.023L97.2629 132.681L98.471 132.096L99.4304 130.835L99.6254 131.799L100.141 132.425L100.125 133.429L100.207 134.844L100.466 136.099L101.175 136.836L101.906 137.558L102.183 138.745L102.694 139.504L103.556 139.363L102.889 140.569L103.163 141.694L103.138 143.137L103.206 144.335L103.489 145.408L103.044 146.766L103.047 148.18L102.642 149.553L102.228 151.179L103.158 149.655L103.762 148.132L104.482 146.986L104.355 145.786L104.806 146.122L105.578 145.278L105.285 146.401L105.265 146.452L104.716 147.155L104.232 148.469L103.637 149.438L104.467 149.193L105.175 148.596L105.03 149.575L104.984 150.618L104.395 149.7L103.448 150.13L102.91 151.396L103.512 151.551L102.954 152.505L102.743 153.47L102.754 154.29L103.027 155.275L102.939 156.532L103.692 155.155L103.936 153.453L104.072 152.187L104.349 152.918L104.862 153.246L104.347 153.971L104.143 155.183L104.161 156.25L104.473 157.228L105.416 157.255L104.422 158.236L104.393 159.003L103.438 159.218L103.299 160.707L103.664 161.699L103.646 163.521L104.253 164.624L103.994 166.018L104.146 167.107L103.79 167.922L104.368 169.254L105.16 170.136L105.88 171.236L106.306 172.451L106.78 173.648L107.328 174.632L108.354 174.343L107.898 175.613L108.259 176.501L108.353 177.765L107.99 178.079L108.099 179.347L107.318 180.478L107.347 179.995L106.599 180.173L107.56 179.355L106.936 178.36L106.01 177.957L105.07 176.794L104.728 177.374L104.737 178.117L104.708 179.341L104.621 180.77L104.447 181.658L104.273 182.577L105.234 183.463L104.138 182.984L103.85 183.848L103.644 184.952L103.046 185.908L102.641 187.183L102.123 188.402L101.41 189.76L100.573 191.087L100.313 192.413L100.45 193.43L100.352 194.821L99.8639 196.037L99.1165 197.128L98.9428 197.762L99.294 198.636L99.4762 199.654L99.2514 200.519L99.1136 201.623L99.4593 202.728L99.9845 203.659L99.6522 204.444L100.444 205.001L100.589 204.364L101.092 204.822L100.728 205.119L100.909 206.368L100.343 205.435L100.234 206.563L100.474 207.579L101.059 207.82L100.83 208.889L100.541 209.464L101.239 210.655L101.63 211.961L102.276 213.578L102.075 214.795L102.048 214.851L103.333 215.767L104.324 216.582L105.174 217.345L105.786 217.551L105.828 218.453L106.445 218.664L107.265 219.818L107.594 221.045L107.752 222.427L108.228 223.904L108.435 225.079L108.826 226.067L108.758 226.705L109.342 227.533L109.234 228.602L109.713 228.953L109.739 230.468L110.705 231.192L111.635 232.537L112.272 233.565L112.896 234.577L112.828 235.64L111.917 236.034L110.735 235.505L111.715 236.616L112.018 237.543L112.683 238.151L113.536 239.007L114.4 239.228L115.09 240.233L116.135 241.113L116.635 242.49L116.603 243.738L116.043 244.453L117.469 245.405L118.377 246.432L119.3 247.667L120.407 248.712L121.161 250.514L122.446 249.536L121.696 248.359L120.758 246.934L119.854 246.746L119.309 245.591L119.665 245.264L118.95 244.267L118.964 243.441L118.271 242.036L117.94 240.7L116.909 239.2L116.262 237.778L115.417 236.734L115.127 235.382L114.502 234.144L113.701 232.858L113.103 231.64L112.297 230.775L111.862 229.775L112.133 228.78L111.893 227.615L111.837 226.495L112.079 225.693L113.171 226.649L113.874 226.623L114.481 227.436L115.294 228.059L115.207 229.137L115.625 230.544L115.73 231.428L116.341 232.662L116.787 234.057L117.772 235.57L118.775 237.073L120.024 237.548L119.984 238.814L121.209 240.132L121.737 241.071L122.281 241.179L122.818 242.138L122.434 242.897L122.429 243.522L123.354 244.323L124.841 245.216L125.593 246.792L126.55 247.797L127.493 248.769L128.485 250.158L129.266 251.084L130.269 252.261L131.07 253.177L131.544 254.876L132.349 255.587L132.393 256.393L131.669 257.116L132.104 257.777L131.342 258.275L132.222 259.586L133.248 260.877L133.278 260.912L134.731 261.679L135.997 262.607L136.879 263.691L138.552 264.45L139.98 264.767L140.589 264.817L141.694 265.682L143.227 266.78L144.504 267.262L145.782 267.714L147.092 268.367L148.363 268.637L149.685 269.268L151.014 269.893L152.499 270.119L154.039 270.537L155.555 270.928L156.932 270.35L158.108 269.76L159.374 269.746L160.471 269.94L161.595 270.29L162.732 270.839L163.465 271.397L164.705 272.327L165.913 273.043L166.897 273.778L168.284 274.283L169.64 274.571L170.929 274.487L172.331 274.961L173.084 275.478L174.174 275.395L175.583 275.844L176.646 275.745L178.179 275.596L178.477 274.987L179.556 275.842L178.672 275.934L179.748 276.78L180.765 277.421L182.061 278.226L183.289 278.828L184.55 279.417L184.755 280.334L184.751 281.28L185.368 282.114L186.305 282.188L186.808 282.478L187.537 281.64L188.359 282.261L190.054 282.765L191.088 283.337L191.129 284.434L192.488 284.395L193.275 284.816L193.855 284.367L195.215 284.311L196.618 284.437L197.449 285.011L198.767 284.765L199.279 285.934L200.344 285.553L201.531 284.77L200.252 284.299L199.863 283.625L200.882 283.071L201.615 282.365L202.049 281.336L202.913 281.153L204.144 281.447L205.026 282.191L205.892 281.997L205.412 282.839L206.38 283.904L207.708 284.525L208.8 285.19L208.811 286.079L209.376 287.392L209.642 288.401L210.144 289.347L209.958 290.445L211 290.893L210.345 291.923L209.984 293.209L208.454 293.556L207.808 294.723L208.262 295.474L207.189 295.871L207.852 296.575L206.653 297.329L205.042 298.317L205.169 299.527L205.162 299.609L204.21 300.443L204.455 301.358L203.425 301.883L204.206 303.012L204.45 303.904L204.075 304.277L205.062 304.401L206.392 305.066L206.388 304.139L207.477 303.917L207.208 304.585L207.002 305.554L206.207 306.025L205.04 306.851L203.918 307.822L204.118 308.537L204.778 309.296L205.918 309.958L205.174 310.672L206.188 310.91L207.63 311.062L208.653 311.42L209.713 311.919L210.423 312.745L211.888 313L212.977 313.589L213.641 314.261L214.301 314.921L214.934 315.578L216.512 316.254L217.159 316.88L218.215 317.398L218.791 317.776L219.773 318.033L220.406 318.624L221.509 319.331L221.49 320.055L222.745 320.451L223.702 320.665L224.654 320.875L226.49 320.962L227.775 320.713L229.165 320.892L230.94 320.818L231.79 320.686L233.129 320.72L234.438 320.646L235.37 320.902L236.245 320.826L237.58 320.934L237.704 321.53L238.035 322.141L238.596 322.769L238.49 323.404L238.592 323.954L238.912 324.42L238.793 325.022L238.7 325.602L238.198 326.31L238.285 326.807L238.374 327.294L238.266 327.832L238.532 328.237L238.599 328.621L238.066 329.108L238.542 329.486L237.85 330.31L237.914 330.721L237.402 331.306L237.283 331.754L236.776 332.309L237.194 332.437L237.443 332.859L236.729 333.266L236.58 333.669L236.832 333.985L237.047 334.249L237.071 334.456L237.467 334.534L236.77 335.156L236.991 335.371L236.472 335.713L236.304 336.03L235.794 336.438L235.121 336.88L234.784 337.209L234.473 337.514L233.959 337.738L233.984 337.931L233.111 338.182L232.791 338.489L233.323 338.483L233.339 338.609L233.535 338.684L233.704 338.774L232.871 339.143L232.884 339.275L232.722 339.35L232.573 339.449L232.589 339.501L232.735 339.481L233.068 339.442L233.861 339.226L234.199 339.072L235.165 338.813L234.672 339.013L235.147 338.894L234.662 339.06L234.635 339.144L234.141 339.327L234.446 339.262L233.788 339.476L234.092 339.395L233.297 339.633L234.558 339.365L236.261 338.839L237.893 338.31L239.295 337.865L240.583 337.427L241.801 336.986L243.234 336.487L244.373 336.09L245.939 335.485L246.798 335.163L247.672 334.814L248.272 334.561L248.348 334.435L248.498 334.368L248.45 334.372L249 334.134L250.314 333.569L249.141 334.037L250.152 333.591L250.656 333.413L251.566 333.03L251.807 332.902L251.648 332.918L250.2 333.555L249.347 333.874L249.492 333.73L249.296 333.725L249.999 333.391L250.878 333.079L251.766 332.733L253.307 332.071L254.626 331.447L254.883 331.273L254.644 331.328L255.263 330.94L255.681 330.676L255.156 330.825L255.423 330.591L255.83 330.477L257.248 329.831L258.686 329.137L259.653 328.648L260.932 328.007L262.221 327.318L263.209 326.769L264.395 326.085L264.857 325.717L265.795 325.085L266.602 324.485L266.637 324.281L265.873 324.653L265.544 324.655L266.191 324.101L265.665 324.229L264.159 324.85L263.92 324.805L264.346 324.42L265.203 324.195L266.484 323.526L267.058 323.341L268.116 322.85L269.245 322.191L270.485 321.537L271.453 320.952L272.482 320.238L273.397 319.55L273.678 319.216L274.738 318.417L275.718 317.566L276.202 316.994L277.114 316.247L278.175 315.385L279.236 314.517L280.037 313.692L280.854 312.845L281.327 312.198L282.14 311.317L283.079 310.332L283.978 309.487L284.504 309.001L284.98 308.286L285.288 307.675L285.285 307.263L285.471 306.558L285.603 306.021L286.491 305.037L287.397 304.012L288.447 302.866L289.342 301.822L290.327 300.943L291.491 299.75L292.07 299.481L292.972 298.295L293.894 297.587L293.657 297.43L294.911 296.375L295.803 295.752L296.713 295.029L297.629 294.2L298.523 293.468L298.63 292.938L299.575 291.879L300.52 290.812L300.646 290.165ZM149.649 121.838L149.921 122.584L149.958 123.532L150.807 123.598L151.395 124.679L151.929 125.947L153.029 125.141L154.239 124.767L154.561 123.321L154.415 121.95L153.412 121.463L154.335 120.367L154.04 119.148L153.179 119.628L152.259 119.386L151.397 119.744L151.092 120.53L151.528 121.72L150.422 121.542L149.649 121.838ZM136.647 122.429L137.259 123.263L136.619 123.978L137.031 124.875L138.202 125.448L139.33 125.679L140.096 126.613L138.787 126.946L137.601 126.618L136.57 126.447L136.141 127.999L136.888 128.897L138.065 129.219L137.979 130.992L139.272 131.11L140.823 131.179L142.418 130.824L143.731 130.598L144.916 129.923L145.499 130.902L146.455 131.736L147.674 131.527L148.815 130.859L148.553 129.899L149.638 129.78L150.005 128.619L148.662 128.062L147.615 127.275L147.027 126.244L147.546 124.84L147.45 123.469L147.487 122.442L148.432 121.384L149.046 120.537L148.647 119.789L147.513 119.708L146.525 120.814L145.697 121.94L144.833 120.942L143.805 121.118L143.261 120.405L141.967 121.027L142.279 119.592L141.5 119.385L140.569 119.855L139.506 120.04L138.536 120.4L138.194 121.048L137.295 121.474L136.647 122.429ZM101.232 157.026L100.554 158.478L100.776 159.427L100.424 160.796L100.388 162.08L100.831 163.68L101.056 162.241L100.796 161.289L101.378 160.609L101.638 159.183L102.627 158.217L101.913 157.763L101.232 157.026ZM102.53 168.771L102.721 170.396L103.32 171.465L103.924 172.524L103.567 173.094L104.167 173.901L104.485 174.801L105.159 175.123L104.925 175.75L105.724 176.856L106.374 177.65L107.227 177.525L106.908 176.15L106.258 174.652L105.878 173.235L105.71 171.661L104.903 170.761L103.891 169.766L103.212 168.65L102.53 168.771ZM207.985 103.897L207.401 103.579L207.3 102.594L206.015 102.129L206.053 101.332L206.943 101.577L208.048 101.923L208.811 101.533L209.121 100.65L207.939 100.035L206.918 99.5675L205.613 99.6052L204.379 99.8592L203.24 99.9969L204.196 99.5145L205.221 98.9868L204.483 98.4709L203.178 98.0741L202.511 98.4881L202.318 97.8165L202.101 97.314L202.385 96.5825L201.497 96.2194L200.709 96.6701L200.778 95.2409L199.85 94.6305L199.496 95.2673L198.365 94.4355L197.121 93.9775L195.725 93.7912L195.077 94.3806L194.19 93.9893L193.857 93.2828L194.748 92.5921L193.975 92.207L192.568 92.0684L191.53 92.1252L190.393 91.5082L189.302 91.2984L188.755 90.6904L187.827 90.2333L186.879 89.5966L185.951 88.8461L185.319 88.1613L184.174 87.0398L183.057 87.3207L182.35 88.1428L182.91 88.8475L182.454 89.1546L182.895 89.7053L183.171 90.4139L183.101 91.2469L182.25 90.5028L181.921 89.8138L181.618 89.4923L180.878 89.361L180.663 89.9288L181.338 90.1683L181.195 90.6816L180.272 90.3234L179.398 91.4663L179.305 90.8855L179.872 90.25L180.21 89.3002L179.922 88.5632L178.994 88.7582L178.329 89.1981L177.558 89.1561L176.472 89.4197L175.71 90.2389L174.74 91.0364L174.502 91.9859L173.913 93.129L173.954 94.1395L174.441 94.9271L173.464 95.4507L173.984 96.3643L172.498 96.4012L171.299 97.6627L170.788 98.7039L171.433 99.2086L171.554 99.8592L170.771 100.078L170.559 100.79L170.232 101.845L170.254 102.906L171.409 102.457L171.969 103.026L171.995 104.353L170.728 105.262L170.132 106.109L169.245 106.794L169.176 107.785L169.24 107.83L170.104 108.214L170.792 107.876L171.246 108.541L172.318 108.729L171.514 109.252L171.022 109.967L171.736 110.268L172.788 110.398L172.527 111.028L173.351 111.354L174.721 111.372L175.269 110.633L176.363 110.073L177.391 109.622L178.791 109.87L179.962 109.688L180.424 110.382L181.391 110.819L182.651 111.422L183.345 112.411L184.471 112.95L185.17 113.703L185.785 115.003L186.717 115.63L187.116 116.784L187.853 117.106L188.765 116.591L188.748 115.655L190.047 116.55L191.153 116.362L192.189 117.188L190.554 117.314L189.457 117.874L190.063 119.191L190.713 120.485L192.186 120.705L193.111 119.652L193.108 118.32L194.434 119.24L195.439 120.846L194.161 121.641L194.166 122.847L194.764 124.232L195.562 125.474L196.535 126.384L197.289 127.43L199.041 127.878L200.331 128.844L201.249 130.076L202.406 130.362L203.148 131.19L205.242 132.175L206.02 132.698L207.543 133.524L208.868 134.222L210.871 134.739L212.361 133.942L213.583 133.61L214.881 134L216.739 133.714L217.095 132.85L216.599 131.541L215.761 130.505L215.077 129.351L214.606 128.017L212.987 127.049L213.178 125.755L212.872 124.277L212.122 123.181L211.225 122.214L209.474 121.399L210.437 120.874L209.878 119.899L210.428 118.798L211.533 117.761L211.801 116.279L211.742 115.096L211.576 113.97L211.025 112.978L210.39 112.041L209.983 110.839L209.931 109.904L210.687 109.014L210.806 107.82L211.096 106.762L211.147 105.586L211.043 104.593L210.702 103.5L210.385 102.386L209.874 101.56L209.135 102.26L207.968 102.794L207.985 103.897ZM219.882 108.625L220.464 108.144L220.51 107.286L221.223 106.964L221.65 107.997L221.81 109.374L222.558 108.229L224.044 108.41L224.639 109.588L225.548 108.12L226.64 107.587L227.625 106.713L227.311 105.382L227.512 104.5L227.054 103.326L226.945 101.927L225.993 100.703L224.536 100.108L223.558 100.66L222.076 100.122L221.949 100.929L221.114 101.116L221.71 101.928L221.835 102.708L221.142 103.044L220.94 103.93L221.365 104.553L220.498 104.708L221.672 105.374L221.545 106.439L220.116 105.777L218.97 105.94L218.393 106.397L218.99 106.716L218.651 107.227L219.412 107.738L219.882 108.625ZM136.108 70.1252L134.832 70.1693L134.111 70.6155L133.77 71.2488L133.354 71.9937L132.668 72.2683L132.591 72.9083L132.789 73.511L133.259 73.629L133.977 73.2878L134.294 72.9727L135.448 72.6547L135.141 71.9994L136.772 71.4718L137.045 70.7207L136.108 70.1252ZM159.471 63.4632L158.594 64.0192L157.418 64.2892L156.494 64.7719L156.689 65.4971L157.354 65.8564L158.213 66.0422L158.699 65.6634L158.948 64.9544L159.256 64.1257L159.471 63.4632ZM163.515 66.2219L163.293 65.5941L162.353 65.4298L161.978 64.821L160.923 64.7283L160.1 64.6097L159.335 64.8779L159.566 65.485L159.31 66.196L159.795 66.6221L160.575 66.7522L160.854 67.2335L160.649 67.6683L161.117 67.9992L161.466 68.3535L162.484 67.6825L162.759 66.9715L163.515 66.2219ZM195.815 59.2581L195.841 58.4597L195.801 57.7884L195.071 57.1389L194.118 56.5536L193.306 56.5092L193.677 57.2549L193.343 57.8778L192.637 58.4871L191.716 59.0098L190.621 59.3119L189.412 59.5593L188.209 59.8411L187.019 60.1423L185.674 60.3847L184.481 60.7227L183.118 60.8526L181.717 61.0201L180.54 60.9652L179.206 61.0512L177.988 61.1925L177.236 61.878L177.748 62.2836L179.017 62.1648L179.916 61.8241L181.247 61.9145L182.322 62.2686L183.862 62.2087L184.99 62.0016L185.764 61.8398L187.134 61.9425L187.706 61.5452L189.181 61.0777L190.547 60.8968L190.849 60.3857L191.93 60.4213L193.289 60.1118L193.765 59.6768L194.882 59.7662L195.815 59.2581ZM258.373 111.936L259.459 112.161L260.244 111.865L260.377 110.744L260.252 109.616L259.724 108.306L259.803 107.077L258.875 106.417L257.919 105.738L256.692 105.275L255.635 105.007L255.023 103.868L253.761 103.529L252.867 103.552L252.461 104.212L252.04 104.971L252.211 106.01L253.061 106.958L253.639 106.582L254.129 107.25L253.925 107.92L253.677 108.696L254.37 109.383L254.965 109.002L255.367 109.893L256.345 109.703L256.531 109.11L257.526 110.313L258.604 111.231L258.373 111.936ZM45.3773 206.533L45.2622 207.215L45.04 207.297L45.027 208.449L44.8969 208.94L45.0756 209.692L45.2597 209.485L45.5038 209.551L45.789 209.908L46.0352 209.833L45.897 209.147L45.892 208.47L45.7293 207.814L45.5444 207.19L45.3773 206.533ZM98.1754 65.4238L97.4288 65.9926L96.999 66.3563L96.6009 66.811L96.4331 67.0956L96.4097 67.2782L96.6706 67.3078L96.4587 67.681L96.3568 68.0246L96.0687 68.5539L96.4298 68.5338L96.699 68.5612L97.366 68.3508L98.0394 68.0981L98.5352 68.0243L98.75 68.1518L98.8713 68.3678L99.008 68.5259L99.5962 68.2053L100.109 68.0951L100.361 68.2401L101.312 67.6055L102.17 67.0636L102.575 66.9374L103.52 66.2638L104.263 65.631L104.308 65.158L105.163 64.3148L105.159 64.5872L105.659 64.5299L106.239 63.9947L106.223 63.6642L106.711 63.6145L107.189 63.5771L107.957 62.9016L108.933 62.292L109.313 62.208L108.737 62.8594L108.481 63.4249L108.152 64.0014L107.94 64.5781L107.962 65.0648L107.881 65.4885L107.636 66.0607L107.394 66.5591L107.521 66.8283L107.588 67.1805L107.301 67.7498L107.464 68.0182L107.213 68.5824L106.437 69.4461L105.564 70.3223L104.78 71.1244L104.243 71.449L104.147 71.9313L103.118 72.7857L102.641 73.4512L101.983 74.0657L102.19 74.114L102.531 74.1356L102.277 74.5701L101.488 75.2203L100.856 75.8462L100.621 76.2889L99.9511 76.672L99.9721 76.1914L99.3681 76.5022L98.8695 77.138L98.4907 77.9534L98.4898 78.2884L97.8645 78.9575L97.2278 80.041L97.8931 79.6231L98.4762 78.9646L99.1281 79.1019L99.5431 79.4206L99.6608 79.9945L100.066 80.3743L100.467 80.7592L100.212 81.596L99.8634 82.3856L99.2033 83.0596L99.0737 83.7403L98.2315 83.55L97.5571 83.7853L96.7877 84.1862L96.9916 84.7959L97.2863 85.2546L97.6435 85.6242L97.5053 86.19L98.3068 85.9752L98.9881 86.0545L98.8241 87.0114L98.3466 87.4063L98.1309 86.9397L98.056 86.9657L97.2113 87.0689L96.1507 87.2447L95.6029 87.2064L95.6866 86.5062L95.5772 85.9301L95.1059 85.7894L94.6827 85.3741L94.3642 84.7773L93.8274 84.5959L93.4805 84.1461L93.188 83.6102L93.2223 82.9815L93.656 82.3048L92.9733 82.6412L92.4696 82.5143L92.637 81.909L91.9697 81.8983L91.3128 81.8936L90.4175 82.1107L89.6737 82.4228L88.7353 82.8866L87.9598 83.2979L86.8896 83.8421L85.9107 84.2895L84.746 85.0536L83.907 85.4812L83.261 85.7672L82.626 86.1991L82.6242 86.7512L82.8395 87.15L83.3923 87.3226L84.2104 87.1034L84.3568 87.548L83.8556 88.4101L84.5943 88.0131L85.3685 87.7651L85.6243 88.0948L85.4343 88.8197L84.9948 89.4389L85.1868 89.7179L86.1551 88.9613L87.0796 88.5145L87.6052 88.6045L87.6279 89.0276L86.9573 89.6461L87.0372 89.9772L88.0241 89.4414L88.5329 88.8935L89.294 88.6129L89.8014 88.8523L90.5659 88.0782L90.52 87.6701L91.3729 87.2425L91.9135 87.4051L92.3966 87.741L93.0625 87.73L93.7652 87.6361L93.695 88.3511L93.1039 89.0293L93.508 89.3731L93.4684 90.0843L92.3361 90.4821L92.8876 90.8365L93.119 91.3121L93.1566 91.9259L92.675 92.878L91.9551 93.7169L91.1308 94.4716L92.0256 94.4037L92.2816 95.004L92.7217 95.5321L93.2051 95.9682L93.728 96.3841L93.727 97.0215L94.2649 97.4246L94.4513 98.1202L94.8583 98.5768L94.689 99.6486L94.0587 100.654L94.8815 100.84L95.6269 100.13L96.748 99.2688L97.8576 98.5688L98.6075 98.0427L98.7108 97.3328L99.6268 96.9561L99.3101 98.0174L99.7639 98.5469L100.014 98.7734L100.033 98.8133L100.251 98.932L101.325 98.793L102.109 97.9369L102.782 98.3576L101.857 98.8858L100.904 99.5665L100.687 100.325L101.024 100.705L100.654 101.685L99.725 102.282L99.1744 103.18L98.4766 104.457L98.1501 105.498L99.0835 105.203L99.8462 105.283L100.951 104.684L101.039 105.551L101.819 105.541L102.452 105.815L103.288 104.529L104.164 103.394L104.435 102.078L104.387 101.074L105.333 100.251L106.081 99.296L106.871 98.1625L107.482 97.018L108.285 96.0661L109.105 95.1274L109.145 95.1048L109.332 94.8763L110.001 93.9154L110.496 92.9281L111.225 91.8876L111.434 90.8639L111.861 89.8905L112.289 88.9395L112.762 87.9403L111.451 88.2422L110.411 88.765L109.981 88.4916L110.003 87.934L110.801 87.5847L111.431 86.8007L112.185 86.5943L111.956 87.2248L112.458 87.2755L113.125 86.4052L112.538 86.156L112.166 85.7991L112.9 84.8245L113.614 83.6569L114.008 82.4981L114.578 81.4326L115.549 80.603L116.247 80.8628L117.261 80.5823L118.101 80.0225L118.777 79.19L119.546 78.2649L119.816 77.397L120.291 76.7409L120.604 76.0835L121.277 76.1156L122.155 75.6493L122.578 75.12L123.378 74.7796L124.428 74.7831L125.36 74.0945L126.163 73.1964L127.413 72.4455L128.299 71.7517L129.175 71.0736L130.251 70.2477L129.416 70.3359L130.204 69.6322L130.032 69.294L129.292 69.2976L128.303 69.3545L129.382 68.5728L130.429 67.5689L131.217 67.2538L131.605 66.7965L131.61 66.3615L132.461 66.0253L133.658 65.8718L133.283 65.4347L132.87 65.0389L132.941 64.4594L133.814 64.1392L134.987 64.0142L136.097 64.0921L136.135 64.7377L136.583 65.2636L138.04 65.1491L139.315 64.6445L140.961 64.0905L142.151 63.4369L141.895 63.0534L141.2 62.9233L142.027 62.3668L143.503 61.7502L144.718 61.4246L144.973 61.9077L145.954 61.4645L147.017 61.2516L147.719 60.8512L148.417 60.3339L149.407 60.7743L149.304 61.2991L150.204 61.0807L150.438 60.7563L149.407 60.7743L149.012 60.3469L149.724 60.0839L150.413 60.0571L151.225 60.0158L151.563 59.5544L150.943 59.4175L151.837 58.893L152.693 58.4107L153.506 58.1702L153.177 58.8187L153.129 58.8544L152.407 59.2867L151.669 60.1042L150.937 60.8158L150.202 61.6865L149.671 62.3716L149.943 63.0127L150.453 63.4505L151.335 63.6205L152.185 63.5691L153.167 63.3552L154.005 63.0902L154.084 62.6937L154.938 62.4376L154.523 63.3032L155.433 63.1588L156.458 62.8841L155.531 63.6429L156.782 63.8048L157.577 63.1124L158.362 62.3142L158.267 61.6031L159.506 61.3522L159.207 60.9301L160.958 60.3797L160.745 60.8846L162.192 60.3118L163.154 60.1897L163.917 59.6326L165.01 59.2904L166.368 58.8402L167.296 58.3253L168.082 57.8345L168.301 57.3509L168.134 56.7905L169.46 56.6341L170.657 56.4087L172.005 56.3093L173.294 56.2484L173.354 55.4411L173.725 54.7754L172.786 54.5114L172.54 53.949L173.667 53.7695L174.176 54.338L174.838 54.7122L175.617 54.7705L175.98 55.1481L176.784 54.8739L176.028 54.3485L176.639 54.167L177.072 54.5532L177.88 54.4134L177.874 53.8318L176.942 53.4074L176.739 53.0548L177.899 53.3863L179.046 53.7302L178.556 54.368L177.824 54.8718L177.53 55.5514L177.943 56.0831L178.347 55.9026L177.923 55.483L178.191 55.0315L178.903 54.6511L179.794 54.5349L180.778 53.9725L180.596 53.4793L180.618 52.9039L181.463 52.4651L182.123 51.89L182.522 51.1689L181.18 50.8861L182.266 50.7035L182.85 50.1453L183.13 49.4551L184.36 49.1035L185.289 48.7233L186.634 48.5301L187.823 48.4286L188.392 49.0533L186.728 49.1644L185.717 49.408L184.623 49.7645L184.169 50.2299L183.356 50.6372L183.802 51.2543L183.252 51.8353L182.542 52.505L181.993 53.1085L181.447 53.7202L181.648 54.3535L180.725 54.8045L180.676 54.8419L179.967 55.2791L179.601 55.7207L180.421 56.2332L179.892 56.5151L179.872 57.0132L180.832 56.9366L181.733 56.4872L182.661 56.0393L183.408 55.4365L184.315 55.0039L185.688 54.8309L186.377 54.3659L186.521 53.7898L187.403 53.3817L187.84 53.0072L187.307 52.6346L187.519 51.9767L187.183 51.5513L188.245 51.0992L188.661 51.5394L188.814 52.0405L189.5 52.4628L189.922 52.9419L190.634 53.2665L191.007 53.8991L191.866 54.3059L192.568 55.0854L192.702 55.8407L193.605 55.6349L193.575 55.1998L193.21 54.6515L193.493 54.2004L193.542 53.6947L194.395 53.6062L195.058 53.7221L195.599 53.3779L196.059 53.6978L195.126 54.2776L196.109 54.3895L197.377 54.3618L198.078 54.8021L198.979 55.0719L199.815 54.8883L199.859 55.491L199.023 55.9819L200.145 56.0882L201.269 56.217L202.366 56.4925L203.434 56.622L204.692 56.8772L205.647 57.1502L206.809 56.6987L207.902 56.8983L208.612 57.3724L208.273 57.8573L208.564 58.4076L207.313 58.4308L206.365 57.9473L205.798 58.4563L205.67 58.9108L206.416 59.4484L206.836 60.1588L207.144 59.4206L208.354 59.0058L209.617 58.8303L209.525 58.3852L210.56 58.049L211.642 58.1344L211.818 58.6248L212.291 59.2074L213.458 59.3652L214.645 59.7795L215.9 60.0759L216.487 59.5705L217.233 59.027L217.823 59.7599L218.008 60.3341L218.034 61.0049L218.343 61.5504L219.364 61.6656L219.821 61.023L219.344 60.5588L220.451 60.3432L221.253 61.141L220.943 61.9429L221.015 62.7326L219.867 62.9179L218.902 63.0812L217.75 63.286L217.316 64.0755L217.16 64.6919L216.269 65.247L216.615 64.5481L216.596 64.4935L216.388 63.7815L216.424 63.0712L216.116 62.4798L215.718 61.8541L215.455 61.1421L214.539 60.5241L213.316 60.0605L212.177 59.8951L211.102 60.1973L210.396 60.6306L210.222 61.3143L210.243 61.9862L210.057 62.7103L209.821 63.4334L209.841 64.1964L210.116 64.9907L210.565 65.8019L209.783 65.9752L209.814 66.5953L210.572 66.9615L210.89 67.6905L210.547 68.5331L210.282 67.8039L208.996 67.3351L208.787 67.9878L208.585 68.6877L208.663 69.4671L210.421 69.7335L209.458 70.0365L210.633 70.4627L209.125 70.6317L209.815 71.0301L210.822 71.2483L210.459 71.8472L211.375 72.3479L212.675 72.732L213.454 73.4952L213.493 73.551L213.754 74.2599L213.846 74.309L215.246 74.7191L215.893 75.3954L216.782 75.3741L216.865 74.9905L217.922 75.5752L217.077 75.6482L217.861 76.0752L216.504 75.9234L217.528 76.472L218.344 77.0854L218.901 76.7007L219.573 77.6238L220.794 78.1875L219.73 77.4012L219.344 76.7045L218.909 75.9082L220.444 76.726L221.574 76.9837L222.822 77.6257L224.007 78.0493L225.135 78.3614L226.298 78.7555L227.669 79.1787L228.652 79.9285L230.278 80.6315L231.42 81.2475L232.575 81.8826L231.987 82.2841L233.116 82.8046L234.016 83.3776L234.292 84.2889L235.417 85.0811L236.299 85.8389L237.195 86.7065L238.039 86.5843L238.9 87.1626L239.979 87.2444L241.055 87.4125L242.093 87.1749L242.967 87.7004L243.808 87.7368L243.574 86.9447L244.433 87.6415L245.505 87.9967L246.12 87.7278L246.708 87.0328L246.852 86.2214L246.14 85.2366L245.253 84.5526L244.099 83.5911L244.03 83.0991L243.148 82.621L243.7 82.2518L245.122 82.278L246.319 82.1739L246.398 82.1794L247.708 82.1234L248.89 82.0321L249.804 81.6295L250.673 82.0567L251.637 81.9246L252.446 82.0964L252.287 81.3846L252.137 80.7692L251.352 80.6948L250.189 79.9762L250.006 79.293L249.834 78.688L248.289 78.0354L246.811 77.6448L245.722 77.326L244.488 77.1551L243.623 76.8942L242.545 76.0799L241.679 75.3126L241.394 75.5793L240.583 74.9825L239.879 74.7006L239.114 74.8517L238.503 75.3724L237.875 75.8932L236.842 75.8714L235.535 75.6338L234.246 75.4637L233.518 75.1433L232.058 74.5175L231 73.8748L230.161 73.3268L229.258 72.6557L228.294 72.3942L227.236 71.8864L226.83 72.3971L225.832 72.0318L225.227 72.1032L224.607 71.6905L223.636 71.4129L223.577 70.8684L223.337 70.3993L222.889 69.9405L223.384 69.3056L224.619 69.2277L225.301 69.682L226.774 70.0656L228.109 70.6613L229.665 71.2885L231.02 71.9558L232.417 72.3093L233.632 72.2771L234.716 71.9689L236.081 72.3038L236.897 72.3433L237.219 71.7231L237.626 71.3163L237.646 70.5329L237.039 69.7374L236.201 68.9584L235.349 68.1874L234.505 67.4328L233.898 66.4877L234.457 65.8587L233.889 65.3236L234.627 64.9541L234.806 65.774L236.046 66.4544L236.859 66.7925L237.441 67.7124L237.52 68.4824L238.163 69.2779L238.746 70.0029L239.658 70.6221L240.67 70.6724L241.565 70.5048L241.483 69.993L242.676 70.0617L243.868 70.1398L244.706 70.6529L244.794 71.1808L244.135 71.4252L243.759 71.8424L244.301 72.565L245.654 73.0071L246.59 73.4121L247.986 73.5755L249.148 73.6439L250.483 74.1359L252.503 75.4028L253.112 75.9902L253.343 76.5973L253.251 76.6198L252.271 76.7488L252.767 77.6514L253.46 78.6049L254.472 79.4775L254.921 80.4103L255.763 81.4598L255.703 81.964L255.438 82.5056L254.943 81.9605L254.202 82.1451L254.909 82.7283L255.278 83.5109L255.757 84.0697L256.467 84.7791L256.573 85.4284L255.737 85.0285L255.277 85.8929L254.666 85.7316L254.137 86.2117L252.855 85.5383L251.555 84.7878L251.028 83.9887L250.211 83.805L250.303 84.4182L249.484 84.2307L248.395 83.7402L247.57 83.5679L247.869 84.2926L248.751 84.9014L249.065 85.7346L249.734 86.3238L250.577 86.7077L251.82 87.0258L252.852 87.2013L253.418 86.8196L254.65 87.1494L255.42 87.002L255.875 87.4856L256.45 87.2821L257.111 87.9324L257.926 88.2518L257.567 88.7006L257.628 89.4665L258.264 90.0336L258.321 91.0934L258.759 91.9032L259.781 92.2398L259.96 91.8121L260.565 92.012L261.184 92.7187L260.786 93.0737L259.577 92.6611L259.8 93.1213L260.796 93.6678L261.614 94.2574L262.408 94.9445L263.194 95.7508L263.584 96.6139L264.151 97.6734L264.519 98.5557L265.292 99.0897L266.279 99.6026L266.618 100.299L267.913 103.762L266.886 103.626L266.781 104.382L268.014 104.494L269.413 104.943L269.308 105.699L269.356 106.671L268.521 106.723L268.549 107.687L268.819 108.542L268.845 109.398L270.019 109.897L270.521 109.546L270.649 108.879L271.363 108.403L271.697 107.604L272.117 107.573L272.954 107.407L273.51 107.81L274.125 107.762L274.78 107.375L275.775 107.524L277.059 108.324L278.338 109.143L279.256 109.765L280.501 110.72L280.559 110.761L280.996 111.387L281.088 112.222L280.76 112.938L280.379 114.03L280.514 115.458L279.944 116.185L279.526 117.156L279.433 118.343L279.183 119.304L278.345 120.036L279.112 121.096L279.027 122.059L279.449 122.777L280.871 123.002L281.725 123.727L282.454 124.087L283.576 124.56L284.41 125.312L285.368 126.289L286.513 127.294L287.052 128.306L288.02 129.186L288.805 129.301L289 128.665L289.962 129.551L290.953 130.316L291.699 131.228L291.801 130.161L292.205 129.505L292.048 128.603L292.227 127.94L292.925 127.523L293.487 127.63L294.591 127.854L295.114 127.307L294.467 125.885L294.299 124.84L294.325 123.802L294.498 122.865L294.658 121.945L294.801 121.026L294.047 119.899L293.149 118.421L293.07 118.33L286.629 110.504L286.608 110.428L286.323 109.55L286.032 108.498L285.342 107.223L284.827 106.194L283.574 105.649L282.482 105.186L281.953 104.071L281.412 103.195L281.785 102.562L281.947 101.7L282.467 101.149L282.256 100.224L281.481 99.2881L280.874 98.2028L280.455 97.2303L279.673 96.5446L279.259 95.8059L279.359 95.2004L279.679 94.9111L279.748 94.192L280.825 94.5502L281.691 94.6117L282.47 94.3166L283.186 94.5362L283.066 93.8361L283.817 93.5354L284.595 93.3542L284.979 92.8943L284.77 91.9649L285.325 91.6902L285.701 91.3364L285.772 90.9606L286.528 90.9977L286.616 90.2145L287.263 90.4167L288.018 90.4672L288.839 90.7627L289.447 91.3681L290.339 92.0105L290.842 92.2644L290.705 91.7856L290.681 91.7418L290.128 91.2898L289.481 90.5634L288.654 90.161L288.09 89.2857L287.237 88.886L286.947 89.3567L285.848 88.6474L285.055 87.9921L285.219 87.5772L285.152 86.9579L285.786 87.1316L285.808 86.7556L285.029 86.2135L284.429 86.5374L284.147 87.0016L283.852 87.4693L283.58 88.0575L283.431 88.5946L282.635 87.9531L282.958 89.0959L282.642 89.6688L282.281 90.1269L281.833 90.2426L280.954 89.9854L280.126 89.9497L279.738 90.4019L279.307 90.7342L278.701 91.0049L277.991 90.8156L277.197 90.3004L276.708 90.4173L275.948 90.0104L275.84 89.4701L275.145 88.5987L275.178 88.011L275.782 88.428L276.514 88.6116L276.987 88.4893L276.508 87.9121L275.747 87.5194L276.257 86.9261L277.149 87.1525L277.609 87.0293L278.33 87.3066L278.658 86.7437L279.099 86.6169L279.036 85.9102L279.617 85.2619L280.244 84.818L280.499 84.2475L280.945 83.8523L281.213 83.3873L282.126 83.8433L283.37 84.4546L284.399 84.8883L284.683 84.5276L285.348 84.4445L285.871 84.3899L286.674 84.3643L287.264 84.17L286.956 83.2083L286.318 82.1044L286.736 81.9289L286.491 81.2031L286.8 80.8173L285.66 80.3086L285.571 79.6682L285.535 80.0795L284.96 79.9217L284.911 80.3322L284.657 80.5819L284.111 80.52L283.677 80.7043L283.053 80.8038L281.831 80.227L282.335 79.8928L282.004 79.2309L281.383 78.8094L281.049 78.9439L280.711 78.289L280.036 77.778L279.869 77.1944L279.385 76.5874L279.146 75.9103L279.558 75.7276L279.019 75.0316L279.983 75.7996L280.476 75.9838L280.543 76.0065L281.746 76.6429L280.944 75.506L281.558 75.902L282.62 76.2456L282.963 76.2217L283.335 76.6189L283.126 76.8652L283.822 77.2349L283.751 76.7163L283.719 76.2906L284.437 76.6814L284.561 76.3319L285.457 77.0417L285.034 76.377L284.609 75.7178L285.222 76.1502L284.715 75.3864L284.892 74.8509L284.726 74.3303L283.567 73.1586L282.657 72.6156L282.246 71.9397L281.963 71.1836L282.304 71.1233L282.097 70.6271L281.361 69.9698L280.931 69.461L279.815 68.6029L278.776 67.8503L278.491 67.2216L278.127 66.8265L276.972 65.9924L277.318 66.0714L278.288 66.7024L278.669 66.7405L279.435 67.1864L280.587 67.6911L281.347 67.98L282.441 68.7172L283.704 69.5004L284.821 70.2312L285.849 70.8778L286.854 71.5214L288.059 72.41L288.974 73.1412L289.957 74.2121L290.725 75.0548L290.682 75.2699L291.393 75.7983L291.58 76.2091L290.931 75.7768L291.487 76.5867L292.221 77.4659L293.218 78.5047L294.13 79.4447L294.762 80.2341L294.893 80.7912L295.437 81.6218L295.603 82.1562L295.677 82.5664L296.049 83.3302L296.401 84.0764L297.016 85.0009L296.487 84.9213L296.952 85.7778L297.117 86.457L297.387 87.212L296.728 86.9136L296.84 87.5843L297.158 88.4843L297.688 89.4321L298.366 90.4797L299.471 91.8158L299.507 91.862L302.155 93.7454L302.21 93.7587L302.854 94.5758L303.394 95.4075L303.549 96.0886L303.234 96.4665L303.017 97.1221L303.139 98.2148L303.275 99.0462L303.057 99.5345L302.99 99.5709L302.72 99.6292L301.815 99.031L301.75 99.7357L301.526 100.348L301.599 101.178L301.71 102.264L301.921 103.306L301.757 103.893L301.454 104.521L300.71 104.255L300.982 105.032L300.759 105.485L299.981 105.093L299.429 104.268L298.7 103.212L297.827 102.32L297.053 101.958L296.805 102.283L295.704 101.85L295.289 101.147L294.395 100.288L295.052 101.595L294.113 101.394L294.053 102.066L294.309 102.919L294.877 103.843L295.134 104.719L294.892 105.669L295.28 106.524L295.004 107.475L295.53 108.437L295.716 109.319L295.407 109.632L295.238 110.423L295.232 111.342L295.404 112.101L295.383 112.883L295.671 113.878L295.797 115.056L295.872 116.347L295.895 116.394L297.03 120.566L297.065 120.633L297.624 121.437L297.961 122.875L298.008 123.811L297.372 124.389L297.409 125.183L297.207 126.25L297.226 127.049L296.357 127.639L295.629 127.55L295.595 128.472L296.463 129.636L297.207 130.535L297.883 131.575L298.565 132.635L298.927 134.121L298.97 135.348L299.195 136.576L299.798 137.798L300.179 139.034L300.779 139.569L301.398 140.678L301.662 141.647L303.124 143.028L303.854 143.167L304.716 144.563L305.238 145.856L305.691 147.259L305.749 148.707L306.237 150.005L306.214 151.603L305.832 153.047L306.283 154.359L306.961 155.539L307.303 156.564L307.328 157.887L307.529 158.772L308.18 159.954L308.691 161.016L309.372 162.509L309.659 164.024L310.005 165.377L310.391 166.58L311.14 168.265L311.518 169.493L311.576 170.554L312.19 171.645L312.801 172.726L313.624 172.578L314.552 172.613L314.598 172.649L315.213 173.544L315.35 174.769L316.293 175.095L317.079 175.715L317.704 176.651L318.253 177.734L318.712 178.99L319.152 180.245L319.938 181.508L320.107 182.9L320.35 184.165L320.237 185.425L320.907 185.11L321.69 185.583L322.385 186.526L322.838 187.626L323.445 188.738L324.084 188.413L324.712 188.105L324.992 187.13L325.729 188.238L326.262 187.752L326.942 187.892L327.548 188.199L328.131 187.857L328.859 187.829L329.496 187.958L330.003 188.74L330.437 189.35L330.917 189.822L331.716 189.781L332.298 189.271L332.861 188.759L333.482 188.697L334.203 188.015L334.907 187.962L335.417 187.767L335.963 187.394L336.611 187.013L337.014 186.34L337.293 185.678L337.331 184.076L337.562 182.744L337.52 181.326L337.733 180.013L337.917 178.702L338.03 177.727L338.222 176.739L338.615 175.572L338.837 174.735L339.196 174.051L339.132 172.762L339.136 171.547L339.136 171.468L339.059 166.36L339.058 166.177L338.834 165.072L338.778 163.65L338.757 162.512L338.798 161.533L338.764 160.244L338.783 159.115L338.919 158.454L339.223 158.223L339.719 158.949L340.198 159.839L340.387 159.312L340.34 158.349L340.228 157.235L340.097 156.108L340.015 155.149L339.883 154.199L339.799 153.412L340.127 154.146L340.088 153.511L340.31 153.795L340.493 153.909L340.899 155.292L341.271 156.507L341.55 157.603L341.846 158.858L341.855 158.522L342.138 159.775L342.39 160.702L342.49 161.048L342.652 161.78L342.916 163.355L343.085 163.807L343.259 164.416L343.348 164.568L343.252 163.888C342.46 159.365 341.461 154.838 340.25 150.318C318.053 67.4786 232.904 18.3169 150.062 40.5143C130.84 45.665 113.522 54.1509 98.3977 65.2654L98.1754 65.4238ZM264.948 108.588L265.278 108.047L264.662 106.929L265.243 106.059L264.316 105.385L264.248 104.44L264.801 103.687L264.326 102.589L264.243 102.506L262.321 98.6889L262.256 98.5907L261.704 97.6493L260.714 96.9558L259.895 96.9497L259.435 97.4799L259.353 97.5019L255.126 98.4532L255.047 98.4595L254.045 98.4352L252.787 98.1573L251.921 98.2131L251.386 98.7996L251.26 99.5295L250.736 98.7387L249.991 97.9802L249.004 97.2279L248.215 96.6663L247.35 96.4601L247.216 97.3411L247.093 98.0482L247.166 98.9283L246.187 98.1781L245.513 97.0114L244.854 96.9615L244.881 97.9756L244.684 98.9281L245.662 99.6741L246.383 100.44L247.181 100.854L246.656 101.225L246.96 101.749L247.693 101.552L247.862 100.834L248.993 101.796L249.833 102.145L249.562 101.336L250.576 101.851L251.206 102.939L251.364 102.282L252.171 102.626L251.294 101.641L252.2 101.52L253.52 102.582L254.431 102.559L254.19 101.525L253.934 100.5L254.891 101.302L255.78 101.163L255.877 100.581L256.835 101.391L257.854 101.819L257.926 102.591L257.52 103.594L258.164 103.661L258.874 104.424L259.019 103.717L260.218 104.258L260.499 105.051L260.943 106.053L261.582 106.126L261.537 105.202L261.873 104.682L262.581 104.339L262.124 103.259L263.029 104.106L262.921 104.727L262.788 105.445L263.675 106.446L264.316 107.454L264.948 108.588Z" fill="url(#paint1_linear_571_1527)"/>
<path d="M329.17 127.615L329.048 126.839L329.315 126.944L329.682 127.482L329.504 126.567L329.262 125.664L329.887 126.794L330.304 127.98L330.758 129.137L330.602 129.179L330.287 128.793L330.156 128.982L329.763 128.599L329.497 128.512L329.17 127.615ZM124.582 132.975L125.913 133.436L127.424 133.728L127.992 134.669L126.802 134.916L125.932 135.045L124.754 136.233L126.109 136.801L126.663 136.069L127.891 135.573L127.647 136.452L126.598 137.479L128.771 136.748L128.673 135.441L129.948 136.315L130.713 135.427L131.461 134.725L130.092 134.508L128.939 133.832L129.894 133.481L130.91 133.141L130.161 132.42L128.618 132.77L127.264 132.708L126.017 132.776L124.582 132.975ZM126.699 147.913L127.487 149.113L128.334 149.357L129.423 149.187L129.925 149.545L130.4 148.753L131.488 148.561L132.468 148.357L133.35 147.19L134.477 146.756L135.771 146.78L135.575 146.065L136.887 146.319L135.883 145.692L135.054 145.521L134.012 145.728L133.432 146.282L132.599 147.016L131.795 147.037L131.113 146.397L130.966 145.663L129.713 145.321L129.748 146.026L130.074 147.06L129.175 147.029L128.782 147.84L127.995 148.309L126.699 147.913ZM131.339 156.1L132.435 156.579L133.085 155.781L134.134 155.546L135.394 155.777L136.551 155.508L135.919 154.94L135.194 154.813L134.623 154.031L134.007 153.911L133.1 154.877L132.299 155.399L131.339 156.1ZM140.935 163.976L142.311 163.427L142.464 162.31L142.617 161.193L143.519 160.594L143.017 159.214L142.29 160.277L141.709 161.11L142.005 162.27L141.531 163.116L140.935 163.976ZM145.726 172.425L146.175 173.34L146.476 174.701L147.23 175.408L147.184 176.297L148.391 176.33L148.479 177.686L149.306 177.265L149.124 178.372L148.953 179.508L148.915 180.648L149.898 180.2L150.357 178.386L149.715 177.274L149.095 175.669L148.753 174.309L148.298 172.948L147.983 171.59L147.086 171.346L146.196 171.313L145.726 172.425ZM142.695 172.92L143.093 174.306L143.796 173.674L144.394 174.386L143.944 175.035L143.835 176.385L144.713 177.113L145.721 178.275L145.669 179.193L146.163 180.11L145.98 180.995L147.241 180.825L146.878 179.674L146.371 178.978L146.015 178.07L146.341 176.943L145.547 176.695L144.714 177.112L144.577 175.508L145.022 174.855L145.091 173.964L144.118 173.018L142.695 172.92ZM157.589 190.43L158.499 190.385L159.663 189.635L160.497 190.722L161.821 189.947L163.133 189.156L164.392 187.897L165.294 187.805L164.166 188.843L164.247 189.734L165.45 189.399L166.334 190.423L167.55 190.287L169.008 189.422L170.496 189.004L170.592 189.68L171.505 189.547L170.892 188.487L170.884 187.364L170.198 186.775L170.076 185.863L168.736 186.041L167.881 185.248L167.141 183.973L165.68 184.138L164.301 183.599L163.783 184.551L162.677 185.331L162.145 186.301L161.461 187.037L160.293 187.553L159.449 188.533L158.452 189.488L157.589 190.43ZM165.602 195.52L166.926 194.455L166.578 195.637L166.523 196.544L166.371 198.17L166.16 199.307L166.458 200.421L166.633 201.983L167.446 203.262L168.28 203.17L169.043 202.644L169.421 201.675L169.558 200.074L169.224 198.748L168.756 197.658L168.619 196.555L168.956 195.367L169.134 194.194L170.46 193.341L170.895 191.909L171.827 191.777L172.678 192.118L173.685 192.432L174.294 193.24L174.544 194.796L173.803 196.282L173.944 197.195L174.589 196.162L175.477 195.577L176.183 196.834L176.899 198.088L178.083 197.192L177.792 195.616L178.026 194.197L178.147 193.044L177.657 192.194L178.961 193.11L180.679 193.464L181.124 192.458L179.868 191.082L178.679 189.931L176.901 189.824L175.641 189.796L174.405 190.005L173.134 189.989L172.214 190.131L172.66 190.97L171.12 191.193L170.308 191.085L169.409 191.425L167.609 192.112L167.143 192.163L166.626 193.12L166.108 194.32L165.602 195.52ZM175.379 201.991L176.829 202.444L177.984 202.248L179.101 201.831L180.149 200.949L181.208 200.277L182.391 199.345L183.384 198.446L184.015 197.395L182.71 197.672L181.409 197.941L180.897 198.733L180.031 198.653L178.94 199.104L178.453 200.103L177.251 201.003L176.104 201.193L175.379 201.991ZM181.991 196.656L183.003 196.671L184.206 195.964L185.32 195.716L186.486 195.665L187.568 195.181L188.72 194.42L188.234 193.145L188.336 192.194L187.33 192.894L186.865 193.706L185.543 193.799L184.64 194.225L183.433 194.747L182.394 195.41L181.991 196.656ZM293.209 74.5509L292.885 74.4568L292.583 74.3615L292.354 74.364L292.952 75.026L291.998 74.3006L291.026 73.5759L290.252 73.0829L291.544 74.0883L292.747 75.0183L293.37 75.4434L293.923 75.9552L293.91 76.1755L293.768 76.2683L293.448 76.1591L293.214 76.1586L292.703 75.9925L292.219 75.8057L292.766 76.3102L293.147 76.3843L293.709 76.6904L294.086 76.7841L294.347 76.7598L294.491 76.6719L295.007 76.9811L295.232 77.0065L295.745 77.3393L296.087 77.4373L296.499 77.6707L296.911 77.8906L297.205 78.0242L297.593 78.2588L297.637 78.1879L298.312 78.7894L298.664 79.0705L299.018 79.3239L298.907 79.164L298.701 78.9072L298.47 78.6528L299.222 79.3641L299.314 79.4348L299.731 79.8473L293.209 74.5509ZM274.236 72.2438L274.753 71.9969L275.447 72.0692L275.715 71.6721L275.54 71.0544L275.151 70.3093L274.385 69.4429L274.042 68.8024L273.101 68.0562L272.153 67.3199L271.199 66.5945L270.234 65.7278L269.825 65.1095L269.16 64.352L268.506 63.7492L268.797 63.5496L268.101 62.809L268.536 62.6609L268.085 62.1938L268.005 61.7765L267.397 61.2751L267.133 60.817L266.332 60.1549L265.52 59.5L264.975 58.918L264.149 58.2804L262.849 57.5299L261.8 56.9201L261.102 56.6957L260.812 56.8139L260.254 56.8233L260.24 57.0077L260.557 57.5835L260.663 57.9933L260.568 58.2311L260.352 58.5875L260.418 59.0035L260.781 59.4798L260.824 59.7582L260.933 60.1309L260.55 60.2697L260.886 60.609L261.63 61.2501L261.971 61.7422L262.948 62.3713L263.587 62.9366L264.394 63.3982L265.202 64.0179L265.015 64.267L264.03 63.9116L263.993 64.1973L264.195 64.7628L262.98 64.1435L262.028 63.3589L262.045 63.8787L262.916 64.5811L263.053 65.29L262.164 64.8911L262.72 65.6012L263.208 66.2475L264.265 66.6966L265.301 67.3047L266.109 68.0417L267.068 68.178L267.908 68.545L268.635 69.2049L269.596 69.7703L270.434 69.9935L271.524 70.3836L272.167 71.1293L273.246 71.5275L274.236 72.2438ZM261.408 62.6481L261.44 62.3638L261.859 62.2242L261.712 61.7621L260.811 61.0951L260.224 60.4884L259.729 59.8436L258.328 59.2559L256.996 58.6321L257.007 58.9094L256.769 59.086L256.261 58.5938L255.026 57.944L254.266 57.3703L254.281 57.6465L255.033 58.2222L256.053 59.0611L257.448 59.8988L258.34 60.6769L259.468 61.4326L260.548 61.984L261.408 62.6481ZM250.031 51.2167L250.607 51.2889L250.368 50.9731L250.778 50.8005L251.342 50.8795L252.055 50.9916L252.347 50.7778L252.467 50.5376L252.3 50.2528L252.507 50.0976L252.949 50.0877L252.908 49.8L252.32 49.3653L253.188 49.82L254.192 50.2242L255.233 50.5649L255.871 50.7693L256.481 51.1435L257.299 51.3262L257.952 51.4676L258.611 51.6344L258.107 51.2592L257.232 50.7068L257.366 50.685L256.827 50.26L256.169 49.8443L254.591 49.0467L253.142 48.35L252.058 47.7815L251.44 47.5672L250.888 47.4799L249.91 47.2087L248.661 46.7972L249.188 47.0947L248.829 47.0736L248.075 46.8729L249.227 47.4597L248.849 47.4163L247.707 47.0667L247.066 46.6647L246.033 46.1546L244.642 45.6322L244.796 45.8533L244.909 46.076L244.662 46.165L245.788 46.6907L246.792 47.0274L247.316 47.0764L247.036 47.2007L246.517 47.1637L245.371 46.8063L245.228 46.8807L246.203 47.3967L246.375 47.7171L245.798 47.7404L245.572 47.9773L246.106 48.4034L245.586 48.2988L244.663 47.7733L244.097 47.4005L243.627 47.5221L242.286 47.0406L241.1 46.4772L240.686 46.0771L239.722 45.6482L238.889 45.2386L238.968 45.4527L238.431 45.4839L237.86 45.569L237.892 45.904L238.145 46.3111L238.819 46.668L239.702 47.1461L240.228 47.5067L241.922 48.0926L242.93 48.6137L243.973 49.0848L244.298 49.0474L245.084 49.4509L245.972 49.6967L246.552 50.2192L247.586 50.4891L248.878 50.8525L250.031 51.2167ZM233.463 42.6779L234.191 42.7128L234.31 42.6315L235.147 42.6874L234.096 42.2729L233.035 41.8701L233.017 41.7885L231.709 41.3794L230.092 41.0124L229.403 40.9891L228.626 40.7542L227.759 40.5706L227.827 40.7469L228.027 41.0187L227.682 41.0257L226.582 40.8593L225.6 40.6977L226.98 41.0425L227.123 41.1851L228.386 41.5471L228.859 41.5375L229.13 41.7267L230.1 41.8652L230.86 42.1541L231.492 42.3513L232.227 42.4124L233.463 42.6779ZM152.235 40.1039L150.714 40.4163L149.499 40.7913L148.431 41.1409L147.961 41.4432L146.816 41.8946L145.534 42.3419L144.819 42.6921L143.904 43.1903L143.392 43.5716L143.412 43.7964L143.328 44.108L143.114 44.4411L143.776 44.3131L144.062 44.083L144.088 43.9087L144.477 43.5742L144.865 43.2491L145.27 42.9371L146.09 42.505L146.914 42.0894L147.519 41.7827L148.277 41.4712L148.891 41.18L149.533 40.8908L150.744 40.5389L152.235 40.1039ZM231.581 64.8587L232.024 64.369L232.798 64.0532L233.653 63.8832L233.397 63.5535L232.668 63.3822L232.204 62.8015L231.243 62.5983L230.488 62.6516L229.912 62.9638L229.946 63.4923L229.605 63.846L229.991 64.3534L230.899 64.7604L231.581 64.8587ZM227.342 61.623L227.694 61.3206L227.64 60.7974L228.558 60.6961L228.218 60.3352L227.574 60.0784L226.821 60.1717L226.549 60.5381L225.974 60.8051L224.981 60.8772L224.786 61.3498L224.887 61.9149L225.254 61.613L225.119 61.2423L225.862 61.147L226.284 61.6078L227.342 61.623Z" fill="#F5F5F7"/>
<defs>
<linearGradient id="paint0_linear_571_1527" x1="190" y1="74.5" x2="190" y2="259.5" gradientUnits="userSpaceOnUse">
<stop stop-color="#1B1B2D"/>
<stop offset="1" stop-color="#1B1B2D" stop-opacity="0"/>
</linearGradient>
<linearGradient id="paint1_linear_571_1527" x1="190" y1="220.5" x2="190" y2="348" gradientUnits="userSpaceOnUse">
<stop stop-color="#F5F5F7"/>
<stop offset="1" stop-color="#F5F5F7" stop-opacity="0"/>
<stop offset="1" stop-color="#F5F5F7" stop-opacity="0"/>
</linearGradient>
</defs>
</svg>
