<svg width="390" height="450" viewBox="0 0 390 450" fill="none" xmlns="http://www.w3.org/2000/svg">
<g clip-path="url(#clip0_1009_8314)" opacity="0.47">
<path d="M192.138 0.363216C189.874 1.00995 135.936 32.0533 134.223 33.7024C132.25 35.6103 131.086 38.553 131.086 41.6573C131.086 43.8562 131.215 44.5029 132.185 46.4431C133.447 49.0301 134.999 50.5176 137.683 51.7787C140.334 53.0075 143.891 53.0075 146.511 51.7787C147.545 51.2936 156.373 46.2814 166.107 40.6548C175.872 35.0282 183.924 30.4041 184.021 30.4041C184.118 30.4041 184.215 43.8238 184.28 60.2186L184.377 90.0008L185.153 91.7793C185.638 92.7817 186.705 94.2692 187.708 95.207C193.334 100.51 202.227 98.7964 205.461 91.7793L206.431 89.6774L206.625 60.2833L206.786 30.8891L223.407 40.4932C244.75 52.8458 244.394 52.6518 247.66 52.6518C250.603 52.6194 253.093 51.714 255.259 49.8061C256.876 48.3833 258.558 44.988 258.784 42.595C259.107 39.426 257.652 35.6426 255.292 33.4114C254.742 32.9264 242.842 25.9093 228.84 17.8574C214.838 9.77322 202.906 2.82081 202.292 2.3681C199.511 0.266205 195.339 -0.542214 192.138 0.363216Z" fill="#616AA5"/>
<path d="M59.4272 77.3931C57.4223 78.0722 57.584 77.9429 32.5877 92.5591C19.9116 99.9642 8.36741 106.593 6.97693 107.24C3.93727 108.63 2.09408 110.377 0.897617 112.931L-0.0078125 114.807L-0.0078125 148.081L-0.0078125 181.356L0.735933 182.94C1.77071 185.172 4.00195 187.468 6.23319 188.567C8.82013 189.828 13.0562 189.893 15.4815 188.696C18.0038 187.468 19.7176 185.786 20.9464 183.296L22.0782 181.033L22.1752 159.205C22.2076 147.208 22.3369 137.378 22.4339 137.378C22.4986 137.378 33.4931 143.781 46.8158 151.638C64.7951 162.213 71.5535 166.028 73.041 166.416C77.9238 167.71 83.2271 165.22 85.5876 160.563C86.4607 158.817 86.5901 158.235 86.5901 155.551C86.5901 152.867 86.4607 152.253 85.6523 150.701C85.1349 149.731 84.1972 148.437 83.5828 147.79C82.936 147.176 71.6828 140.353 58.5218 132.624C45.393 124.896 34.4309 118.396 34.1722 118.17C33.8165 117.846 37.2118 115.745 51.343 107.531C61.0117 101.872 69.4839 96.7305 70.163 96.0838C70.8421 95.4047 71.8122 94.0142 72.3619 92.9471C73.1703 91.298 73.2997 90.6512 73.2997 88.129C73.2997 85.639 73.1703 84.9923 72.3296 83.2784C71.1654 80.9179 69.3222 79.204 66.8 78.0399C64.6011 77.0374 61.3674 76.7464 59.4272 77.3931Z" fill="#616AA5"/>
<path d="M324.395 77.4531C319.319 79.0699 315.859 84.1468 316.408 89.1267C316.667 91.3902 318.219 94.7209 319.674 96.1114C320.256 96.6611 328.599 101.706 338.203 107.332C347.807 112.927 355.665 117.648 355.697 117.842C355.73 118.036 344.929 124.535 331.736 132.329C317.734 140.542 307.128 147.009 306.319 147.786C304.153 149.887 303.215 152.248 303.215 155.708C303.215 158.004 303.344 158.909 303.959 160.138C306.352 164.956 311.137 167.479 316.182 166.541C318.057 166.218 321.129 164.504 342.763 151.763C356.247 143.84 367.306 137.373 367.371 137.373C367.468 137.373 367.565 147.204 367.63 159.2L367.727 180.995L368.6 182.871C369.861 185.587 371.348 187.107 373.935 188.368C375.908 189.371 376.522 189.5 378.915 189.5C381.211 189.5 381.955 189.338 383.539 188.562C386.062 187.333 388.293 184.876 389.231 182.386L389.974 180.446L389.877 147.43L389.78 114.446L388.843 112.668C387.549 110.178 385.803 108.593 382.957 107.268C381.599 106.653 369.99 99.9918 357.12 92.4897C344.283 84.9876 332.932 78.4879 331.93 78.0351C329.699 77.0004 326.562 76.7417 324.395 77.4531Z" fill="#616AA5"/>
<path d="M139.04 183.872C137.132 184.455 135.321 185.651 133.834 187.3C130.956 190.501 130.18 195.158 131.893 199.038C133.381 202.401 133.834 202.692 159.8 217.535L184.182 231.472L184.279 260.058L184.376 288.644L185.152 290.39C186.252 292.783 188.936 295.305 191.425 296.21C197.311 298.409 203.487 295.531 205.945 289.484C206.365 288.514 206.462 283.308 206.624 259.799L206.785 231.31L230.553 217.503C257.295 201.916 256.907 202.207 258.266 197.745C259.462 193.735 258.654 190.21 255.808 187.106C253.706 184.843 251.507 183.808 248.338 183.614C246.754 183.517 245.234 183.646 244.425 183.905C243.714 184.131 232.364 190.566 219.203 198.23L195.306 212.102L171.377 198.424C158.183 190.89 146.801 184.487 146.025 184.163C144.569 183.549 140.592 183.387 139.04 183.872Z" fill="#616AA5"/>
<path d="M8.91714 260.639C6.87992 260.963 4.13129 262.483 2.87016 263.938C2.32044 264.552 1.44734 265.846 0.929954 266.848L-0.0078125 268.594L-0.0078125 301.869L-0.0078125 335.143L0.929954 337.019C1.41501 338.054 2.41745 339.444 3.12885 340.156C4.77803 341.74 56.3875 372.557 58.9098 373.43C63.9543 375.241 69.9366 372.654 72.3942 367.642C73.2026 365.993 73.332 365.281 73.332 362.824C73.332 360.204 73.235 359.752 72.1679 357.779C71.5211 356.615 70.4217 355.16 69.7426 354.578C69.0312 353.963 60.3326 348.66 50.4376 342.775C40.5425 336.922 32.426 332.007 32.426 331.877C32.426 331.748 43.2911 325.184 56.6139 317.293C74.6255 306.558 81.2222 302.451 82.5156 301.19C87.9159 295.919 86.3314 286.703 79.4436 283.372C77.1154 282.208 73.332 282.046 70.9714 282.952C70.0336 283.307 58.7481 289.904 45.8781 297.568C33.008 305.264 22.4339 311.537 22.3692 311.537C22.3046 311.537 22.2076 301.966 22.1752 290.26C22.0782 269.015 22.0782 268.95 21.3021 267.301C19.0709 262.45 14.091 259.766 8.91714 260.639Z" fill="#616AA5"/>
<path d="M377.071 260.645C373.352 261.26 370.345 263.62 368.696 267.178L367.726 269.279L367.564 290.525L367.37 311.77L343.279 297.574C330.021 289.781 318.412 283.152 317.507 282.829C315.275 282.085 311.589 282.343 309.422 283.378C307.191 284.413 305.186 286.483 304.119 288.746C302.858 291.398 302.826 295.634 304.022 298.059C305.639 301.39 306.092 301.681 331.896 316.847C345.446 324.802 356.634 331.398 356.763 331.528C356.893 331.657 348.873 336.508 338.946 342.296C327.919 348.699 320.352 353.323 319.576 354.131C317.474 356.201 316.472 358.723 316.472 361.989C316.439 364.285 316.601 364.996 317.41 366.645C318.606 369.071 321.128 371.399 323.683 372.337C326.238 373.307 329.989 373.177 332.252 372.013C333.061 371.561 345.284 364.511 359.415 356.298C387.516 339.935 387.807 339.741 389.229 335.893C389.941 333.953 389.973 333.921 389.973 301.713C389.973 270.282 389.941 269.441 389.262 267.663C387.451 262.78 382.18 259.772 377.071 260.645Z" fill="#616AA5"/>
<path d="M192.849 351.93C189.486 352.835 186.802 355.002 185.315 358.009L184.377 359.949L184.215 389.829L184.021 419.708L165.363 408.94C155.08 403.022 146.025 398.01 145.249 397.783C143.115 397.169 139.17 397.492 137.262 398.43C135.128 399.465 133.155 401.535 132.024 403.863C131.248 405.447 131.086 406.256 131.086 408.487C131.054 410.783 131.215 411.527 131.991 413.079C132.476 414.114 133.543 415.569 134.352 416.345C136.098 417.994 189.486 448.876 191.944 449.652C193.787 450.201 197.7 450.072 199.316 449.361C199.866 449.134 201.16 448.391 202.194 447.711C203.229 447.032 215.388 439.951 229.26 431.963C257.587 415.666 256.908 416.118 258.266 411.656C258.816 409.845 258.945 408.843 258.751 407.355C258.137 401.987 253.933 397.848 248.792 397.525C244.685 397.266 244.911 397.137 225.251 408.487L206.786 419.126L206.625 389.699L206.431 360.273L205.557 358.397C204.296 355.746 202.809 354.161 200.319 352.965C198.023 351.833 194.854 351.38 192.849 351.93Z" fill="#616AA5"/>
</g>
<defs>
<clipPath id="clip0_1009_8314">
<rect width="389.971" height="450" fill="white"/>
</clipPath>
</defs>
</svg>
