<svg width="16" height="16" viewBox="0 0 16 16" fill="none" xmlns="http://www.w3.org/2000/svg">
<path d="M7.61963 2.00554C7.19321 2.04669 7.06977 2.06352 6.81729 2.11402C5.70261 2.33659 4.68333 2.86963 3.84919 3.66453C2.99261 4.48373 2.38478 5.5704 2.1323 6.73001C1.89478 7.83163 1.97894 9.038 2.36982 10.0835C3.10109 12.0474 4.76749 13.4707 6.83225 13.8934C7.225 13.9757 7.49993 14 8.00303 14C8.52109 14 8.79041 13.9738 9.23927 13.8822C10.1202 13.7007 11.0216 13.2762 11.7529 12.6964C11.9979 12.5037 12.4954 12.0081 12.6824 11.7724C13.3912 10.884 13.8364 9.82167 13.9748 8.69012C14.0084 8.42079 14.0084 7.58475 13.9748 7.31542C13.842 6.23063 13.4473 5.2487 12.7946 4.37899C12.5534 4.0573 12.0203 3.50929 11.7342 3.29046C10.8252 2.59282 9.86206 2.18883 8.76796 2.04108C8.55288 2.01302 7.78608 1.98871 7.61963 2.00554ZM8.66136 2.96689C10.4362 3.19694 11.968 4.35655 12.6731 5.99871C12.9499 6.64958 13.0733 7.25183 13.0752 7.98313C13.077 8.4264 13.0583 8.62466 12.9798 9.01369C12.6899 10.4557 11.7922 11.6883 10.4961 12.427C9.95183 12.7394 9.3066 12.9526 8.64827 13.0424C8.35277 13.0817 7.72623 13.0873 7.44195 13.0517C6.56106 12.9414 5.82044 12.6646 5.12097 12.182C3.93709 11.3666 3.15346 10.0779 2.96269 8.63027C2.91967 8.30483 2.91967 7.70071 2.96269 7.3734C3.04498 6.7618 3.20021 6.25681 3.4714 5.71441C3.95954 4.74745 4.76001 3.94882 5.72506 3.4644C6.34037 3.15393 6.92202 2.99682 7.70753 2.92762C7.87398 2.91265 8.42758 2.9351 8.66136 2.96689Z" fill="#1B1B2D"/>
<path d="M7.88129 5.33822C7.75411 5.37375 7.65686 5.45231 7.59888 5.56827L7.55025 5.66553L7.55025 6.59882V7.53025H6.64879C5.67439 7.53025 5.63324 7.53586 5.49671 7.63873C5.32839 7.76778 5.27789 8.0315 5.38637 8.22414C5.44996 8.33824 5.5921 8.4411 5.71927 8.46168C5.75855 8.46729 6.18871 8.4729 6.67123 8.4729H7.55025V9.40807V10.3432L7.60262 10.4405C7.75598 10.721 8.15435 10.7622 8.35633 10.519C8.46855 10.3825 8.47416 10.3432 8.47416 9.36505V8.47477L9.4018 8.46916L10.3295 8.46355L10.4267 8.41305C10.4809 8.38686 10.5539 8.32701 10.5875 8.28213C10.7297 8.09509 10.7129 7.84447 10.5464 7.67801C10.4005 7.53399 10.3856 7.53212 9.3644 7.53025H8.47416L8.46855 6.59321C8.46294 5.66927 8.46294 5.6543 8.41992 5.57388C8.31706 5.38124 8.08889 5.28211 7.88129 5.33822Z" fill="#1B1B2D"/>
</svg>
