<svg width="450" height="450" viewBox="0 0 450 450" fill="none" xmlns="http://www.w3.org/2000/svg">
<path fill-rule="evenodd" clip-rule="evenodd" d="M254.817 93.654C229.97 93.654 211.557 98.0447 193.91 110.524C177.237 122.314 170.282 133.24 169.856 145.871C169.322 161.704 156.054 174.107 140.22 173.574C124.386 173.04 111.983 159.772 112.517 143.938C113.804 105.738 137.093 80.4342 160.785 63.6805C190.926 42.3666 222.081 36.2822 254.817 36.2822C271.892 36.2822 300.66 37.1684 321.212 62.0798C337.431 81.7394 340.827 109.429 334.534 131.169C330.088 146.53 319.315 158.538 313.884 164.592C313.42 165.109 312.995 165.583 312.617 166.012C300.062 180.223 286.286 191.835 271.038 202.025C268.839 203.495 266.543 205.125 263.768 207.096L263.433 207.334C260.64 209.317 257.409 211.607 254.037 213.839C251.519 215.507 248.714 217.286 245.662 219.03C245.438 225.991 245.093 233.616 244.275 240.978C242.929 253.099 240.39 265.286 238.188 275.855C237.614 278.609 237.064 281.252 236.563 283.757C233.456 299.292 218.343 309.367 202.808 306.26C187.273 303.153 177.198 288.04 180.305 272.505C181.001 269.025 181.682 265.743 182.334 262.601C184.437 252.471 186.237 243.8 187.255 234.643C188.011 227.832 188.192 221.473 188.408 213.864C188.494 210.833 188.586 207.605 188.722 204.071C188.725 203.972 188.727 203.917 188.73 203.793C188.733 203.698 188.737 203.563 188.744 203.334C188.755 202.954 188.777 202.255 188.828 201.462C188.919 200.028 189.165 196.948 190.243 193.363C191.416 189.465 193.643 184.71 197.816 180.385C201.968 176.082 206.718 173.581 210.923 172.179C213.623 171.279 217.231 169.401 222.363 166.003C224.853 164.354 227.375 162.574 230.218 160.555C230.397 160.428 230.578 160.299 230.761 160.169C233.341 158.337 236.259 156.264 239.159 154.326C250.805 146.543 260.718 138.103 269.622 128.026C269.838 127.781 270.049 127.542 270.256 127.308C273.346 123.812 275.413 121.473 277.169 119.059C278.934 116.632 279.353 115.463 279.425 115.217C281.236 108.959 279.415 101.569 276.957 98.5902C275.526 96.8552 274.026 95.8663 271.235 95.0843C267.686 94.0902 262.78 93.654 254.817 93.654Z" fill="#1A8854"/>
<path fill-rule="evenodd" clip-rule="evenodd" d="M232.996 394.192C232.752 395.751 232.375 397.309 231.86 398.855C232.431 397.142 230.992 402.194 228.553 406.275C227.586 407.894 223.487 414.732 214.711 418.554C209.526 420.812 203.255 421.745 196.735 420.323C190.577 418.979 186.125 415.962 183.332 413.48C170.073 401.694 173.465 386.205 174.602 382.318C176.034 377.423 178.391 373.752 179.367 372.278C180.621 370.385 181.865 368.816 182.58 367.934C182.895 367.544 183.2 367.177 183.358 366.987C192.839 354.903 210.263 352.401 222.787 361.51C233.278 369.139 237.078 382.55 232.996 394.192ZM183.572 366.726C183.575 366.722 183.544 366.761 183.468 366.853C183.531 366.775 183.569 366.729 183.572 366.726ZM177.354 380.945C177.221 381.338 177.16 381.498 177.163 381.479C177.166 381.461 177.233 381.264 177.354 380.945Z" fill="#1A8854"/>
</svg>
