<svg width="16" height="16" viewBox="0 0 16 16" fill="none" xmlns="http://www.w3.org/2000/svg">
<path d="M5.30591 2.29042C3.90347 2.99965 2.70694 3.61039 2.65203 3.64733C2.52391 3.72613 2.34317 3.93299 2.27683 4.06844C2.11668 4.40828 2 5.32684 2 6.25032C2 6.88076 2.02745 7.2206 2.11897 7.79932C2.48731 10.1117 3.69299 12.2197 5.48207 13.6752C5.82296 13.951 7.07897 14.8523 7.21624 14.9163C7.47019 15.037 7.61432 15.0715 7.9186 15.0862C8.25034 15.101 8.49971 15.0542 8.76052 14.9286C8.89322 14.8671 9.92503 14.1406 10.3506 13.8106C11.1765 13.1678 11.9795 12.2813 12.5263 11.4021C13.3293 10.1117 13.8098 8.70064 13.9607 7.19351C14.0683 6.10503 13.9447 4.54372 13.7137 4.0709C13.5467 3.72613 13.6633 3.79508 10.7692 2.33228C8.28923 1.0788 8.1634 1.01724 8.01469 1.00985L7.85912 1L5.30591 2.29042ZM8.39218 2.43325C8.60038 2.53914 8.87491 2.67705 9.00074 2.74108C9.12429 2.80511 9.3851 2.93563 9.57728 3.03167C9.76717 3.12771 10.012 3.25084 10.1172 3.30256C10.2224 3.35674 10.5084 3.50203 10.7532 3.62516C10.998 3.74829 11.3046 3.90344 11.4373 3.96993C11.57 4.03642 11.92 4.21373 12.2174 4.36395L12.7596 4.6373L12.8123 4.97222C13.009 6.21092 12.9061 7.53582 12.5217 8.78683C12.0436 10.3309 11.0964 11.7272 9.82894 12.7566C9.53381 12.9955 8.40362 13.8007 8.28008 13.8598C8.1634 13.9165 7.94835 13.9313 7.79049 13.8968C7.66694 13.8672 6.37432 12.9364 5.94421 12.5645C4.55092 11.3627 3.5786 9.65368 3.23543 7.80178C3.12561 7.21321 3.10273 6.93986 3.10273 6.23801C3.10273 5.59773 3.13705 5.16184 3.21712 4.77767L3.24686 4.6373L5.61248 3.44046C6.91425 2.78294 7.98495 2.24363 7.9941 2.24363C8.00325 2.24363 8.1817 2.32736 8.39218 2.43325Z" fill="#30C07B"/>
</svg>
