<svg width="16" height="16" viewBox="0 0 16 16" fill="none" xmlns="http://www.w3.org/2000/svg">
<path d="M9.627 6C9.92537 6 10.2115 6.11853 10.4225 6.3295C10.6335 6.54048 10.752 6.82663 10.752 7.125V10.2495C10.752 10.979 10.4622 11.6786 9.9464 12.1944C9.43058 12.7102 8.73098 13 8.0015 13C7.27202 13 6.57242 12.7102 6.0566 12.1944C5.54078 11.6786 5.251 10.979 5.251 10.2495V7.125C5.251 6.82663 5.36953 6.54048 5.58051 6.3295C5.79148 6.11853 6.07763 6 6.376 6H9.627ZM9.627 6.75H6.376C6.27654 6.75 6.18116 6.78951 6.11084 6.85984C6.04051 6.93016 6.001 7.02554 6.001 7.125V10.2495C6.001 10.7801 6.21177 11.2889 6.58693 11.6641C6.9621 12.0392 7.47093 12.25 8.0015 12.25C8.53207 12.25 9.0409 12.0392 9.41607 11.6641C9.79123 11.2889 10.002 10.7801 10.002 10.2495V7.125C10.002 7.02554 9.96249 6.93016 9.89217 6.85984C9.82184 6.78951 9.72646 6.75 9.627 6.75ZM3.125 6H5.203C5.00226 6.20901 4.8612 6.46799 4.7945 6.75H3.125C3.02554 6.75 2.93016 6.78951 2.85984 6.85984C2.78951 6.93016 2.75 7.02554 2.75 7.125V9.7495C2.74993 10.0004 2.81277 10.2473 2.93276 10.4676C3.05276 10.6879 3.22608 10.8746 3.43687 11.0107C3.64766 11.1467 3.8892 11.2277 4.13939 11.2463C4.38957 11.2649 4.64043 11.2204 4.869 11.117C4.9355 11.362 5.031 11.595 5.151 11.813C4.80843 11.9626 4.43401 12.0245 4.06153 11.9931C3.68906 11.9617 3.33027 11.838 3.01756 11.6332C2.70486 11.4284 2.44808 11.149 2.27043 10.8201C2.09277 10.4912 1.99983 10.1233 2 9.7495V7.125C2 6.82663 2.11853 6.54048 2.32951 6.3295C2.54048 6.11853 2.82663 6 3.125 6ZM12.875 6C13.1734 6 13.4595 6.11853 13.6705 6.3295C13.8815 6.54048 14 6.82663 14 7.125V9.75C14.0002 10.1236 13.9073 10.4913 13.7298 10.82C13.5522 11.1487 13.2957 11.4281 12.9832 11.6328C12.6707 11.8376 12.3122 11.9613 11.94 11.9929C11.5677 12.0244 11.1935 11.9628 10.851 11.8135L10.879 11.7625C10.986 11.5595 11.0725 11.344 11.1345 11.118C11.3629 11.2208 11.6135 11.2647 11.8633 11.2458C12.1131 11.2269 12.3542 11.1457 12.5645 11.0097C12.7749 10.8737 12.9478 10.6871 13.0676 10.4671C13.1873 10.247 13.25 10.0005 13.25 9.75V7.125C13.25 7.02563 13.2106 6.93032 13.1403 6.86001C13.0701 6.7897 12.9749 6.75013 12.8755 6.75H11.209C11.1422 6.46793 11.0009 6.20893 10.8 6H12.875ZM8 2C8.22981 2 8.45738 2.04527 8.6697 2.13321C8.88202 2.22116 9.07493 2.35006 9.23744 2.51256C9.39994 2.67507 9.52884 2.86798 9.61679 3.0803C9.70473 3.29262 9.75 3.52019 9.75 3.75C9.75 3.97981 9.70473 4.20738 9.61679 4.4197C9.52884 4.63202 9.39994 4.82493 9.23744 4.98744C9.07493 5.14994 8.88202 5.27884 8.6697 5.36679C8.45738 5.45474 8.22981 5.5 8 5.5C7.53587 5.5 7.09075 5.31563 6.76256 4.98744C6.43437 4.65925 6.25 4.21413 6.25 3.75C6.25 3.28587 6.43437 2.84075 6.76256 2.51256C7.09075 2.18437 7.53587 2 8 2ZM12.0015 2.5C12.1985 2.5 12.3935 2.5388 12.5755 2.61418C12.7575 2.68956 12.9229 2.80005 13.0622 2.93934C13.2014 3.07863 13.3119 3.24399 13.3873 3.42597C13.4627 3.60796 13.5015 3.80302 13.5015 4C13.5015 4.19698 13.4627 4.39204 13.3873 4.57403C13.3119 4.75601 13.2014 4.92137 13.0622 5.06066C12.9229 5.19995 12.7575 5.31044 12.5755 5.38582C12.3935 5.4612 12.1985 5.5 12.0015 5.5C11.6037 5.5 11.2221 5.34196 10.9408 5.06066C10.6595 4.77936 10.5015 4.39782 10.5015 4C10.5015 3.60218 10.6595 3.22064 10.9408 2.93934C11.2221 2.65804 11.6037 2.5 12.0015 2.5ZM3.9985 2.5C4.19548 2.5 4.39054 2.5388 4.57253 2.61418C4.75451 2.68956 4.91987 2.80005 5.05916 2.93934C5.19845 3.07863 5.30894 3.24399 5.38432 3.42597C5.4597 3.60796 5.4985 3.80302 5.4985 4C5.4985 4.19698 5.4597 4.39204 5.38432 4.57403C5.30894 4.75601 5.19845 4.92137 5.05916 5.06066C4.91987 5.19995 4.75451 5.31044 4.57253 5.38582C4.39054 5.4612 4.19548 5.5 3.9985 5.5C3.60068 5.5 3.21914 5.34196 2.93784 5.06066C2.65654 4.77936 2.4985 4.39782 2.4985 4C2.4985 3.60218 2.65654 3.22064 2.93784 2.93934C3.21914 2.65804 3.60068 2.5 3.9985 2.5ZM8 2.75C7.73478 2.75 7.48043 2.85536 7.29289 3.04289C7.10536 3.23043 7 3.48478 7 3.75C7 4.01522 7.10536 4.26957 7.29289 4.45711C7.48043 4.64464 7.73478 4.75 8 4.75C8.26522 4.75 8.51957 4.64464 8.70711 4.45711C8.89464 4.26957 9 4.01522 9 3.75C9 3.48478 8.89464 3.23043 8.70711 3.04289C8.51957 2.85536 8.26522 2.75 8 2.75ZM12.0015 3.25C11.903 3.25 11.8055 3.2694 11.7145 3.30709C11.6235 3.34478 11.5408 3.40003 11.4712 3.46967C11.4015 3.53931 11.3463 3.62199 11.3086 3.71299C11.2709 3.80398 11.2515 3.90151 11.2515 4C11.2515 4.09849 11.2709 4.19602 11.3086 4.28701C11.3463 4.37801 11.4015 4.46069 11.4712 4.53033C11.5408 4.59997 11.6235 4.65522 11.7145 4.69291C11.8055 4.7306 11.903 4.75 12.0015 4.75C12.2004 4.75 12.3912 4.67098 12.5318 4.53033C12.6725 4.38968 12.7515 4.19891 12.7515 4C12.7515 3.80109 12.6725 3.61032 12.5318 3.46967C12.3912 3.32902 12.2004 3.25 12.0015 3.25ZM3.9985 3.25C3.90001 3.25 3.80248 3.2694 3.71149 3.30709C3.62049 3.34478 3.53781 3.40003 3.46817 3.46967C3.39853 3.53931 3.34328 3.62199 3.30559 3.71299C3.2679 3.80398 3.2485 3.90151 3.2485 4C3.2485 4.09849 3.2679 4.19602 3.30559 4.28701C3.34328 4.37801 3.39853 4.46069 3.46817 4.53033C3.53781 4.59997 3.62049 4.65522 3.71149 4.69291C3.80248 4.7306 3.90001 4.75 3.9985 4.75C4.19741 4.75 4.38818 4.67098 4.52883 4.53033C4.66948 4.38968 4.7485 4.19891 4.7485 4C4.7485 3.80109 4.66948 3.61032 4.52883 3.46967C4.38818 3.32902 4.19741 3.25 3.9985 3.25Z" fill="#30C07B"/>
</svg>
