<svg width="18" height="18" viewBox="0 0 18 18" fill="none" xmlns="http://www.w3.org/2000/svg">
<path d="M7.91567 4.49051L5.37842 1.67938C5.08592 1.35544 4.54967 1.35688 4.20992 1.6837L2.12342 3.69001C1.50242 4.28679 1.32467 5.17296 1.68392 5.88348C3.83014 10.1487 7.41396 13.5934 11.8547 15.6594C12.5942 16.0043 13.5167 15.8336 14.1377 15.2369L16.2437 13.2118C16.5849 12.8843 16.5857 12.3667 16.2452 12.086L13.3052 9.66356C12.9977 9.41017 12.5199 9.44328 12.2117 9.73987L11.1887 10.7232C11.1363 10.7759 11.0674 10.8106 10.9924 10.8221C10.9175 10.8335 10.8407 10.8211 10.7739 10.7866C9.10176 9.86232 7.71467 8.5292 6.75392 6.92298C6.71794 6.85874 6.70492 6.78493 6.71684 6.71289C6.72876 6.64085 6.76497 6.57456 6.81992 6.52417L7.83992 5.54442C8.14892 5.24639 8.18267 4.78566 7.91567 4.48979V4.49051Z" stroke="white" stroke-width="2" stroke-linecap="round" stroke-linejoin="round"/>
</svg>
