<svg width="16" height="16" viewBox="0 0 16 16" fill="none" xmlns="http://www.w3.org/2000/svg">
<path fill-rule="evenodd" clip-rule="evenodd" d="M0.998213 8.99874C0.732997 8.99874 0.478642 8.89338 0.291106 8.70584C0.103569 8.51831 -0.0017866 8.26395 -0.00178657 7.99874C-0.00178655 7.73352 0.10357 7.47917 0.291106 7.29163C0.478642 7.10409 0.732997 6.99874 0.998214 6.99874L12.5842 6.99874L8.29021 2.70674C8.19724 2.61376 8.12348 2.50339 8.07317 2.38191C8.02285 2.26043 7.99695 2.13023 7.99695 1.99874C7.99695 1.86725 8.02285 1.73705 8.07317 1.61557C8.12348 1.49409 8.19724 1.38372 8.29021 1.29074C8.38319 1.19776 8.49357 1.12401 8.61505 1.07369C8.73653 1.02337 8.86673 0.997477 8.99821 0.997477C9.1297 0.997477 9.2599 1.02337 9.38138 1.07369C9.50286 1.12401 9.61324 1.19776 9.70621 1.29074L15.7062 7.29074C15.7993 7.38363 15.8732 7.49398 15.9236 7.61547C15.9741 7.73696 16 7.8672 16 7.99874C16 8.13027 15.9741 8.26052 15.9236 8.38201C15.8732 8.5035 15.7993 8.61385 15.7062 8.70674L9.70621 14.7067C9.51844 14.8945 9.26376 15 8.99821 15C8.73266 15 8.47799 14.8945 8.29021 14.7067C8.10244 14.519 7.99695 14.2643 7.99695 13.9987C7.99695 13.7332 8.10244 13.4785 8.29021 13.2907L12.5842 8.99874L0.998213 8.99874Z" fill="var(--off-white)"/>
</svg>
