<svg width="18" height="18" viewBox="0 0 18 18" fill="none" xmlns="http://www.w3.org/2000/svg">
<path d="M15.75 3.24219H2.25C1.95163 3.24219 1.66548 3.35595 1.4545 3.55846C1.24353 3.76096 1.125 4.03562 1.125 4.32201V12.9606C1.125 13.2469 1.24353 13.5216 1.4545 13.7241C1.66548 13.9266 1.95163 14.0404 2.25 14.0404H15.75C16.0484 14.0404 16.3345 13.9266 16.5455 13.7241C16.7565 13.5216 16.875 13.2469 16.875 12.9606V4.32201C16.875 4.03562 16.7565 3.76096 16.5455 3.55846C16.3345 3.35595 16.0484 3.24219 15.75 3.24219ZM13.5 4.80193L9 7.98259L4 4.81332L13.5 4.80193ZM2.5 12.4806V5.28185L8.67938 9.55253C8.77354 9.61523 8.8854 9.64882 9 9.64882C9.1146 9.64882 9.22647 9.61523 9.32063 9.55253L15.5 5.28185V12.4806H2.5Z" fill="white"/>
</svg>
