<svg width="312" height="444" viewBox="0 0 312 444" fill="none" xmlns="http://www.w3.org/2000/svg">
<path fill-rule="evenodd" clip-rule="evenodd" d="M278.893 205.446C278.893 190.547 277.451 190.531 262.253 190.531H155.423C140.241 190.531 138.752 190.547 138.752 205.446H153.855V252.195L106.121 416.436C106.121 431.367 118.435 443.452 133.633 443.452H284.012C299.194 443.452 311.524 431.367 311.524 416.436L264.171 251.718L263.949 205.446H278.893ZM295.502 406.386C299.796 420.443 292.285 429.204 272.808 429.204H146.422C124.219 429.204 118.768 419.775 123.728 406.386L167.88 252.911L167.705 205.001H248.925V252.529L295.502 406.386Z" fill="#F0F0F0"/>
<path fill-rule="evenodd" clip-rule="evenodd" d="M233.195 285.938H185.335L156.207 386.241C150.581 404.527 152.403 411.428 178.52 411.428H239.994C265.873 411.428 266.46 403.191 262.323 386.241L233.195 285.938Z" fill="#F0F0F0"/>
<path d="M187.716 55.141L135.165 2.19288C134.514 1.53729 133.742 1.01723 132.891 0.662426C132.041 0.307618 131.13 0.125 130.21 0.125C129.29 0.125 128.379 0.307618 127.528 0.662426C126.678 1.01723 125.906 1.53729 125.255 2.19288L34.2118 93.9246L34.2013 93.9343L11.3941 116.914C4.08028 124.331 -0.0169812 134.368 5.29015e-05 144.823C0.017087 155.279 4.14703 165.302 11.4849 172.695C18.8229 180.088 28.7703 184.249 39.1477 184.266C49.525 184.284 59.486 180.155 66.848 172.786L135.119 104L135.131 103.988L165.525 73.3631L184.977 66.8302C186.11 66.4496 187.128 65.7836 187.934 64.8953C188.739 64.007 189.306 62.926 189.581 61.7548C189.855 60.5837 189.828 59.3613 189.501 58.2037C189.175 57.0462 188.56 55.9919 187.716 55.141ZM159.525 60.4958C158.493 60.8423 157.555 61.426 156.786 62.2007L125.607 93.6149C123.726 94.9562 109.934 103.799 87.7993 92.6477C78.1658 87.7941 69.5719 85.9144 62.2401 85.6515L130.21 17.1693L169.79 57.048L159.525 60.4958Z" fill="#F0F0F0"/>
</svg>
