<svg width="20" height="20" viewBox="0 0 20 20" fill="none" xmlns="http://www.w3.org/2000/svg">
<path d="M5.7365 14.0033C5.61646 14.1242 5.41937 14.1214 5.3097 13.991C3.25936 11.5541 3.36855 7.90624 5.64455 5.61378C6.50288 4.74548 7.60142 4.15749 8.79552 3.92337C8.94488 3.89409 9.05474 3.7631 9.04968 3.61098L9.00041 2.12789C8.99457 1.95202 8.83919 1.81844 8.66548 1.84656C6.97066 2.12092 5.40342 2.92671 4.19255 4.15178C1.11232 7.25255 1.00869 12.2181 3.87323 15.4677C3.98037 15.5893 3.97882 15.7741 3.86462 15.889L2.80009 16.9603C2.61753 17.144 2.73791 17.4571 2.99653 17.4713L7.52137 17.7185C7.69353 17.7279 7.83817 17.5906 7.83773 17.4181L7.82541 12.627C7.82472 12.3596 7.50097 12.2266 7.31255 12.4163L5.7365 14.0033ZM12.4807 2.28305C12.3085 2.27368 12.1639 2.41098 12.1644 2.58338L12.1767 7.37483C12.1774 7.6422 12.5011 7.77517 12.6895 7.58551L14.2655 5.99925C14.3856 5.87839 14.5827 5.88127 14.6923 6.01168C16.7427 8.45037 16.6336 12.0982 14.3575 14.3888C13.4994 15.2573 12.4008 15.8453 11.2066 16.0792C11.0573 16.1085 10.9474 16.2395 10.9524 16.3916L11.0017 17.8736C11.0075 18.0495 11.1629 18.1831 11.3367 18.155C13.0315 17.8804 14.5989 17.0751 15.8105 15.8508C18.8898 12.7481 18.9934 7.78247 16.1289 4.53473C16.0217 4.41324 16.0232 4.22846 16.1373 4.11349L17.2025 3.04033C17.3849 2.85655 17.2645 2.54351 17.0059 2.52943L12.4807 2.28305Z" fill="#1B1B2D"/>
</svg>
