<svg width="500" height="600" viewBox="0 0 500 600" fill="none" xmlns="http://www.w3.org/2000/svg">
<path d="M400 510V600H340V510C340 477 313 450 280 450H190C106 450 40 384 40 300C40 264 52 234 73 207C4 195 -50 132 -50 60C-50 39 -44 18 -38 0H34C19 15 10 36 10 60C10 111 49 150 100 150H190V210C139 210 100 249 100 300C100 351 139 390 190 390H280C346 390 400 444 400 510ZM427 207C496 195 550 132 550 60C550 39 544 18 538 0H466C481 15 490 36 490 60C490 111 451 150 400 150H364C367 159 370 168 370 180C370 231 331 270 280 270V330C364 330 430 396 430 480V600H490V480C490 399 445 330 376 294C403 273 421 243 427 207Z" fill="#F0F0F0"/>
</svg>
