<svg width="148" height="18" viewBox="0 0 148 18" fill="none" xmlns="http://www.w3.org/2000/svg">
<path d="M36 17.7744H47.8809V14.7159H39.356V10.2535H47.1215V7.19499H39.356V3.30919H47.8809V0.225627H36V17.7744Z" fill="white"/>
<path d="M55.5815 17.7744H59.5009L65.6251 0.476323V0.225627H61.8036L57.5657 13.5877H57.4677L53.1808 0.225627H49.4083V0.476323L55.5815 17.7744Z" fill="white"/>
<path d="M74.6106 18C80.0489 18 82.719 14.0139 82.719 9C82.719 3.961 80.0489 0 74.6106 0C69.1478 0 66.5022 3.961 66.5022 9C66.5022 14.0139 69.1478 18 74.6106 18ZM74.6106 14.8663C71.426 14.8663 69.9317 12.5348 69.9317 9C69.9317 5.46518 71.4015 3.13371 74.6106 3.13371C77.7952 3.13371 79.2895 5.46518 79.2895 9C79.2895 12.5348 77.7952 14.8663 74.6106 14.8663Z" fill="white"/>
<path d="M85.6154 17.7744H88.9714V11.7577H92.9644C96.4184 11.7577 98.6231 9.30084 98.6231 5.9415C98.6231 2.68245 96.4674 0.225627 92.9644 0.225627H85.6154V17.7744ZM88.9714 8.6741V3.28412H92.3519C94.1402 3.28412 95.1936 4.23677 95.1936 5.9415C95.1936 7.77159 94.2137 8.6741 92.3519 8.6741H88.9714Z" fill="white"/>
<path d="M108.546 0.225627H104.284L98.2821 17.5237V17.7744H101.81L102.985 14.0891H109.698L110.873 17.7744H114.572V17.5237L108.546 0.225627ZM103.965 11.0557L106.292 3.73538H106.39L108.718 11.0557H103.965Z" fill="white"/>
<path d="M123.675 18C127.962 18 130.681 15.1671 131.049 11.5571H127.644C127.325 13.4123 126.125 14.8914 123.675 14.8914C120.515 14.8914 119.021 12.5599 119.021 9.02507C119.021 5.49025 120.515 3.13371 123.675 3.13371C126.223 3.13371 127.448 4.73816 127.619 6.61838H131.049C130.779 2.90808 127.987 0 123.675 0C118.335 0 115.591 3.86073 115.591 9.02507C115.591 14.1142 118.335 18 123.675 18Z" fill="white"/>
<path d="M140.259 8.62396L147.731 0.476323V0.225627H143.787L137.295 7.3454V0.225627H133.939V17.7744H137.295V9.97772L144.007 17.7744H148V17.5237L140.259 8.62396Z" fill="white"/>
<path fill-rule="evenodd" clip-rule="evenodd" d="M21.0617 12.6005L24.469 15.9035H30.8522V2.09654H24.7054L18.3222 8.38618L16.6673 6.75553L23.8661 0H33V18H23.5233L14.1842 8.74492L7.42533 2.09654H2.12774V15.9035H7.32887L11.8208 11.4674L10.7569 10.4827L14.5395 10.2498L14.4339 13.977L13.3575 12.9816L8.27453 18H0V0H8.27453L21.0617 12.6005Z" fill="#30C07B"/>
</svg>
