<svg width="146" height="32" viewBox="0 0 146 32" fill="none" xmlns="http://www.w3.org/2000/svg">
<g clip-path="url(#clip0_987_13176)">
<path fill-rule="evenodd" clip-rule="evenodd" d="M19.7266 18.8445L22.9179 21.9841H28.8964V8.86004H23.1393L17.1607 14.8386L15.6107 13.2886L22.3532 6.86719H30.9081V23.977H22.0321L13.285 15.1796L6.95463 8.86004H1.99286V21.9841H6.86429L11.0714 17.7675L10.075 16.8315L13.6179 16.61L13.5189 20.1529L12.5107 19.2067L7.75 23.977H0V6.86719H7.75L19.7266 18.8445Z" fill="#30C07B"/>
</g>
<path d="M35.896 24H47.536V21.072H39.184V16.8H46.792V13.872H39.184V10.152H47.536V7.2H35.896V24ZM55.0804 24H58.9204L64.9204 7.44V7.2H61.1764L57.0244 19.992H56.9284L52.7284 7.2H49.0324V7.44L55.0804 24ZM73.7238 24.216C79.0518 24.216 81.6678 20.4 81.6678 15.6C81.6678 10.776 79.0518 6.984 73.7238 6.984C68.3717 6.984 65.7798 10.776 65.7798 15.6C65.7798 20.4 68.3717 24.216 73.7238 24.216ZM73.7238 21.216C70.6038 21.216 69.1398 18.984 69.1398 15.6C69.1398 12.216 70.5798 9.984 73.7238 9.984C76.8438 9.984 78.3078 12.216 78.3078 15.6C78.3078 18.984 76.8438 21.216 73.7238 21.216ZM84.5054 24H87.7934V18.24H91.7054C95.0894 18.24 97.2494 15.888 97.2494 12.672C97.2494 9.552 95.1374 7.2 91.7054 7.2H84.5054V24ZM87.7934 15.288V10.128H91.1054C92.8574 10.128 93.8894 11.04 93.8894 12.672C93.8894 14.424 92.9294 15.288 91.1054 15.288H87.7934ZM106.971 7.2H102.795L96.9153 23.76V24H100.371L101.523 20.472H108.099L109.251 24H112.875V23.76L106.971 7.2ZM102.483 17.568L104.763 10.56H104.859L107.139 17.568H102.483ZM121.794 24.216C125.994 24.216 128.658 21.504 129.018 18.048H125.682C125.37 19.824 124.194 21.24 121.794 21.24C118.698 21.24 117.234 19.008 117.234 15.624C117.234 12.24 118.698 9.984 121.794 9.984C124.29 9.984 125.49 11.52 125.658 13.32H129.018C128.754 9.768 126.018 6.984 121.794 6.984C116.562 6.984 113.874 10.68 113.874 15.624C113.874 20.496 116.562 24.216 121.794 24.216ZM138.041 15.24L145.361 7.44V7.2H141.497L135.137 14.016V7.2H131.849V24H135.137V16.536L141.713 24H145.625V23.76L138.041 15.24Z" fill="#1B1B2D"/>
<defs>
<clipPath id="clip0_987_13176">
<rect width="31" height="31" fill="white"/>
</clipPath>
</defs>
</svg>
