<svg width="18" height="18" viewBox="0 0 18 18" fill="none" xmlns="http://www.w3.org/2000/svg">
<path d="M4.5 3C4.10218 3 3.72064 3.15804 3.43934 3.43934C3.15804 3.72064 3 4.10218 3 4.5V13.5C3 13.8978 3.15804 14.2794 3.43934 14.5607C3.72064 14.842 4.10218 15 4.5 15H6C6.39782 15 6.77936 14.842 7.06066 14.5607C7.34196 14.2794 7.5 13.8978 7.5 13.5V4.5C7.5 4.10218 7.34196 3.72064 7.06066 3.43934C6.77936 3.15804 6.39782 3 6 3H4.5Z" fill="white"/>
<path d="M12 3C11.6022 3 11.2206 3.15804 10.9393 3.43934C10.658 3.72064 10.5 4.10218 10.5 4.5V13.5C10.5 13.8978 10.658 14.2794 10.9393 14.5607C11.2206 14.842 11.6022 15 12 15H13.5C13.8978 15 14.2794 14.842 14.5607 14.5607C14.842 14.2794 15 13.8978 15 13.5V4.5C15 4.10218 14.842 3.72064 14.5607 3.43934C14.2794 3.15804 13.8978 3 13.5 3H12Z" fill="white"/>
</svg>
