<?xml version="1.0" standalone="no"?>
<!DOCTYPE svg PUBLIC "-//W3C//DTD SVG 20010904//EN"
 "http://www.w3.org/TR/2001/REC-SVG-20010904/DTD/svg10.dtd">
<svg version="1.0" xmlns="http://www.w3.org/2000/svg"
 width="343.000000pt" height="343.000000pt" viewBox="0 0 343.000000 343.000000"
 preserveAspectRatio="xMidYMid meet">
<metadata>
Created by potrace 1.14, written by Peter Selinger 2001-2017
</metadata>
<g transform="translate(0.000000,343.000000) scale(0.100000,-0.100000)"
fill="#000000" stroke="none">
<path d="M0 1715 l0 -945 430 0 430 0 260 260 c144 143 264 260 268 260 4 0
29 -20 56 -45 27 -25 51 -43 53 -41 8 8 14 388 6 383 -5 -3 -67 -9 -138 -13
-72 -4 -141 -8 -155 -9 -14 -1 -41 -3 -60 -4 l-35 -1 58 -52 57 -51 -234 -234
-234 -233 -271 0 -271 0 0 725 1 725 277 0 277 0 835 -835 835 -835 493 0 492
0 0 945 0 945 -473 0 c-443 0 -475 -1 -495 -18 -11 -10 -96 -90 -189 -178 -92
-89 -208 -199 -257 -245 -49 -46 -132 -125 -185 -176 l-96 -92 85 -85 85 -86
330 330 330 330 321 0 320 0 0 -725 0 -725 -331 0 -331 0 -135 131 c-73 72
-452 448 -841 835 l-707 704 -431 0 -430 0 0 -945z"/>
</g>
</svg>
