<svg width="16" height="16" viewBox="0 0 16 16" fill="none" xmlns="http://www.w3.org/2000/svg">
<path d="M7.88301 1.01267C7.84898 1.02206 7.80204 1.03848 7.77858 1.05139C7.64833 1.1171 6.16051 1.97952 6.11123 2.01707C6.03848 2.07222 5.97629 2.16139 5.94109 2.25878C5.90472 2.36556 5.91176 2.52631 5.95869 2.62839C6.04904 2.82317 6.21918 2.93464 6.42921 2.93347C6.48318 2.93347 6.55359 2.92525 6.58409 2.91469C6.61577 2.90531 6.8305 2.78797 7.06048 2.65538C7.29046 2.52162 7.48289 2.41249 7.48641 2.41249C7.48993 2.41249 7.49462 2.7469 7.49697 3.15523L7.50049 3.89797L7.54508 3.98949C7.60257 4.11152 7.68001 4.18896 7.795 4.24411C8.05432 4.36732 8.34883 4.26406 8.47673 4.00475L8.52366 3.91088L8.52718 3.16697C8.52953 2.52983 8.53305 2.42423 8.5483 2.43009C8.55769 2.43361 8.63865 2.47937 8.729 2.531C8.81935 2.5838 8.97071 2.67063 9.06458 2.72461C9.15963 2.77858 9.25584 2.8349 9.28048 2.85016C9.40134 2.92643 9.54214 2.95341 9.67239 2.92525C9.78737 2.90178 9.86951 2.8572 9.94695 2.77506C10.1382 2.57207 10.1359 2.25526 9.94109 2.06166C9.8789 1.99947 9.83783 1.976 8.72665 1.33652C8.52718 1.22153 8.34062 1.11241 8.31246 1.09363C8.1916 1.0115 8.0156 0.978643 7.88301 1.01267Z" fill="#30C07B"/>
<path d="M3.95953 3.30051C3.92902 3.3052 3.88796 3.31576 3.86801 3.32397C3.84924 3.33101 3.51483 3.52345 3.12527 3.75108C2.73454 3.97754 2.37549 4.18288 2.32621 4.20752C2.27576 4.23098 2.2077 4.27557 2.17367 4.30608C2.09858 4.37296 2.02935 4.50438 2.01175 4.61233C1.99532 4.71441 1.9965 6.47328 2.01292 6.57654C2.04343 6.76076 2.16194 6.90977 2.33325 6.97665C2.5867 7.07639 2.873 6.96257 2.98916 6.71617L3.02905 6.63286L3.03258 6.11189C3.03375 5.82558 3.03727 5.59091 3.03962 5.59091C3.04196 5.59091 3.30362 5.74462 3.6216 5.93236C3.93958 6.1201 4.23527 6.28672 4.27986 6.30314C4.34792 6.32896 4.37608 6.33248 4.46994 6.32778C4.56264 6.32426 4.59432 6.31722 4.6612 6.28554C4.70579 6.26442 4.76798 6.22453 4.79966 6.19637C4.87123 6.13183 4.94046 5.99924 4.95806 5.88895C4.9827 5.73054 4.92169 5.55336 4.80435 5.44776C4.76329 5.41021 4.51805 5.25885 4.15196 5.04413C3.82929 4.85521 3.56763 4.69681 3.57115 4.69212C3.5735 4.68742 3.75185 4.58182 3.96657 4.45744C4.3972 4.20634 4.44765 4.16762 4.51571 4.03034C4.55443 3.95172 4.55677 3.93999 4.55677 3.81092C4.55677 3.67833 4.5556 3.67246 4.50984 3.58094C4.43474 3.42958 4.30567 3.33219 4.13788 3.30051C4.05809 3.28643 4.03932 3.28643 3.95953 3.30051Z" fill="#30C07B"/>
<path d="M11.8444 3.30362C11.6848 3.34 11.5581 3.44091 11.4853 3.58992C11.4454 3.67089 11.4431 3.68262 11.4431 3.80465C11.4431 3.97127 11.4712 4.04519 11.5733 4.15314C11.6355 4.22002 11.6965 4.25992 12.0391 4.45704C12.2562 4.58259 12.4346 4.68819 12.4346 4.69171C12.4346 4.69641 12.1706 4.85364 11.8479 5.04372C11.5252 5.23263 11.2342 5.41216 11.2014 5.44149C11.1615 5.47669 11.1263 5.5248 11.0958 5.58816C11.05 5.67968 11.0488 5.68555 11.0488 5.81814C11.0488 5.94604 11.0512 5.96012 11.0887 6.03756C11.1392 6.14434 11.2237 6.22882 11.3328 6.28162C11.4044 6.31565 11.436 6.32386 11.5252 6.32738C11.598 6.33207 11.6508 6.32738 11.6977 6.3133C11.7376 6.30157 11.9946 6.15842 12.3618 5.94252L12.9591 5.59051L12.9649 6.10562C12.9708 6.55736 12.9743 6.62659 12.9931 6.6747C13.1292 7.02201 13.5657 7.12527 13.832 6.87299C13.8672 6.83897 13.9118 6.78382 13.9294 6.75096C13.9998 6.62189 13.9998 6.63011 13.9998 5.61046C13.9998 5.0754 13.9951 4.64243 13.9881 4.60136C13.9717 4.50515 13.9271 4.41011 13.8649 4.34205C13.8121 4.28573 13.7194 4.22002 13.6713 4.20594C13.656 4.20125 13.3158 4.0053 12.9133 3.77062C12.5108 3.53595 12.1565 3.33413 12.1248 3.3224C12.0474 3.29306 11.9265 3.28485 11.8444 3.30362Z" fill="#30C07B"/>
<path d="M6.28154 6.4835C5.97764 6.57972 5.82745 6.91999 5.96474 7.20395C6.03162 7.34358 6.07386 7.37291 6.81073 7.79297L7.48893 8.17901L7.4948 8.9945C7.50067 9.80529 7.50067 9.81116 7.52883 9.87804C7.58984 10.0282 7.71422 10.142 7.86793 10.189C8.11434 10.2629 8.3713 10.1456 8.48395 9.9062L8.52384 9.82289L8.52736 9.00271L8.53088 8.18253L9.19735 7.79532C9.56696 7.5806 9.88964 7.38464 9.92366 7.35531C9.99524 7.29077 10.0645 7.15818 10.0821 7.05141C10.1173 6.83551 9.99289 6.60788 9.7899 6.51166C9.68078 6.46121 9.52237 6.45065 9.41677 6.48702C9.37922 6.49875 9.05185 6.68297 8.68811 6.89418C8.32437 7.10538 8.02047 7.27904 8.01225 7.27904C8.00404 7.27904 7.69427 7.10538 7.32349 6.89418C6.95388 6.68297 6.62299 6.49993 6.58897 6.48819C6.51622 6.46238 6.35429 6.46003 6.28154 6.4835Z" fill="#30C07B"/>
<path d="M2.38136 8.77399C2.19597 8.82444 2.0446 8.99693 2.01175 9.1964C1.99532 9.29731 1.9965 11.0562 2.01292 11.1594C2.01996 11.2029 2.04108 11.2686 2.05868 11.3049C2.12439 11.4399 2.15138 11.4598 2.70638 11.7907C2.99268 11.9608 3.34234 12.1697 3.48432 12.2554C3.62747 12.3398 3.78235 12.429 3.82929 12.4537C3.9126 12.4947 3.92081 12.4971 4.05105 12.4971C4.1813 12.4971 4.19068 12.4947 4.27282 12.4548C4.38194 12.4009 4.46056 12.3222 4.51453 12.2131C4.55443 12.131 4.55677 12.1216 4.55677 11.9914C4.55677 11.8588 4.5556 11.8529 4.50984 11.7614C4.47933 11.698 4.44413 11.6499 4.40541 11.6159C4.37373 11.5877 4.16252 11.454 3.93606 11.3202C3.71078 11.1864 3.52656 11.0726 3.52656 11.0679C3.52656 11.0632 3.79409 10.8989 4.12146 10.7042C4.77737 10.3134 4.81961 10.2829 4.88649 10.141C4.92404 10.0623 4.92638 10.0494 4.92638 9.92154C4.92638 9.80068 4.92286 9.77839 4.89353 9.71855C4.82665 9.57657 4.72104 9.48153 4.57789 9.43459C4.47581 9.40057 4.31623 9.40409 4.22823 9.44398C4.19655 9.45806 3.92316 9.61764 3.62043 9.79834C3.31888 9.97903 3.06308 10.1292 3.0537 10.1327C3.03844 10.1386 3.03492 10.0647 3.03258 9.63641L3.02906 9.13304L2.99503 9.06264C2.95748 8.9805 2.85774 8.87021 2.78382 8.82679C2.67235 8.76108 2.50808 8.73996 2.38136 8.77399Z" fill="#30C07B"/>
<path d="M13.3228 8.78033C13.1738 8.82961 13.0506 8.94577 12.9919 9.09479C12.9743 9.1382 12.9708 9.21916 12.9649 9.64862L12.9591 10.1508L12.363 9.80115C12.0274 9.60285 11.7388 9.4421 11.7 9.4292C11.5933 9.39634 11.4419 9.4069 11.3351 9.45736C11.2284 9.50781 11.1392 9.59581 11.0887 9.70376C11.0512 9.78238 11.0488 9.79411 11.0488 9.92788C11.0488 10.0605 11.0512 10.0757 11.0852 10.1438C11.1544 10.2858 11.2037 10.321 11.8596 10.7046C12.1893 10.8982 12.4592 11.059 12.4592 11.0613C12.4592 11.0649 12.2726 11.1763 12.0462 11.3078C11.5897 11.5729 11.551 11.6034 11.483 11.7489C11.4149 11.8956 11.4243 12.0869 11.5064 12.2277C11.5839 12.3603 11.7505 12.4635 11.9077 12.4752C12.0755 12.4882 12.0743 12.4882 12.9696 11.966C13.5551 11.6246 13.8004 11.4755 13.8438 11.4333C13.913 11.3664 13.9705 11.2573 13.9881 11.1587C13.9963 11.113 13.9998 10.7527 13.9975 10.1297C13.994 9.23794 13.9916 9.16636 13.9717 9.10887C13.92 8.96806 13.8039 8.84603 13.6678 8.79323C13.5739 8.75569 13.4143 8.74982 13.3228 8.78033Z" fill="#30C07B"/>
<path d="M7.8547 11.4991C7.74792 11.5319 7.61181 11.6446 7.56253 11.7396C7.49917 11.8616 7.50151 11.8323 7.49447 12.6231L7.48861 13.3647L7.06385 13.1195C6.83035 12.9845 6.60976 12.866 6.57338 12.8543C6.46778 12.8214 6.31524 12.8332 6.20964 12.8825C6.10286 12.9329 6.01369 13.0209 5.96323 13.1289C5.92569 13.2075 5.92334 13.2192 5.92334 13.353C5.92334 13.4856 5.92569 13.5008 5.95971 13.5689C6.03246 13.7179 6.0571 13.7343 6.95825 14.2529C7.41234 14.5134 7.81128 14.7364 7.84531 14.7481C7.92979 14.7774 8.07529 14.7763 8.17033 14.7469C8.2114 14.734 8.27711 14.7023 8.31583 14.6754C8.35572 14.6495 8.71946 14.4372 9.12545 14.2037C9.55607 13.9549 9.88813 13.7566 9.92333 13.7249C9.96323 13.6897 9.99843 13.6405 10.0289 13.5783C10.0747 13.4867 10.0759 13.4809 10.0759 13.3483C10.0759 13.2204 10.0735 13.2063 10.036 13.1289C9.98552 13.0221 9.90104 12.9376 9.79192 12.8848C9.68514 12.8344 9.53612 12.8203 9.427 12.8531C9.39063 12.8637 9.17708 12.9787 8.94827 13.1113L8.53525 13.3495L8.52938 12.6091C8.52351 11.8886 8.52234 11.8675 8.49653 11.8041C8.43786 11.6622 8.30879 11.5413 8.16916 11.4991C8.09289 11.4768 7.92627 11.4768 7.8547 11.4991Z" fill="#30C07B"/>
</svg>
