<svg width="16" height="16" viewBox="0 0 16 16" fill="none" xmlns="http://www.w3.org/2000/svg">
<path fill-rule="evenodd" clip-rule="evenodd" d="M11.9524 7.59292C11.9524 7.11477 11.9061 7.11426 11.4184 7.11426H7.98994C7.50271 7.11426 7.4549 7.11477 7.4549 7.59292H7.93959V9.09319L6.40771 14.3641C6.40771 14.8432 6.80289 15.2311 7.29063 15.2311H12.1166C12.6039 15.2311 12.9996 14.8432 12.9996 14.3641L11.4799 9.07788L11.4728 7.59292H11.9524V7.59292ZM12.4854 14.0415C12.6232 14.4927 12.3821 14.7738 11.7571 14.7738H7.70106C6.98853 14.7738 6.81357 14.4712 6.97276 14.0415L8.38969 9.11616L8.3841 7.57863H10.9906V9.10391L12.4854 14.0415V14.0415Z" fill="#1B1B2D"/>
<path fill-rule="evenodd" clip-rule="evenodd" d="M10.4855 10.1787H8.94955L8.01476 13.3977C7.83421 13.9845 7.8927 14.206 8.73086 14.206H10.7037C11.5342 14.206 11.553 13.9416 11.4203 13.3977L10.4855 10.1787V10.1787Z" fill="#1B1B2D"/>
<path d="M9.02424 2.76559L7.33775 1.06636C7.31687 1.04532 7.29208 1.02863 7.26479 1.01725C7.23751 1.00586 7.20827 1 7.17874 1C7.14921 1 7.11997 1.00586 7.09268 1.01725C7.0654 1.02863 7.04061 1.04532 7.01973 1.06636L4.09794 4.01025L4.0976 4.01056L3.36566 4.74802C3.13095 4.98607 2.99946 5.30815 3 5.6437C3.00055 5.97925 3.13309 6.3009 3.36858 6.53816C3.60407 6.77543 3.92331 6.90897 4.25634 6.90952C4.58937 6.91008 4.90904 6.77759 5.14531 6.5411L7.33628 4.33358L7.33665 4.33321L8.31209 3.35038L8.93634 3.14072C8.97271 3.12851 9.00536 3.10713 9.03122 3.07863C9.05708 3.05012 9.07527 3.01543 9.08408 2.97784C9.09288 2.94026 9.09201 2.90103 9.08154 2.86388C9.07106 2.82673 9.05134 2.7929 9.02424 2.76559V2.76559ZM8.11952 2.93744C8.08641 2.94856 8.05631 2.96729 8.03163 2.99215L7.03103 4.00031C6.97065 4.04335 6.52803 4.32712 5.81768 3.96927C5.50852 3.8135 5.23272 3.75318 4.99743 3.74474L7.17874 1.54699L8.44895 2.82679L8.11952 2.93744Z" fill="#1B1B2D"/>
</svg>
