<svg width="16" height="16" viewBox="0 0 16 16" fill="none" xmlns="http://www.w3.org/2000/svg">
<path d="M12.6193 13.6224C12.3802 13.8602 12.056 13.9937 11.7179 13.9937C11.3799 13.9937 11.0557 13.8602 10.8166 13.6224L8.00053 10.4216L5.18446 13.6214C5.06645 13.7407 4.92585 13.8355 4.77078 13.9005C4.61572 13.9655 4.44925 13.9993 4.28097 14C4.1127 14.0007 3.94596 13.9682 3.79037 13.9045C3.63477 13.8408 3.49341 13.747 3.37442 13.6287C3.25543 13.5104 3.16118 13.3698 3.0971 13.2151C3.03303 13.0603 3.00039 12.8945 3.00107 12.7272C3.00176 12.5598 3.03575 12.3943 3.1011 12.2401C3.16644 12.0859 3.26184 11.946 3.38179 11.8287L6.31153 8.50106L3.38073 5.17132C3.26078 5.05395 3.16538 4.91414 3.10003 4.75993C3.03469 4.60572 3.0007 4.44017 3.00001 4.27283C2.99933 4.10549 3.03196 3.93967 3.09604 3.78494C3.16012 3.6302 3.25437 3.48962 3.37336 3.37129C3.49234 3.25296 3.63371 3.15923 3.78931 3.09551C3.9449 3.03179 4.11164 2.99933 4.27991 3.00001C4.44818 3.00069 4.61465 3.0345 4.76972 3.09948C4.92479 3.16446 5.06538 3.25933 5.1834 3.37862L8.00053 6.58054L10.8166 3.37862C10.9346 3.25933 11.0752 3.16446 11.2303 3.09948C11.3853 3.0345 11.5518 3.00069 11.7201 3.00001C11.8884 2.99933 12.0551 3.03179 12.2107 3.09551C12.3663 3.15923 12.5077 3.25296 12.6266 3.37129C12.7456 3.48962 12.8399 3.6302 12.904 3.78494C12.968 3.93967 13.0007 4.10549 13 4.27283C12.9993 4.44017 12.9653 4.60572 12.9 4.75993C12.8346 4.91414 12.7392 5.05395 12.6193 5.17132L9.68954 8.50106L12.6193 11.8287C12.7378 11.9464 12.8318 12.0862 12.896 12.2401C12.9601 12.394 12.9931 12.559 12.9931 12.7256C12.9931 12.8922 12.9601 13.0571 12.896 13.211C12.8318 13.3649 12.7378 13.5047 12.6193 13.6224Z" fill="#1B1B2D"/>
</svg>
