<svg width="16" height="16" viewBox="0 0 16 16" fill="none" xmlns="http://www.w3.org/2000/svg">
<path d="M4.71875 11.0907C3.06369 9.31122 3.09296 6.52195 4.8124 4.79C5.48628 4.10827 6.36251 3.66269 7.31035 3.51976L7.25986 2C5.92925 2.16067 4.69218 2.76698 3.75 3.72024C1.44595 6.03976 1.41814 9.78537 3.66001 12.1576L2.38616 13.4395L6.4177 13.6598L6.40673 9.39098L4.71875 11.0907V11.0907ZM9.58221 2.34024L9.59319 6.60902L11.2812 4.91C12.9362 6.69098 12.907 9.48024 11.1875 11.2107C10.5138 11.8926 9.63747 12.3382 8.68956 12.481L8.74005 14C10.0707 13.8391 11.3078 13.2332 12.2506 12.2805C14.554 9.95951 14.5818 6.2139 12.3399 3.84317L13.6138 2.55976L9.58221 2.34024V2.34024Z" fill="#F5F5F7"/>
</svg>
