<svg width="6946" height="6947" viewBox="0 0 6946 6947" fill="none" xmlns="http://www.w3.org/2000/svg">
<!-- <g style="mix-blend-mode:luminosity"> -->
<path d="M5962.94 2490.08C6505.75 3865.28 5830.98 5420.11 4455.75 5962.93C3080.54 6505.75 1525.73 5830.98 982.915 4455.78C440.082 3080.54 1114.82 1525.67 2490.03 982.852C3865.26 440.024 5420.1 1114.84 5962.94 2490.08Z" fill="#1B1B2D"/>
<path d="M5959.91 2494.02C6502.3 3868.14 5828.06 5421.74 4453.92 5964.14C3079.82 6506.52 1526.2 5832.29 983.815 4458.17C441.437 3084.08 1115.68 1530.45 2489.78 988.063C3863.92 445.666 5417.53 1119.92 5959.91 2494.02ZM3263.87 1520.14L3282.18 1511.62L3290.01 1502.15L3314.81 1500.61L3315.27 1486.84L3285.18 1481.09L3277.67 1495.62L3266.66 1506.28L3251.12 1515.89L3231.22 1526.09L3228.61 1508.37L3211.39 1503.04L3187.79 1504.27L3175.29 1509.52L3179.35 1520.84L3177.9 1532.1L3194.47 1537.85L3198.88 1553.91L3213.51 1549.59L3212.66 1559.71L3230.6 1559.91L3226.98 1570.79L3235.64 1585.81L3236.71 1586.04L3254.83 1581.95L3282.46 1572.26L3301.2 1558.3L3296.77 1546.23L3312.34 1552.54L3331.93 1546.02L3350.64 1533.38L3368.49 1515.26L3345.15 1518.4L3320.53 1519.15L3294.44 1520.23L3277.03 1524.67L3263.87 1520.14ZM4338.55 1557.03L4355.22 1553.37L4352.18 1542.04L4338.05 1539.37L4331.28 1546.82L4338.55 1557.03ZM4322.1 1531.75L4342.82 1531.17L4342.68 1521.04L4332.88 1509.71L4326.15 1513.34L4313.89 1504.99L4297.51 1506.13L4309.91 1518.86L4322.1 1531.75ZM4360.11 1537.68L4369.09 1533.02L4362.52 1523.31L4354.17 1517.96L4353.13 1526.61L4360.11 1537.68ZM4199.18 1407.78L4215.69 1405.38L4203.24 1397.19L4185.4 1397.05L4172.27 1390.42L4184.63 1402.28L4199.18 1407.78ZM5017.13 1909.96L5019.25 1898.94L5027.23 1893.77L5011.28 1878.16L5002.83 1886.83L5017.13 1909.96ZM5978.41 2593.38L5977.77 2587.66L5971.6 2572.29L5970.93 2575.31L5978.41 2593.38ZM4496.18 5945.63L4493.48 5946.59L4498.92 5944.2L4488.82 5948.11L4475.62 5953.81L4467.81 5957.13L4496.18 5945.63ZM3206.02 3520.07L3228.67 3521.3L3246.54 3524.37L3246.17 3503.96L3229.35 3513.36L3206.02 3520.07ZM4483.21 5946.6L4477.92 5950.01L4478.06 5950.76L4473.16 5953.91L4491.36 5946.56L4499.35 5942.6L4494.01 5944.24L4504.77 5938.94L4501.94 5939.33L4483.21 5946.6ZM4574.06 4634.75L4596.64 4621.07L4602.36 4606.52L4594.33 4589.06L4569.66 4607.64L4577.73 4606.8L4584.25 4621.1L4574.06 4634.75ZM3525.74 4566.68L3533 4572.16L3530.56 4578.69L3540.27 4577.69L3552.63 4569.67L3542.47 4559.69L3531.2 4555.71L3525.74 4566.68ZM4469.46 4410.72L4478.3 4421.07L4480.35 4407.97L4489.84 4402.3L4478.92 4396.97L4480.35 4407.98L4469.46 4410.72ZM3924.1 4466.78L3944.21 4458.35L3944.44 4439.25L3941.63 4452.01L3926.9 4454.04L3924.1 4466.78ZM3671.88 4304.91L3663.73 4298.42L3651.86 4302.54L3635.92 4316.02L3621.05 4311.72L3671.88 4304.91ZM3699.27 4318.61L3699.41 4295.01L3674.77 4285L3699.27 4318.61ZM3765.91 4354.89L3758.65 4336.08L3729.15 4329.77L3765.91 4354.89ZM3882.21 4424.6L3891.11 4403.7L3866.93 4401.44L3882.21 4424.6ZM3999.83 4399.28L3970.99 4401.2L3960.07 4416.75L3999.83 4399.28ZM3602.82 3915.08L3614.95 3901.97L3615.14 3885.64L3602.82 3915.08ZM3577.75 3650.77L3598.11 3637.81L3618.21 3625.26L3635.34 3605.15L3621.52 3602.52L3608.45 3616.73L3593.62 3627.12L3575.98 3638.95L3577.75 3650.77ZM3155.1 3029.91L3168.29 3021.71L3157.6 3045.02L3172.06 3040.27L3176.67 3026.57L3182.62 3044.92L3180.47 3017.54L3170.84 3008.73L3155.1 3029.91ZM3146.31 3189.54L3164.1 3192.38L3184.33 3193.86L3172.09 3177.82L3159.68 3177.29L3146.31 3189.54ZM2928.34 2297.87L2927.78 2312.24L2936.83 2328.41L2955.94 2328.7L2967.04 2318.33L2989.04 2315.23L2986.88 2302.82L2977.01 2288.43L2960.99 2285.54L2942.86 2289.62L2928.34 2297.87ZM2749.72 2083.01L2758.8 2092.86L2764.19 2107.55L2759.97 2122.07L2763.02 2139.62L2775.47 2152.1L2800.9 2147.48L2810.17 2131.04L2815.22 2111.09L2825.2 2098.66L2823 2084.08L2808.23 2082.72L2810.24 2065.68L2802.87 2057.43L2785.78 2057.79L2777.29 2047.55L2772.1 2030.92L2761.28 2032.61L2759.85 2050.32L2750.34 2065.31L2749.72 2083.01ZM2714.2 2090.32L2728.09 2095.19L2720.64 2079.21L2714.2 2090.32ZM2728.13 2178.46L2745.45 2184.64L2765.08 2186.84L2773.13 2176.71L2771.19 2167.69L2747.47 2169.85L2728.13 2178.46ZM2646.06 2181.74L2645.03 2201.88L2657.22 2206.13L2654.26 2191.7L2655.32 2178.59L2646.06 2181.74ZM2634.54 2287.53L2647.8 2287.15L2642.74 2272.9L2634.54 2287.53ZM2581.13 2152.47L2596.68 2152.32L2603.56 2158.49L2616.31 2158.4L2624.18 2151.49L2611.02 2142.12L2591.07 2143.21L2581.13 2152.47ZM2561.13 2163.44L2563.45 2173.21L2570.83 2172.23L2574.35 2158.63L2561.13 2163.44ZM2575.19 2172.84L2573.34 2186.6L2585.87 2191.91L2603.6 2183.14L2610.57 2164.94L2600.92 2164.46L2588.66 2169.46L2575.19 2172.84ZM2484.28 2250.45L2492.37 2256.8L2501.24 2246.68L2511.01 2231.9L2495.68 2238.76L2484.28 2250.45ZM1366.09 2207.94L1359.89 2220.51L1361 2227.43L1367.32 2213.13L1366.09 2207.94ZM1318.42 2439.35L1324.35 2439.19L1327.74 2426.69L1318.42 2439.35ZM1322.68 2461.2L1326.08 2471.25L1329.96 2457.92L1322.68 2461.2ZM1338.93 2492.95L1342.92 2500.6L1350.38 2496.75L1338.93 2492.95ZM1380.95 2585.85L1397.37 2589.16L1403.77 2590.43L1410.78 2582.81L1405.66 2575.77L1380.95 2585.85ZM1405.76 2596.67L1414.61 2603.93L1423.97 2608.4L1432.39 2599.01L1427.66 2585.19L1418.31 2595.51L1405.76 2596.67ZM1712.22 2234.49L1700.45 2243.18L1706.89 2255.36L1698.61 2277.79L1711.07 2285.41L1710.21 2268.69L1716.33 2252.45L1712.22 2234.49ZM1613.01 2395.51L1608.15 2412.06L1608.9 2425.02L1618.21 2430.41L1626.09 2422.93L1625.33 2411.59L1619.11 2403.61L1613.01 2395.51ZM1624.09 2682.33L1618.5 2711.22L1632.59 2711.88L1645.36 2704.9L1659.45 2710.5L1665.47 2695.03L1662.39 2684.75L1679.57 2688.56L1681.65 2673.74L1664 2675.53L1647.59 2677.81L1624.09 2682.33ZM3415.43 1808.61L3433.18 1812.84L3434.27 1804.09L3415.43 1808.61ZM5048.37 1308.79L5038.24 1301.54L5032.45 1297.77L5028.49 1295.69L5031.01 1298.42L5037.38 1304.15L5030.76 1300.86L5021.96 1296.17L5016.99 1294.82L5016.03 1296.09L5010.75 1295.18L5048.37 1308.79ZM4616.81 1052.11L4624.96 1056.16L4603.77 1046.1L4585.82 1037.89L4563.08 1027.8L4559.59 1025.93L4555.96 1024.13L4539.12 1016.72L4616.81 1052.11ZM3470.99 802.982L3464.15 801.395L3462.13 800.176L3444.16 802.584L3441.03 803.901L3420.64 804.272L3403.78 805.175L3376.18 805.728L3353.52 805.294L3335.89 806.262L3319.24 805.712L3295.04 806.862L3275.02 809.013L3290.29 808.328L3305.49 807.103L3319.38 807.041L3335.89 806.262L3349.68 806.4L3371.02 806.552L3397.31 806.198L3410.97 806.794L3433.89 805.675L3453.18 805.013L3470.99 802.982ZM1458.35 1713.96L1453.98 1718.49L1449.66 1726.01L1437.4 1741.03L1430.78 1751.49L1425.82 1760.01L1434.89 1747.37L1439.11 1743.92L1446.59 1735.64L1449.2 1736.7L1455.62 1725.52L1466.31 1712.64L1480.28 1696.61L1496.86 1678.99L1507.36 1668.29L1521.01 1655.54L1534.49 1642.38L1538.42 1635.73L1525.22 1647.17L1519.92 1650.31L1516.31 1652.23L1519.01 1647.6L1512.2 1653.52L1458.35 1713.96ZM1438.81 1746.46L1437.21 1750.81L1435.51 1755.52L1438.81 1746.46ZM1424 1772.04L1420.09 1781.19L1415.01 1792.49L1412.18 1802.1L1415.54 1793.82L1423.81 1783.04L1426.07 1775.84L1424 1772.04ZM1404.85 1815.5L1401.23 1822.11L1400.88 1830.65L1405.15 1821.37L1404.85 1815.5ZM1426.71 1878.68L1420.28 1882.67L1417.3 1894.36L1421.66 1895.38L1427.79 1891.67L1424.48 1887.55L1426.71 1878.68ZM1796.14 1476.04L1785.3 1483L1785.32 1490.18L1798.78 1479.21L1796.14 1476.04ZM1577.55 1924.01L1583.67 1937.69L1592.45 1930.82L1590.75 1922.84L1577.55 1924.01ZM1688.36 1567.43L1674.65 1573.09L1666.87 1573.66L1656.55 1577.41L1644.16 1586.59L1634.19 1591.65L1625.51 1594.27L1614.21 1600.26L1604.42 1604.77L1597.78 1606.98L1594.61 1606.53L1586.79 1612.53L1574.35 1621.16L1569.71 1621.7L1559.18 1627.8L1556.4 1626.71L1540.18 1639.49L1544.16 1639.54L1542.47 1644.09L1533.06 1654.43L1519.44 1667.65L1528.48 1661.89L1537.79 1652.48L1545.28 1647.1L1555.91 1637.16L1565.15 1630.03L1573.04 1626.67L1576.63 1627.76L1581.43 1626.43L1580.59 1631.05L1571.92 1641.66L1557.03 1656.6L1568.21 1648.87L1582.53 1638.62L1596.95 1628.64L1610.11 1620.62L1623.44 1612.78L1638.06 1603.52L1647.28 1601.26L1658.12 1597.38L1671.75 1590.3L1684.12 1585.17L1695.37 1578.22L1700.28 1570.78L1687.03 1578.36L1685.57 1575.3L1688.36 1567.43ZM1990.1 1957.6L1974.2 1950.29L1962.92 1957.17L1969.53 1967.17L1990.1 1957.6ZM1969.53 1967.16L1965.81 1978.24L1977.37 1992.36L1990.76 1976.48L1990.09 1957.58L1969.53 1967.16ZM2230.02 1538.48L2214.37 1546.35L2196.89 1563.93L2207.28 1565.25L2229.9 1555.75L2236.72 1544.17L2230.02 1538.48ZM2255.95 1539.4L2244.69 1538.75L2241.94 1545.09L2249.65 1546.57L2255.95 1539.4ZM2254.8 1599.61L2233.29 1604.3L2209.88 1620.98L2202.54 1632.12L2214.55 1636.93L2229.94 1622.05L2244.38 1605.99L2254.8 1599.61ZM3431.78 1179.11L3410.78 1175.1L3396.42 1179.48L3400.31 1192L3418.85 1189.62L3431.78 1179.11ZM3028.38 1410.86L3016.91 1407.46L2999.6 1413.16L2986.93 1407.08L2978.18 1409.89L2968.19 1422.89L2960.52 1418.4L2947.8 1421.8L2943.51 1434.89L2959.58 1429.52L2968.2 1422.89L2988.24 1422.66L2999.61 1413.16L3011.22 1417.38L3028.38 1410.86ZM3020.76 1433.12L3012.81 1424.29L2995.04 1425.15L2995.07 1432.17L2980 1439.67L2971.53 1452.23L2991.09 1446.04L3001.3 1435.06L3011.05 1438.24L3020.76 1433.12ZM3042.63 1420.53L3030.45 1417.33L3030.59 1425.44L3042.63 1420.53ZM3082.94 1451.35L3081 1444.6L3073.67 1440.78L3081.72 1434.53L3077.28 1427.39L3065.71 1424.92L3057.28 1432.21L3042.46 1436.44L3043.92 1441.36L3064.03 1441.35L3057.74 1446.5L3058.27 1453L3082.94 1451.35ZM4057.18 1804.43L4062.04 1797.01L4046.56 1783.62L4047.66 1799.28L4057.18 1804.43ZM4160.04 1720.81L4141.1 1717.3L4149.56 1723.98L4160.04 1720.81ZM4259.43 1854.62L4242.93 1833.9L4221.27 1823.28L4233.94 1842.45L4249.07 1846.75L4259.43 1854.62ZM4132.57 1350.06L4139.09 1344.66L4126.1 1337.57L4113.09 1330.59L4115.86 1343.16L4132.57 1350.06ZM4104.96 1343.65L4110.87 1342.04L4100.91 1333.77L4095.1 1341.64L4104.96 1343.65ZM4943.89 1472.87L4948.88 1465.4L4964.61 1472.29L4970.99 1471.46L4965.27 1462.07L4973.19 1460.39L4956.99 1448.67L4962.45 1443.45L4946.09 1442.15L4933.74 1440.8L4929.74 1430.65L4917.14 1432.55L4915.41 1440.83L4916.24 1450.12L4928.95 1463.29L4943.89 1472.87ZM4998.69 1449.45L4991.04 1438.08L4986.33 1427.98L4987.12 1422.81L4975.3 1407.43L4962.96 1392.17L4952.39 1387.04L4966.27 1400.08L4957.94 1397.07L4968.33 1410.27L4971.04 1418.1L4981.9 1430.48L4977.39 1430.15L4983.65 1442.48L4998.69 1449.45ZM4850.29 1264.39L4857.3 1264.54L4848.25 1253.96L4834.22 1242.93L4823.77 1237.34L4815.2 1229.41L4810.73 1229.96L4785.69 1214.86L4802.88 1227.48L4816.12 1238.02L4827.25 1246.97L4837.7 1253.6L4850.29 1264.39ZM4897.76 1345.92L4906.02 1347.42L4893.67 1338.24L4878.39 1330.68L4897.76 1345.92ZM4823.26 1346.31L4814.49 1343.95L4821.18 1349.87L4823.26 1346.31ZM5325.07 2718.39L5338.1 2719.88L5335.52 2707.41L5324.4 2691.1L5327.14 2706.84L5325.07 2718.39ZM5346.49 2695.64L5355.62 2698.5L5356.54 2685.68L5348.42 2680.06L5342.49 2686.94L5346.49 2695.64ZM5359.36 2645.27L5357.89 2627.66L5339.54 2612.03L5339.58 2599.47L5332.33 2590.29L5332.98 2600.37L5339.54 2612.03L5351.5 2638.51L5359.36 2645.27ZM966.416 3866.58L968.764 3876.64L972.358 3883.07L975.039 3873.69L970.867 3866.2L966.416 3866.58ZM988.116 3924L989.595 3938.37L996.86 3950.23L993.526 3926.81L988.116 3924ZM1012.23 3988.96L1015.28 4000.61L1015.24 4009.29L1019.39 4013.46L1023.6 4015.11L1019.18 3998.59L1015.65 3996.18L1012.23 3988.96ZM4763.84 1315.98L4754.45 1304.32L4743.4 1291.06L4733.63 1279.62L4726.28 1279.21L4714.67 1268.84L4713.47 1276.84L4713.14 1277.84L4724.13 1290.74L4739.04 1306.19L4753.32 1314.95L4773.16 1327.89L4763.84 1315.98ZM4881.41 1704.45L4872.03 1690.27L4857.66 1680.1L4877.21 1686.62L4889.57 1689.02L4903.82 1697.71L4924 1708.43L4910.6 1714.69L4898.29 1712.36L4881.41 1704.45ZM4945.24 1738.69L4958.25 1743.58L4972.57 1743.43L4991.55 1750.9L5010.86 1760.74L5021.28 1755.34L5006.66 1741.86L5004.11 1731.37L4987.67 1721.05L4971.33 1713.02L4955.37 1707.03L4940.21 1703.23L4926.64 1707.53L4942.1 1724.39L4947.34 1733.81L4945.24 1738.69ZM5030.52 1679.23L5043.02 1676.88L5040.36 1668.71L5046.42 1656.86L5045.21 1645.78L5053.98 1642.4L5050.4 1626.99L5036.98 1618.39L5026.74 1617.65L5007.13 1606.87L4988.55 1593.02L5001.26 1611.46L5011.15 1630.76L5016.35 1644.96L5013.72 1652.87L5017.94 1665.2L5030.52 1679.23ZM3430.82 5437.35L3433.3 5453.27L3451.23 5458.33L3439.36 5468.42L3456.18 5470.67L3467.52 5458.03L3451.16 5447.28L3430.82 5437.35ZM3774.28 4647.93L3788.07 4643.14L3806.89 4651.47L3825.65 4648.18L3836.91 4636.52L3852.42 4634.86L3866.23 4629.67L3854.06 4619.09L3834.6 4619.18L3812.46 4623.3L3790.4 4627.65L3775.33 4640.47L3774.28 4647.93ZM3451.68 4584.1L3479.13 4576.83L3481.73 4561.09L3505.79 4554.43L3516.52 4540.25L3526.78 4526.07L3548.7 4523.81L3577.37 4518.81L3559.09 4531.92L3576.22 4538.02L3598 4535.02L3628.93 4525.3L3646.12 4531.14L3664.56 4528.7L3687.62 4528.74L3706.97 4518.58L3716.31 4522.6L3725.83 4538.32L3751.27 4544.39L3782.17 4533.33L3794.26 4544.32L3783.99 4559.27L3777.39 4572.87L3805.08 4562.92L3824.34 4551.69L3844.9 4543.96L3866.8 4539.61L3887.26 4531.62L3898.1 4519.56L3917.24 4508.22L3911.23 4502.83L3901.14 4506.97L3882.49 4499.28L3860.73 4503.75L3848.23 4512.66L3845.47 4494.59L3827.06 4497.96L3805.31 4502.03L3779.88 4496.39L3760.16 4495.82L3739.63 4491.73L3715.5 4488.79L3692.69 4489.39L3672.2 4496.27L3653.39 4487.1L3634.31 4486.08L3614.65 4484.62L3594.22 4491.06L3571.32 4490.39L3550.79 4496.57L3532.64 4509.55L3513.09 4518.81L3493.72 4528.32L3476.31 4544.24L3465.96 4558.19L3470.24 4571.7L3451.68 4584.1ZM3931.05 4582.1L3963.77 4583.66L3967.61 4574.37L3988.15 4565.8L4006.73 4562.03L4022.42 4551.15L4044.22 4545.76L4068.92 4557.53L4075.9 4535.29L4071.85 4525.62L4089.26 4509.94L4093.36 4519.48L4112.17 4507.13L4132.54 4489.72L4152.53 4480.12L4171.31 4486.71L4177.79 4464.01L4154.01 4456.18L4118.35 4465.8L4130.42 4448.43L4107.41 4459.38L4094.92 4449.41L4070.52 4457.04L4049.18 4463.04L4022.32 4475.07L4011.67 4487.22L3984.23 4487.54L3960.34 4497.7L3950.98 4513.12L3971.24 4504.63L3986.8 4513.54L3992.13 4526.41L4015.96 4535.35L4002.78 4552.36L3982.33 4561L3962.51 4561.63L3940.7 4566.86L3931.05 4582.1ZM4232.1 4460.02L4250 4454.58L4265.07 4442.96L4281.14 4434.53L4286.52 4419.86L4269.3 4417.2L4246.68 4429.12L4223.55 4441.01L4232.1 4460.02ZM3673.78 4365.04L3682.12 4378L3675.84 4391.78L3702.1 4401.56L3719.76 4418.45L3721.56 4402.52L3706.47 4392.55L3701.37 4378.64L3683.74 4361.6L3673.78 4365.04ZM3673.72 3126.5L3697.02 3126.76L3709.4 3133.12L3728.38 3130.81L3748.01 3124.19L3763.05 3115.18L3746.24 3106.77L3729.47 3107.97L3710.42 3109.91L3691.2 3116.68L3673.72 3126.5ZM3750.87 3252.35L3765.78 3257.38L3787.94 3258.18L3816.9 3254.91L3809.04 3241.59L3816.79 3223.49L3798.15 3238.78L3782.19 3248.08L3762.11 3250.91L3752.05 3238.3L3750.87 3252.35ZM2999.69 2796.36L3016.36 2788L3030.39 2764.35L3029.52 2760.9L3015.97 2764.88L3002.41 2776.61L2999.69 2796.36ZM3072.42 2767.17L3078.02 2792.61L3090.17 2800.44L3093.4 2779.51L3089.54 2761.53L3072.42 2767.17ZM3852.6 3123.25L3867.5 3137.03L3882.51 3117.67L3906.42 3106.77L3925.47 3093.75L3944.35 3080.56L3963.08 3071.87L3972.08 3084.4L3966.26 3102.88L3983.65 3095.7L3982.4 3067.73L3990.06 3056.86L4004.84 3051.1L4012.69 3074.45L4018.04 3055.84L4029.51 3071.2L4044.08 3060.11L4033.79 3038.55L4023.63 3016.93L4014.11 3029.5L4005.88 3006.38L4000.29 3015.38L4003.97 3037.23L3993.1 3035.45L3987.88 3020.04L3991.52 2987.87L3976 3004.43L3960.68 2996.56L3960.56 2972.11L3944.03 2974.68L3928.11 2986.38L3914.88 3001.22L3891.33 2998.47L3894.49 2981.94L3876.26 2985.75L3867.18 3010.83L3861.57 2986.36L3860.45 2968.38L3856.51 2942.6L3848.37 2919.77L3836.89 2927.94L3828.16 2948.28L3829.3 2966.1L3834.71 2986.13L3837.94 3012.11L3847.23 3038.52L3847.9 3066.06L3850.52 3087.83L3860.9 3085.43L3856.73 3106.65L3852.6 3123.25ZM2914.33 2748.94L2941.1 2742.59L2947.11 2763.98L2965.06 2755.77L2974.2 2734.05L2982.51 2716.61L2997.22 2712.51L3016.38 2718.44L3036.72 2727.56L3049.81 2704.36L3027.25 2699.84L3012.62 2684.91L2994.58 2675.06L2968.93 2666.82L2946.27 2654.26L2935.66 2634.35L2920.84 2656.62L2919.63 2675.86L2921.13 2701.79L2930.89 2726.33L2914.33 2748.94ZM3052.67 2525.98L3066.95 2543.71L3085.41 2533.11L3092.72 2518.65L3088.86 2500.69L3075.53 2490.67L3056.62 2497.88L3052.67 2525.98ZM2817.07 2411.57L2833.29 2426.43L2847.01 2445.2L2863.28 2459.39L2889.71 2467.97L2911.45 2462.38L2943.6 2460.44L2958.03 2452.56L2985.94 2462.41L2996.59 2451.26L3004.05 2426.32L3018.45 2440.05L3051.14 2450.59L3055.74 2479.02L3069.07 2458.71L3088.87 2473.86L3114.29 2478.63L3128.29 2496.07L3141.32 2510.25L3135.84 2528.1L3130.25 2550.2L3121.32 2569.4L3145.69 2583L3133.41 2604.1L3109.25 2613.56L3079.33 2616.63L3080.97 2631.42L3071.49 2638.96L3070.95 2658.26L3087.77 2672L3116.41 2661.58L3126.7 2645.87L3148.31 2641.22L3171.25 2643.82L3191.55 2643.4L3211.68 2646.69L3219.44 2663.68L3241.73 2669.76L3259.52 2669.94L3282 2667.3L3293.5 2674.08L3316.52 2675.25L3337.86 2672.97L3359 2666.08L3349.94 2650.1L3328.16 2644.3L3303.72 2636.23L3282.56 2629.95L3266.36 2617.59L3293.19 2616.71L3317.3 2620.86L3344.7 2623.06L3367.85 2610.44L3357.12 2582.81L3333.96 2574.33L3321.11 2556.1L3302 2549.9L3274 2543.73L3272.9 2542.93L3253.1 2529.73L3243.12 2501.97L3281.8 2506.36L3303.56 2523.97L3331.17 2525.29L3324.85 2503.53L3340.13 2486.1L3334.09 2468.75L3329.9 2441.13L3310.11 2436.25L3286.64 2433.3L3262.02 2430.33L3238.58 2423L3214.39 2435.86L3185.15 2430.42L3174.88 2411.59L3191 2395.28L3165.37 2388.74L3162.68 2370.06L3140.78 2357.36L3114.52 2354.55L3082.95 2341.78L3062.71 2339.25L3040.07 2345.2L3032.08 2325.95L3022.52 2315.08L3005.18 2325.41L2988.2 2322.97L2973.82 2323.79L2962.63 2342.13L2947.03 2347.31L2936.82 2363.63L2936.02 2342.12L2922.3 2326.42L2921.81 2307.12L2912.99 2299.12L2898.2 2306.89L2883.22 2325.1L2871.3 2346.13L2873.9 2366.86L2875.77 2384.48L2883.67 2400.2L2867.21 2390.04L2863.15 2372.96L2859.24 2356.32L2861.95 2337.78L2867.37 2324.48L2884.23 2308.61L2866.27 2312.06L2846.4 2316.83L2835.22 2329.89L2823.34 2349.78L2818.61 2368.54L2814.71 2387.14L2817.07 2411.57ZM2727.55 2288L2742.06 2293.85L2760.8 2297.69L2760.37 2275.7L2751.72 2262.37L2738.61 2263.99L2727.55 2288ZM2735.03 2203.72L2733.62 2218.59L2745.53 2234.42L2765.09 2228.48L2776.98 2236.89L2781.51 2253.05L2778.52 2270.89L2781.51 2291.15L2806.06 2296.02L2828.39 2294L2848.82 2291.44L2869.94 2286.18L2880.18 2269.51L2900.22 2274.38L2919.23 2261.3L2921.5 2243.09L2917.13 2227.92L2895.16 2224.3L2878.64 2229.13L2858.53 2230.43L2838.76 2245.27L2815.82 2245.35L2799.09 2237.16L2803.81 2228.42L2791.6 2222.49L2785.63 2212.08L2767.41 2215.06L2753.62 2205.94L2735.03 2203.72ZM2781.98 2019.49L2786.42 2038.12L2800.04 2048.27L2820.12 2043.59L2833.71 2034.82L2853.92 2028.86L2873.66 2017.43L2863.4 2032.56L2843.62 2045.14L2836.53 2055.87L2819.17 2053.66L2815.66 2076.31L2828.61 2079.85L2831.49 2097.15L2839.07 2110.41L2827.5 2118.21L2816.33 2144.21L2836.42 2149.62L2813.96 2158.49L2815.85 2174.73L2826.62 2179.29L2815.53 2186.66L2803.23 2201.38L2804.75 2217.92L2823.7 2217.63L2851.74 2214.25L2862.84 2204.29L2877.66 2203.94L2887.52 2193.9L2896.86 2204.85L2915.19 2188.39L2922.99 2168.41L2903.13 2157.65L2914.34 2139.97L2907.1 2128.36L2925.92 2118.09L2926.22 2096.95L2919.1 2078.89L2919.9 2057.8L2935.8 2041.73L2938.63 2020.24L2940.04 2003.51L2946.79 1984.35L2952.21 1961.19L2947.23 1953.13L2951.06 1938.83L2952.51 1926.94L2947.35 1920.42L2935.27 1921.96L2922.17 1918.71L2905.71 1922.46L2889.63 1923.72L2875.49 1930.12L2866.49 1937.86L2853.26 1940.17L2833.45 1952.04L2826.09 1967.4L2813.55 1980.52L2804.46 1990.49L2805.46 1998.34L2790.66 2001.59L2781.98 2019.49ZM2654.58 2119.35L2656.02 2127.51L2669.25 2134.59L2659.64 2146.7L2665 2156.16L2682.08 2161.14L2694.21 2160.72L2699.83 2177.43L2711.54 2169.81L2727.2 2166.46L2739.78 2163.92L2744.03 2151.32L2740.64 2141.73L2722.47 2129.5L2719.6 2146.57L2714.46 2163.07L2705.43 2161.7L2703.3 2147.74L2705.23 2131.53L2694.93 2119.17L2681.9 2119.54L2673 2112.38L2661.64 2112.26L2654.58 2119.35ZM2643.32 2226.64L2647.89 2243.77L2648.04 2257.87L2656.19 2274.86L2673.99 2265.64L2681.6 2288.6L2707.48 2286.96L2714.43 2265.22L2713.68 2247.96L2714.77 2232.25L2700.08 2221.47L2682.34 2221.19L2673.91 2233.01L2670.62 2250.48L2662.37 2235.31L2653.88 2224.67L2643.32 2226.64ZM2453.64 2211.52L2455.63 2229.67L2467.45 2230.74L2478.38 2237.74L2495 2226.57L2506.42 2214.54L2516.24 2225.47L2535.75 2210.81L2537.9 2195.57L2551.75 2187.19L2544.73 2175.16L2531.86 2184.77L2517.85 2180.43L2504.27 2185.14L2488.74 2193.13L2471.54 2205.5L2453.64 2211.52ZM2496.04 2267.72L2508.75 2275.57L2517.62 2284.12L2532.38 2274.18L2538.4 2289.43L2522.04 2295.73L2524.36 2305.73L2537.28 2310.99L2550.8 2307.75L2565.23 2297.61L2580.49 2290.37L2603.14 2293.88L2617.89 2291.06L2623.56 2272.65L2630.51 2256.08L2617.77 2249.38L2604.62 2235.73L2603.93 2215.96L2593.27 2224.37L2581.79 2237.31L2589.34 2244.35L2583.63 2255.26L2586.85 2269.59L2566.52 2264.76L2564.98 2249.6L2560.71 2238.34L2548.7 2225.95L2535.8 2221.74L2523.91 2234.44L2508.91 2251.76L2496.04 2267.72ZM2354.87 2375.12L2363.12 2397.25L2360.83 2424.43L2381.9 2418.79L2398.03 2418.89L2417.97 2400.76L2434.23 2374.37L2456.7 2363.88L2476.75 2355.24L2497.85 2345.61L2485.62 2328.77L2481.23 2309.24L2461.32 2304.88L2447.39 2290.08L2426.95 2295.88L2405.47 2297.17L2400.55 2322.8L2387.35 2343.05L2370.1 2360.21L2354.87 2375.12ZM5556.48 4964.86L5561.64 4948.42L5575.69 4922.11L5580.34 4905.64L5594 4878.82L5596.47 4864.11L5596.35 4851.94L5598.24 4837.28L5606.85 4819.17L5606.35 4806.67L5608 4789.12L5611.28 4769.56L5608.05 4759.18L5606.86 4746.3L5603.36 4735.79L5604.03 4720.25L5603.9 4700.07L5616.19 4675.67L5625.81 4651.27L5634.58 4622.33L5638.94 4600.79L5645.25 4576.56L5650.54 4561.69L5661.85 4536.52L5666.03 4516.76L5674.37 4491.41L5678.32 4471.71L5681.57 4449.4L5684.59 4426.96L5681.95 4405.13L5676.29 4393.22L5667.47 4381.96L5658.42 4370.26L5647.06 4361.4L5630.56 4375.28L5618.29 4394.19L5604.24 4407.74L5592.4 4408.68L5576.58 4417.38L5564.18 4418.54L5551.84 4419.06L5534.61 4425.21L5517.3 4431.29L5499.48 4436.96L5485.1 4452.74L5472.36 4473.53L5457.67 4489.19L5440.29 4497.35L5425.29 4512.83L5407.49 4520.81L5391.36 4533.82L5378.59 4556.56L5362.21 4578.95L5361.92 4559.17L5349.61 4554.42L5339.9 4546.6L5325.96 4566.81L5316.73 4561.65L5293.38 4576.92L5275.22 4586.6L5252.47 4593.72L5233.35 4610.81L5223.89 4625.62L5221.46 4657.96L5211.25 4660.37L5212.14 4642.71L5209.64 4617.58L5188.24 4629.51L5172.27 4646.43L5154.23 4658.31L5142.71 4677.89L5149.54 4695.57L5151.74 4720.41L5135.38 4707.24L5117.71 4731.35L5114.15 4711.24L5113.75 4691.43L5124.19 4669.12L5131.55 4649.64L5139.71 4622.15L5132.84 4596.4L5111.86 4610.43L5097.12 4594.17L5076.63 4582.2L5068.56 4563.65L5044.13 4561.54L5028.96 4562.68L5006.61 4565.84L4986.8 4566.31L4965.38 4571.85L4947.99 4577.98L4934.73 4583.95L4914.34 4592.07L4894.77 4602.37L4876.47 4615.59L4859.37 4631.64L4840.82 4644.69L4817.89 4656.66L4804.8 4652.39L4803.63 4652.1L4787.12 4652.46L4763.33 4654.09L4749.04 4667.03L4745.77 4651.01L4733.11 4641.45L4708.89 4642.35L4684.73 4643.41L4657.37 4646.2L4630.8 4669.69L4628.47 4645.72L4614.12 4632.52L4588.93 4640.38L4570.06 4644.66L4558.4 4655.08L4538.51 4648.3L4520.34 4644.31L4550.17 4619.27L4527.45 4632.62L4501.13 4647.85L4478.15 4660.89L4464.83 4686.75L4447.43 4703.75L4422.78 4713.15L4403.43 4716.6L4392.71 4711.37L4376.1 4720.09L4360.26 4731.78L4336.6 4743.76L4313.64 4758.72L4302.14 4750.26L4292.02 4737.12L4271.45 4736.42L4249.65 4743.48L4232.3 4751.71L4215.08 4730.85L4201.97 4747.83L4214.89 4759.87L4201.63 4776.67L4186.63 4790.76L4171.43 4804.44L4180.11 4825.44L4202.78 4839.63L4211.14 4860.01L4188.78 4877.1L4179.42 4863.82L4164.13 4856.82L4167.45 4834.49L4173.11 4818.11L4159.85 4806.21L4141.97 4792.89L4160.37 4777.46L4164.64 4757.97L4154.25 4751.9L4138.71 4754.94L4128.68 4770.09L4123.23 4787.03L4107.98 4800.42L4097.69 4815.38L4080.26 4833.26L4050.65 4842.03L4044.77 4858.27L4026.17 4862.37L4010.67 4875.52L4004.63 4891.58L4008.17 4910.79L4015.18 4928.56L3998.19 4938.35L3993.19 4957.22L3977.3 4980.06L3987.46 5006.22L3962.45 4995.53L3943.54 4988.77L3924.72 4982.28L3901.96 4977.05L3882.4 4980.15L3862.41 4980.52L3840.57 4987.85L3834.09 5003.19L3814.43 5016.28L3794.61 5028.94L3770.86 5042.94L3753.05 5038.58L3734.53 5044.11L3721.99 5031.19L3700.21 5027.65L3677.38 5021.04L3661 5009.01L3644.68 4997.16L3632.18 4983.74L3633.76 4966.44L3627.29 4947.97L3627.1 4924.37L3620.6 4905.66L3612.97 4883.85L3618.38 4864.97L3608.39 4836.39L3598.79 4831.94L3578.98 4830.71L3577.97 4830.33L3555.38 4819.49L3536.14 4821.16L3520.79 4821.4L3500.33 4830.37L3477.54 4832.26L3458 4844.02L3437.36 4852.17L3410.18 4851.74L3387.66 4867.01L3366.8 4861.08L3346.53 4858.26L3364.18 4840.94L3366.9 4812.37L3360.82 4792.69L3354.17 4759.02L3369.85 4772.94L3374.51 4750.72L3371.25 4726.71L3368.53 4705.88L3365.78 4684.97L3366.82 4663.04L3379.35 4641.91L3374.28 4625.16L3361.68 4620.67L3340.73 4625.38L3322.13 4625.99L3302.14 4633.72L3283.11 4645.13L3263 4652.58L3242.94 4659.93L3230.95 4669.5L3233.81 4693.94L3235.22 4711.65L3231.73 4726.38L3236.55 4743.31L3224.42 4752.71L3213.12 4765.26L3219.43 4774.67L3196.36 4785.29L3194.56 4778.89L3168.32 4779.38L3146.31 4793.26L3122.43 4800.57L3098.93 4810.49L3084.79 4812.37L3067.2 4800.96L3044.12 4796.8L3021.21 4792.84L3002.51 4777.41L2987.73 4761.48L2972.28 4742.2L2955.2 4730.08L2941.59 4717.52L2930.5 4700.87L2934.53 4686.5L2910.55 4674.29L2898.94 4654.12L2902.27 4636.31L2897.79 4615.35L2893.34 4594.24L2888.95 4573.09L2891.55 4551.2L2893.64 4529.27L2900.17 4510.36L2893.32 4492.6L2889.03 4471.08L2877.98 4450.04L2877.45 4428L2887.77 4412.36L2904.78 4396.03L2921.6 4379.04L2940.68 4373.29L2951.43 4360.8L2962.54 4348.17L2949.06 4331.03L2960.52 4322.36L2964.22 4340.33L2981.51 4326.78L2997.21 4321.07L3019.18 4314.26L3040.28 4318.3L3060.81 4319.12L3074.77 4305.52L3097.73 4316.57L3104.25 4330.41L3124.94 4330.82L3146.82 4322.75L3158.51 4313.22L3172.36 4314.13L3185.02 4323.03L3189.81 4314.28L3166.48 4303.91L3164.61 4296.48L3172.64 4287.56L3173.02 4276.03L3156.58 4279.27L3141.4 4286.73L3127.25 4285.69L3127.32 4284.84L3132.61 4264.65L3154.77 4271.82L3171.49 4257.05L3187.79 4253.68L3208.17 4253.08L3215.02 4240.12L3225.55 4253.51L3245.01 4249.13L3263.37 4240.75L3281.78 4232.68L3297.71 4240.45L3319.26 4243.02L3331.03 4259.09L3349.53 4250.65L3362.26 4235.58L3380.61 4226.96L3401.26 4236.68L3425.47 4257.04L3436.39 4258.06L3449.46 4277.67L3451.96 4296.08L3456.53 4310.53L3468.41 4302.92L3468.91 4325.92L3476.75 4339.42L3494.39 4349.51L3510.22 4364.21L3527.18 4382.17L3548.71 4390.83L3561.48 4406.17L3576.74 4397.31L3584.49 4387.45L3587.29 4363.39L3582.29 4337.61L3573.89 4313.27L3555.57 4292.04L3537.25 4270.24L3532.47 4256.28L3512.06 4239.2L3498.66 4219.83L3481.94 4201.43L3471.38 4181.03L3461.31 4160.43L3463.76 4135.91L3466.08 4111.48L3478.87 4087.34L3494 4070.55L3507.7 4050.17L3515.01 4031.78L3519.07 4013.99L3533.57 3996.85L3547.72 3988.05L3557.82 3968.38L3567.32 3948.38L3587.28 3937.09L3592.2 3922.94L3574.3 3929.62L3586.83 3908.73L3598.57 3904.28L3600.53 3891.18L3594.86 3876.63L3580.01 3882.23L3562.25 3888.85L3574.56 3876.4L3584.71 3868.09L3595.03 3868.63L3585.28 3851.53L3573.84 3839.56L3553.58 3830.42L3548.18 3816.12L3544.42 3796.76L3518.68 3789.94L3537.19 3787.07L3529.09 3773.7L3518.17 3753.01L3518.24 3736.58L3529.62 3723.84L3529.28 3740.38L3534.93 3755.13L3536.22 3775L3553.05 3777.09L3554.52 3788.99L3565.88 3784.58L3565.89 3800.99L3568.29 3824.88L3575.63 3818.09L3573.17 3794.25L3577.45 3771.69L3581.74 3757.56L3557.62 3738.04L3543.81 3718.43L3557.8 3721.49L3571.82 3732.44L3583.03 3711.45L3585.31 3685.48L3582.49 3662.59L3582.17 3661.58L3568.34 3658.69L3573.36 3640.06L3585.28 3622.5L3598.44 3608.31L3614.57 3601.45L3630.66 3594.45L3643.5 3580.08L3642.73 3563.6L3655.41 3570.7L3665.25 3557.52L3668.5 3564.74L3686.43 3547.72L3679.94 3533.71L3684.86 3544.29L3669.08 3551.65L3655.57 3536.27L3642.13 3534.17L3645.12 3520.06L3637.79 3510.49L3639.03 3492.53L3642.71 3473.78L3639.39 3466.59L3651.51 3452.66L3665.68 3437.12L3667.41 3414.46L3678.35 3417.98L3692.21 3402.26L3703.7 3388.16L3713.12 3370.22L3705.85 3356.12L3727.64 3344.76L3743.51 3327.82L3757.34 3302.22L3762.44 3317.59L3779.47 3303.35L3768.02 3327.84L3759.8 3340.8L3750.11 3364.02L3751.72 3384.9L3765.87 3399.62L3786.15 3402.05L3793.63 3380.42L3800.62 3358.41L3802.74 3339.62L3817.09 3331.53L3830.44 3310.42L3852.73 3283.75L3871.77 3262.96L3868.43 3246.91L3880.18 3230.31L3887.95 3207.19L3861.71 3205.49L3851.41 3184.33L3840.55 3181.75L3842.07 3203.88L3838.45 3228.52L3848.62 3245.27L3832.92 3250.35L3820.64 3266.35L3800.06 3274L3771.42 3272.52L3751.31 3274.64L3730.49 3259.42L3715.14 3236.93L3710.33 3217.15L3691.03 3236.65L3661.8 3225.71L3689.21 3211.17L3698.99 3196.8L3708.85 3177.95L3701.29 3164.51L3686.76 3159.25L3665.1 3162.14L3646.77 3176.17L3628.55 3190.47L3615.73 3210.18L3603.22 3224.81L3589.92 3244.37L3580.68 3266.45L3577.11 3289.36L3572.15 3309.19L3566.62 3328.76L3550.48 3344.81L3556.05 3324.91L3559.05 3306.5L3564.54 3287.03L3566.99 3268.25L3570.45 3245.46L3579.56 3223.44L3589.29 3197.28L3607.51 3188.15L3602.79 3168.58L3606.78 3149.21L3622.8 3131.8L3638.02 3123.69L3655.47 3114.22L3673.04 3100.16L3689.19 3095.28L3689.82 3094.91L3704.91 3086.21L3721.77 3076.33L3738.6 3075.5L3755.3 3060.41L3778.34 3046.07L3782.18 3025.31L3784 3005.91L3785.01 2986.34L3798.43 2963.42L3819.8 2944.4L3826.04 2921.32L3830.56 2903.93L3804.51 2884.21L3796.61 2865.83L3767.83 2857.7L3751.2 2869.2L3738.22 2855L3713.6 2866.58L3723.07 2841.81L3705.36 2839.74L3682.94 2850.13L3666.76 2841.89L3640.83 2854.07L3626.24 2840.26L3601.66 2841.88L3584.2 2834.71L3571.75 2815.44L3572.56 2797.26L3555.63 2794.08L3547.15 2781.02L3528.46 2774.65L3505.78 2761.44L3484.96 2747.18L3461.1 2734.69L3439.2 2721.01L3424.64 2711.96L3422.13 2730.41L3419.34 2744.73L3433.67 2753.96L3434.47 2775.23L3424.08 2793.57L3424.25 2810.4L3407.85 2831.5L3381.03 2815.4L3366.8 2818.28L3347.41 2806.45L3340.75 2793.06L3332.36 2772.03L3318.71 2757.53L3313.81 2738.93L3296.87 2742.95L3281.39 2750.04L3261.25 2746.73L3260.21 2730.97L3240.39 2727.48L3220.78 2719.36L3201.35 2715.39L3180.84 2731.89L3167.29 2737.24L3146.02 2737.23L3124.48 2741.29L3114.63 2756.67L3120.69 2774.49L3136.41 2780.73L3137.14 2800.01L3136.2 2820.35L3150.7 2827.16L3161.6 2847.19L3167.93 2865.06L3162.79 2886.65L3149.23 2895.72L3151.88 2910.62L3170.18 2920.13L3186.16 2922.71L3202.66 2944.83L3213.16 2961.38L3228.2 2984.14L3238.71 3012.99L3232.94 3035.63L3220.44 3060.13L3206.48 3081.5L3190.9 3098.97L3205.19 3114.1L3217.81 3130.3L3228.62 3154.99L3235.98 3176.91L3254.41 3195.11L3246.06 3222.51L3228.06 3245.13L3234.91 3259.01L3211.63 3250.41L3196.77 3234.68L3178.67 3224.27L3161.67 3209.07L3138.51 3195.65L3136.5 3172.11L3131.41 3153.89L3120.17 3137.65L3119.6 3137.12L3116.84 3101.83L3092.58 3096.93L3067.07 3104.01L3041.42 3110.74L3011.68 3098.3L2989.15 3096.12L2970.67 3092.33L2952.55 3076.51L2927.04 3066.36L2901.11 3063.58L2874.35 3053.11L2857.05 3063.99L2843.7 3073.63L2841.88 3058.58L2831.43 3040.71L2829.32 3022.05L2816.8 2996.68L2800.74 2995.33L2785.38 3001.07L2776.23 2983.42L2774.52 2960.65L2774.43 2933.59L2778.6 2914.24L2782.7 2894.51L2791.77 2870.39L2800.84 2849.91L2814.37 2840.53L2812.25 2818.17L2830.48 2807.41L2850.25 2796.22L2845.73 2774.31L2855.87 2746.13L2885.55 2740.23L2896.75 2715.11L2907.39 2690.04L2903.6 2668.34L2916.72 2635.02L2900.57 2624.01L2922.32 2615.17L2932.01 2623.96L2957.52 2624.48L2972.74 2601.58L2990.12 2577.41L2987.77 2551.81L2963.92 2547.72L2958.66 2526.82L2973.79 2511.07L2966.89 2485.4L2943.07 2486.72L2936.99 2473.35L2914.86 2472.38L2895.57 2477.41L2899.5 2498.41L2905.55 2522.56L2910.28 2547.06L2894.81 2566.03L2897.9 2583.48L2886.14 2593.86L2866.35 2572.4L2866.05 2550.36L2863.41 2532.4L2845.56 2514.21L2832.85 2546.16L2818.33 2526.98L2806.12 2510.78L2788.14 2502.92L2803.69 2482.06L2793.11 2462.21L2781.08 2449.98L2768.17 2433.89L2757.94 2413.91L2766.78 2398.62L2759.55 2385.61L2771.71 2376.7L2787.22 2374.21L2793.85 2355.35L2801.07 2336.74L2806.54 2325.2L2793.43 2319.62L2768.37 2317.39L2743.78 2327.82L2738.53 2346.07L2742.73 2362.85L2746.07 2383.6L2746.22 2401.4L2746.45 2422.67L2734.75 2434.8L2728.61 2458.18L2720.98 2482.69L2737.44 2506.36L2764.09 2520.83L2754.05 2540.47L2761.63 2561.33L2747.01 2585.13L2741.47 2586.67L2736.28 2608.36L2719.06 2596.07L2717.78 2572.6L2717.59 2571.67L2739.48 2553.16L2725.8 2529.37L2702.59 2509.9L2691.63 2532.52L2675.1 2548.01L2700 2564.55L2688.58 2579.89L2686.43 2605.56L2665.01 2610.94L2635.98 2604.78L2616.33 2592.9L2592.12 2578.92L2578.12 2554.52L2557.44 2560.5L2535.22 2566.92L2520.54 2580.72L2537.2 2592.82L2528.33 2611.12L2512.15 2602.47L2498.39 2590.13L2475.54 2595.58L2451.22 2599.93L2434.74 2590.34L2416.65 2587.54L2424.88 2573.37L2441.85 2570.06L2438.14 2550.42L2421.75 2536.35L2400.42 2530.85L2384.75 2517.39L2369 2502.09L2360.51 2483.05L2338.33 2476.85L2323.14 2494.08L2313.1 2488.5L2323.16 2463.99L2299.98 2484.13L2292.31 2473.73L2296.36 2450.79L2290.8 2424.2L2272.13 2445.32L2257.17 2447.58L2261.75 2428.47L2239.7 2432.24L2215.81 2436.65L2200.07 2443.68L2195.26 2430.7L2181.97 2427.53L2165.08 2435.57L2153.35 2451.36L2144.85 2432.65L2142.45 2413.47L2137.22 2395.31L2123.07 2383.03L2120.88 2369.09L2118.56 2352.55L2107.68 2343.65L2095.47 2338.11L2092.63 2321.69L2081.36 2310.94L2077.16 2290.04L2067.13 2278.56L2058.39 2268.51L2064.28 2247.18L2051.92 2231.2L2057.64 2218.67L2055.4 2199.25L2031.88 2201.74L2022.47 2189.6L2000.2 2187.88L1991.09 2178.94L1970.96 2179.37L1952.45 2189.02L1936.69 2193.94L1924.84 2183.81L1916.62 2173.23L1897.76 2184.65L1889.19 2204.69L1883.95 2227.69L1868.86 2247.64L1862.34 2269.21L1852.47 2290.1L1838.38 2295.17L1829.61 2275.83L1843.79 2262.79L1839.51 2252.59L1825.54 2246.3L1811.95 2239.54L1792.94 2238.07L1789.77 2249.91L1790.8 2264.38L1777.78 2269.11L1768 2282.84L1769.28 2306.34L1778.8 2320.46L1779.17 2338.17L1792.15 2340.33L1802.56 2346.39L1803.31 2347.09L1788.07 2356.41L1777.5 2375.7L1759.44 2387.92L1748.62 2373.83L1730.07 2376.38L1732.81 2356.3L1720.24 2353.33L1708.4 2360.83L1688.2 2365.98L1663.55 2378.3L1654.15 2401.82L1640.02 2421.71L1627.8 2445.86L1618.15 2466.08L1623.79 2478.73L1642.33 2478.37L1628.04 2504.22L1616.06 2510.96L1605.88 2529.62L1615.53 2533L1626.99 2554.44L1617.83 2581.02L1629.72 2573.66L1633.34 2586.3L1640.96 2592.1L1623.39 2610.68L1604.86 2628.26L1589.22 2629.42L1571.13 2633.16L1553.48 2629.61L1534.23 2636.97L1524.09 2624.39L1509.54 2617.45L1492.94 2621.08L1478.23 2611.85L1459.01 2607.63L1453.15 2618.81L1470.76 2626.97L1486.62 2630.9L1498.04 2639.57L1509.96 2641.09L1522.32 2651.09L1537.56 2657.76L1549.99 2665.48L1564.91 2656.36L1579.12 2659.57L1598.15 2663.54L1614.94 2656.51L1635.81 2655.71L1654.91 2656.98L1669.42 2652.37L1686.57 2644.39L1683.16 2628.35L1695.48 2619.85L1710.39 2621.15L1728.19 2614.21L1745.09 2599.69L1761.01 2594.94L1781.15 2595.56L1789.37 2604.69L1774.53 2610.54L1759.77 2605.29L1742.41 2625L1722.85 2636.52L1723.66 2649.22L1708.94 2654.54L1722.38 2664.84L1740.08 2662.54L1757.17 2658.54L1766.98 2668.82L1786.51 2656.43L1800.45 2632.97L1805.68 2649.1L1815.74 2658.8L1817.44 2676L1821.61 2700.06L1828.51 2721.03L1842.08 2732.25L1856.01 2743.18L1863.09 2762.94L1873.32 2774.92L1887.79 2770.83L1878.74 2792.76L1885.63 2811.48L1888.05 2836.23L1891.55 2856.6L1898.49 2874.4L1893.54 2898.52L1896.37 2922.7L1892.14 2947.01L1888.25 2975.64L1901.16 2947.73L1908.52 2920.49L1918.58 2899.46L1914.06 2879.18L1922.44 2884.04L1934 2868.08L1931.18 2887.87L1930.94 2888.78L1922.93 2901.89L1917.22 2925.33L1908.94 2943.08L1922.66 2937.26L1933.6 2925.66L1933.05 2942.69L1934.31 2960.64L1922.42 2946.08L1907.06 2955.3L1900.35 2978.01L1910.95 2979.49L1903.27 2996.91L1901.55 3013.84L1903.36 3027.85L1909.95 3044.16L1910.92 3065.85L1921.09 3040.81L1921.94 3011.2L1921.78 2989.27L1927.95 3001.23L1937.37 3005.84L1929.98 3019.27L1928.86 3040.4L1931.28 3058.62L1938.53 3074.75L1954.72 3073.37L1939.64 3092.09L1940.64 3105.29L1924.72 3110.84L1925.26 3136.59L1933.46 3152.85L1936.72 3184.07L1949.28 3201.75L1947.58 3226.11L1952.32 3244.46L1947.82 3259.1L1960.33 3280.77L1975.61 3294.29L1990.1 3311.7L1999.76 3331.66L2010.22 3351.22L2021.53 3366.98L2038.52 3360.02L2033.22 3382.65L2041.13 3397.15L2045.23 3418.58L2039.62 3424.67L2043.99 3446.15L2032.83 3467.05L2032.38 3458.73L2019.93 3463.24L2034.76 3447.35L2022.14 3431.55L2005.5 3426.47L1987.13 3408.42L1982.42 3419.01L1984.03 3431.71L1985.93 3452.71L1987.25 3477.35L1986.02 3492.87L1984.85 3508.94L2003.03 3522.22L1983.33 3516.17L1980.09 3531.52L1978.74 3550.82L1970.37 3568.35L1965.95 3590.97L1959.47 3612.85L1949.94 3637.48L1938.22 3661.84L1936.38 3685.05L1940.71 3702.17L1941.77 3726.17L1935.79 3747.93L1925.14 3768.07L1923.41 3779.27L1931.14 3793.53L1936.25 3810.6L1934.1 3825.84L1933.91 3845L1942 3863.24L1952.81 3878.14L1948.66 3892.23L1963.3 3900.2L1964.55 3889.02L1974.04 3895.87L1968.4 3901.67L1973.95 3922.68L1962.43 3907.82L1962.77 3927.34L1968.88 3944.26L1979.36 3947.23L1977.54 3965.98L1973.71 3976.38L1988.01 3995.39L1997.26 4016.98L2011.48 4043.39L2010.44 4064.61L2010.07 4065.62L2033.86 4078.77L2052.43 4090.77L2068.48 4102.17L2079.34 4104.5L2081.84 4119.84L2092.81 4122.24L2109.11 4140.38L2117.15 4160.73L2122.55 4184.08L2133.61 4208.42L2139.45 4228.12L2148.08 4244.26L2148.16 4255.31L2159.78 4268.35L2160.04 4286.85L2168.91 4291.92L2172.33 4317.79L2190.3 4328.27L2208.85 4349.47L2221.76 4365.81L2234.42 4381.92L2235.35 4400.23L2220.52 4408.76L2199.27 4402.03L2218.22 4419.13L2225.22 4434.4L2237.79 4443.5L2254.08 4456.47L2269.29 4458.55L2283.06 4474.4L2302.67 4487.42L2313.93 4510L2315.83 4531.41L2307.66 4544.74L2333.92 4558.24L2351.48 4574.04L2369.7 4593.36L2390.7 4609.08L2407.14 4638.43L2427.21 4619.18L2412.06 4600.5L2393.22 4577.96L2377.37 4576.51L2365.78 4557.81L2371.23 4551.52L2357.04 4535.87L2355.66 4521.71L2341.04 4499.01L2332.76 4476.79L2312.18 4453.15L2298.31 4430.08L2281.79 4413.87L2274.18 4391.31L2261.05 4371.35L2244.82 4350.92L2232.2 4331.24L2216.72 4318.03L2207.31 4301.77L2209.99 4284.2L2203.6 4264.74L2200.45 4245.69L2203.01 4231.49L2223.58 4245.7L2235.56 4243.88L2247.53 4256.6L2262.67 4265.67L2263.31 4284.29L2273.21 4307.54L2276.75 4322.47L2289.63 4342.39L2300 4365.37L2319.81 4389.34L2339.93 4413.09L2362.24 4418.77L2364.03 4440.52L2387.59 4460.67L2398.46 4475.7L2407.99 4476.48L2419.06 4491.84L2413.97 4505.58L2415.12 4516.28L2432.51 4528.18L2459.71 4540.55L2475.68 4566.04L2494.03 4581.37L2512.07 4596.14L2531.77 4617.97L2546.95 4632.28L2566.42 4650.46L2581.94 4664.56L2593.38 4692.72L2608.55 4703.3L2610.88 4717L2599.91 4730.79L2608.65 4741.26L2596.59 4751.27L2614.22 4771.99L2634.31 4792.06L2634.89 4792.61L2661.27 4802.88L2684.74 4816.27L2701.97 4833.09L2732.08 4842.8L2757.14 4845.43L2767.68 4845.08L2788.27 4857.72L2816.67 4873.51L2839.47 4879.24L2862.23 4884.48L2885.93 4893.08L2908.2 4895.21L2932.06 4903.41L2956.04 4911.49L2981.89 4912.45L3009.07 4916.59L3035.77 4920.3L3058.21 4907.7L3077.18 4895.3L3098.82 4892.57L3117.96 4893.75L3137.89 4897.53L3158.43 4904.7L3172.06 4912.81L3195.1 4926.29L3217.19 4936.17L3235.46 4946.82L3260.19 4952.74L3283.96 4955.01L3305.85 4951.05L3330.77 4956.41L3344.68 4963.78L3363.17 4960.22L3388.16 4965.14L3406.16 4961.36L3432.11 4955.8L3436.01 4944.8L3456.14 4957.31L3441.19 4960.62L3461.28 4972.99L3479.93 4981.96L3503.69 4993.18L3525.9 5001.09L3548.63 5008.69L3553.94 5023.98L3555.73 5040.17L3567.91 5053.23L3584.1 5052.66L3593.27 5056.64L3604.1 5040.88L3619.39 5049.89L3649.38 5055.19L3668.21 5062.96L3671.06 5081.64L3694.24 5078.31L3708.53 5083.97L3717.58 5075.15L3740.74 5071.53L3764.99 5070.92L3780.35 5079.11L3802.42 5072.32L3813.48 5091.32L3830.95 5082.72L3849.72 5066.98L3826.91 5061.43L3818.94 5050.66L3835.28 5039.18L3846.44 5025.66L3851.85 5007.2L3866.27 5002.37L3887.92 5004.99L3904.48 5015.99L3918.91 5010.97L3912.36 5026.31L3931.01 5042.66L3954.96 5050.67L3974.94 5059.92L3976.88 5075.1L3989.12 5096.47L3995.65 5113.21L4006.09 5128.42L4005.08 5147.57L4023.79 5153.19L4014.59 5172.1L4010.95 5194.82L3985.44 5203.75L3976.68 5224.99L3985.92 5236.96L3968.33 5245.86L3981.06 5256.59L3962.03 5271.86L3936.39 5291.93L3940.94 5312.38L3940.97 5313.8L3926.32 5329.94L3932.31 5345.12L3915.71 5356.13L3931.3 5373.91L3937.22 5388.7L3931.53 5395.82L3948.66 5396.01L3972.74 5404.77L3970.85 5388.92L3989.04 5382.98L3985.76 5394.95L3984.14 5411.92L3971.45 5421.55L3953.11 5437.98L3935.8 5456.79L3940.63 5468.64L3953.41 5480.32L3974.23 5489.41L3962.89 5503.11L3980.7 5505.19L4005.68 5504.96L4023.88 5509.08L4043.01 5515.53L4056.78 5528.29L4082.35 5529.76L4102.14 5537.71L4114.82 5547.9L4127.42 5557.9L4139.53 5567.91L4167.86 5576.38L4180.16 5585.82L4199.26 5592.61L4209.86 5597.96L4227.17 5600.43L4239.16 5609.3L4259.41 5619.23L4260.52 5631.66L4282.78 5635.98L4299.57 5637.76L4316.27 5639.49L4347.86 5637.38L4369.36 5630.59L4393.5 5630.93L4423.74 5626.18L4438.02 5622.25L4461 5620.21L4483.26 5616.37L4499.71 5618.92L4514.54 5615.91L4537.59 5615.13L4540.88 5625.1L4547.75 5634.91L4558.58 5644.55L4558.02 5655.61L4560.84 5664.83L4567.22 5672.18L4566.37 5682.71L4565.92 5692.83L4558.71 5705.93L4561.18 5714.25L4563.66 5722.42L4562.86 5731.85L4568.21 5738.24L4570.1 5744.68L4561.94 5754.07L4570.84 5759.61L4560.6 5775.05L4562.52 5781.98L4554.9 5792.99L4553.73 5800.89L4546.14 5811.38L4553.56 5812.75L4558.64 5819.48L4547.22 5827.85L4545.46 5835.04L4550.39 5839.95L4554.59 5844.04L4555.4 5847.53L4562.34 5848.09L4551.63 5860.1L4555.83 5863.37L4547.62 5870.23L4545.37 5875.99L4537.44 5883.96L4526.79 5892.85L4521.68 5899.14L4516.95 5904.98L4508.6 5909.82L4509.39 5913.07L4494.95 5919.07L4490.08 5924.96L4499.17 5923.8L4499.7 5925.94L4503.19 5926.83L4506.26 5928.05L4492.73 5935.99L4493.21 5938.22L4490.58 5939.83L4488.23 5941.81L4488.6 5942.67L4491.07 5942.05L4496.7 5940.73L4509.83 5935.46L4515.32 5932.16L4531.33 5925.84L4523.29 5930.23L4531.18 5927.27L4523.21 5931.07L4522.91 5932.55L4514.83 5936.64L4519.91 5934.94L4509.08 5939.89L4514.11 5937.9L4500.98 5943.55L4522.03 5936.48L4550.14 5924.14L4577.04 5911.88L4600.15 5901.51L4621.34 5891.5L4641.32 5881.56L4664.87 5870.2L4683.57 5861.17L4709.2 5847.76L4723.25 5840.56L4737.52 5832.87L4747.3 5827.36L4748.36 5825.06L4750.79 5823.61L4749.97 5823.78L4758.93 5818.62L4780.29 5806.37L4761.15 5816.69L4777.57 5807.07L4785.85 5803.05L4800.67 5794.7L4804.54 5792.04L4801.85 5792.62L4778.32 5806.36L4764.35 5813.5L4766.55 5810.74L4763.19 5811.04L4774.56 5803.95L4788.99 5796.89L4803.51 5789.23L4828.58 5774.88L4849.93 5761.61L4853.99 5758.12L4850.01 5759.53L4859.84 5751.68L4866.46 5746.34L4857.77 5749.92L4861.88 5745.39L4868.63 5742.64L4891.64 5728.8L4914.87 5714.12L4930.47 5703.84L4951.1 5690.37L4971.8 5676.04L4987.63 5664.71L5006.59 5650.69L5013.77 5643.47L5028.59 5630.82L5041.22 5618.97L5041.41 5615.41L5029.08 5623.28L5023.45 5623.95L5033.43 5613.21L5024.67 5616.43L5000.12 5630.01L4995.95 5629.7L5002.48 5622.29L5016.7 5616.75L5037.31 5602.8L5046.78 5598.5L5063.92 5588.02L5081.95 5574.52L5101.88 5560.9L5117.29 5549L5133.52 5534.76L5147.81 5521.18L5151.96 5514.92L5168.55 5499.16L5183.64 5482.68L5190.81 5471.94L5204.95 5457.36L5221.42 5440.53L5237.87 5423.6L5249.95 5407.91L5262.27 5391.81L5269.11 5379.82L5281.28 5363.14L5295.42 5344.45L5309.15 5328.21L5317.19 5318.87L5323.94 5305.7L5328.01 5294.63L5327.15 5287.6L5328.95 5275.16L5330.16 5265.71L5343.43 5247.12L5356.91 5227.81L5372.63 5206.14L5385.92 5186.52L5401.04 5169.55L5418.62 5146.85L5428 5141.11L5441.11 5119.04L5455.5 5105.12L5451.14 5102.89L5470.53 5082.38L5484.57 5069.96L5498.72 5055.8L5512.77 5039.83L5526.64 5025.54L5527.43 5016.25L5541.53 4996.29L5555.59 4976.17L5556.48 4964.86ZM2642.2 2380.49L2648.32 2392.72L2650.81 2408.87L2665.48 2408.33L2677.66 2425.68L2689.29 2446.32L2706.53 2430.38L2726.51 2421.61L2729.17 2396.22L2723.99 2373.04L2705.87 2366.69L2719.5 2346.11L2712.07 2325.84L2698.27 2335.73L2682.06 2333.4L2668.01 2341.21L2664.34 2355.27L2674.14 2374.78L2654.86 2373.9L2642.2 2380.49ZM2420.86 2416.11L2432.97 2429.18L2423.41 2442.67L2432.23 2457.22L2453.39 2464.72L2473.15 2466.46L2488.08 2480.95L2466.35 2489.21L2445.41 2485.92L2427.43 2485.01L2423.13 2512.42L2437.68 2526.33L2458.44 2529.53L2460.45 2560.03L2482.81 2559.52L2509.48 2557.65L2536.08 2548.44L2558.11 2542L2577.07 2528.13L2588.97 2543.74L2606.96 2556.13L2627.41 2550.16L2645.63 2536.5L2639.27 2520.59L2657.6 2516.43L2661.61 2495.83L2637.53 2488.93L2618.06 2477.52L2605.97 2461.03L2612.1 2435.98L2607.77 2412.7L2606.38 2395.06L2620.49 2375.1L2629.33 2359.39L2621.03 2347.38L2601.47 2348.23L2586.74 2369.08L2574.78 2389.98L2558.03 2374.6L2540.77 2379.63L2530.07 2368.49L2509.16 2381.67L2511.67 2356.5L2497.94 2354.48L2482.92 2364.37L2465.1 2369.62L2449.2 2377.68L2444.62 2389.44L2430.08 2398.48L2420.86 2416.11ZM1882.66 3077.65L1873.91 3103.83L1879.58 3119.63L1876.24 3143.75L1878.15 3165.81L1888.86 3192.31L1889.89 3167.24L1883.58 3151.46L1892.2 3138.68L1893.85 3113.77L1908.88 3095.31L1895.77 3088.93L1882.66 3077.65ZM1927.92 3276.09L1934.39 3303.54L1946.72 3320.66L1959.14 3337.59L1954.15 3348.05L1966 3360.68L1973.21 3375.46L1985.37 3379.64L1982.6 3390.84L1998.44 3408.2L2011.13 3420.5L2025.48 3416.69L2017.33 3393.79L2003.27 3369.43L1993.99 3345.92L1988.01 3319.32L1972.44 3305.5L1953.16 3290.45L1939.36 3272.7L1927.92 3276.09ZM3605.32 1959.01L3594.7 1954.71L3591.04 1938.04L3568.13 1932.61L3567.23 1918.9L3582.93 1921.35L3602.52 1925.1L3614.81 1916.93L3618.39 1901.21L3596.96 1893.01L3578.57 1887.01L3556.31 1890.21L3535.69 1896.98L3516.47 1901.57L3531.88 1891.44L3548.39 1880.4L3534.74 1873.02L3511.63 1868.79L3501.03 1877.18L3496.41 1866.07L3491.72 1857.89L3495.13 1844.82L3479.22 1840.35L3466.63 1849.61L3465 1825.01L3447.92 1816.39L3443.12 1827.98L3422.12 1815.96L3399.94 1810.57L3375.68 1810.12L3365.76 1821.47L3349.8 1816.52L3342.72 1805.08L3356.61 1791.51L3342.63 1786.44L3318.28 1786.83L3300.64 1789.84L3279.96 1781.51L3260.87 1780.06L3250.33 1770.73L3233.55 1764.72L3216.07 1755.69L3198.71 1744.67L3186.57 1734.19L3164.76 1717.24L3146.2 1724.24L3135.71 1739.69L3146.68 1750.66L3139.49 1756.81L3148.12 1765.36L3154.22 1776.95L3154.65 1791.34L3138.63 1780.28L3131.65 1769.13L3125.83 1764.23L3112.91 1763.43L3110.35 1773.57L3122.37 1776.34L3120.93 1785.41L3104.43 1781.09L3091.71 1802.36L3088.99 1792.6L3097.44 1780.62L3101.37 1763.7L3094.99 1751.65L3079.48 1756.81L3068.97 1765.64L3055.7 1766.44L3037.64 1773.08L3026.2 1788.59L3011.17 1804.14L3008.96 1820.86L3001.12 1841.58L3003.8 1858.79L3013.67 1871.31L2997.98 1882.19L3008.68 1896.8L2983.32 1900.35L2965.28 1924.29L2958.57 1943.11L2970.61 1950.48L2973.94 1961.38L2960.98 1966.66L2958.75 1979.26L2955.22 1997.96L2957.69 2016.08L2976.56 2006.12L2987.26 2014.76L2990.3 2037.42L2970.41 2055.46L2961.88 2071.12L2948.03 2084.59L2948.8 2101.67L2949.98 2102.33L2965.53 2107.19L2976.63 2100.07L2985.71 2110.56L3004.43 2111.67L2991.69 2122.2L2984.68 2135.4L2997.48 2139.15L3015.74 2139.31L3012.52 2150.61L3027.26 2154.57L3050.73 2152.18L3058.67 2138.46L3076.28 2126.74L3092.99 2117L3117.44 2118.5L3137.12 2113.08L3146.39 2124.05L3163.79 2129.64L3186.54 2137.48L3200.36 2153.05L3220.68 2160.07L3234.12 2171.58L3247.19 2192.62L3264.37 2201.52L3273.47 2220.49L3286.72 2224.56L3301.3 2213.95L3299.19 2197.96L3323.16 2210.74L3341.73 2205.35L3361.07 2217.45L3333.35 2222.81L3315.67 2234.55L3328.62 2255.89L3342.29 2276.77L3367.93 2277.64L3381.7 2257.81L3379.02 2235.02L3403.53 2248.15L3423.88 2273.68L3403.55 2289.79L3406.02 2310.41L3418.97 2332.95L3435.06 2352.63L3453.48 2366.29L3468.45 2382.71L3499.31 2386.95L3523.28 2400.94L3541.4 2420.22L3561.77 2422.86L3576.08 2435.57L3613.85 2448.31L3628.2 2455.75L3655.89 2466.88L3679.93 2476.23L3715.21 2481.16L3739.15 2464.58L3759.41 2456.51L3782.39 2460.63L3813.62 2452.1L3818.03 2436.62L3806.97 2415.19L3790.59 2399.1L3776.62 2380.68L3765.95 2358.78L3736.34 2345.4L3737.07 2322.88L3728.94 2298.18L3713.95 2280.9L3696.71 2266.11L3665.15 2255.6L3680.59 2244.73L3669.1 2229.13L3676.36 2209.21L3693.23 2189.3L3694.91 2163.41L3691.59 2143.29L3686.53 2124.34L3675.16 2108.45L3662.45 2093.66L3653.13 2073.89L3650.41 2057.98L3661.59 2041.27L3661.3 2020.61L3664.18 2001.93L3662.74 1981.71L3659.02 1964.91L3651.03 1946.88L3643.43 1928.44L3633.06 1915.31L3621.79 1928.73L3602.86 1940.16L3605.32 1959.01ZM3818.2 2016.57L3827.2 2007.2L3826.32 1992.43L3837.89 1985.51L3847.22 2002.37L3852.66 2025.61L3863.21 2004.55L3888.99 2004.73L3901.49 2023.73L3914.16 1996.81L3931.8 1985.56L3946.95 1968.66L3938.96 1946.5L3940.68 1931.02L3930.53 1911.83L3925.92 1888.09L3907.24 1869.02L3881.13 1861.7L3865.47 1873.06L3839.05 1866.75L3838.47 1880.81L3824.54 1885.66L3836.34 1898.39L3840 1911.49L3828.81 1918.59L3827.09 1934.15L3835.58 1943.97L3821.05 1948.34L3842.45 1957.44L3842.36 1975.9L3816.62 1967.38L3797.32 1972.41L3788.35 1981.38L3799.18 1985.66L3794.38 1995.07L3808.41 2002.32L3818.2 2016.57ZM2309.03 1522.08L2287.27 1525.34L2275.8 1534.39L2271.22 1545.89L2265.56 1559.46L2254.35 1565.5L2254.29 1576.61L2258.86 1586.53L2267.14 1587.63L2278.75 1580.38L2283.56 1574.37L2302.68 1566.66L2296.15 1556.05L2323.02 1543.82L2326.23 1530.43L2309.03 1522.08ZM2695.77 1362.24L2681.84 1373.47L2662.25 1380.4L2647.39 1390.47L2652.14 1402.5L2664.24 1407.34L2679.3 1408.84L2686.87 1401.4L2689.74 1388.78L2693.38 1374L2695.77 1362.24ZM2770.38 1401.51L2765.35 1391.2L2748.95 1390.23L2741.33 1380.55L2723.09 1381.04L2708.77 1380.62L2696.22 1386.71L2701.36 1396.65L2698.36 1409.32L2707.5 1415.66L2721.11 1416.35L2726.83 1424.04L2724.17 1431.89L2732.84 1436.63L2739.5 1442.01L2755.6 1428.53L2758.92 1415.82L2770.38 1401.51ZM3309.47 1218.97L3308.36 1205.25L3306.35 1193.84L3292.58 1184.16L3275.12 1176.02L3261.15 1176.85L3268.96 1188.88L3264.46 1200.2L3253.58 1212.01L3238.84 1222.76L3220.7 1230.08L3200.49 1236.69L3180.45 1243.87L3160.68 1251.36L3138.14 1258.14L3118.39 1266.27L3095.33 1271.16L3071.67 1276.78L3051.43 1278.15L3028.77 1282.24L3008.2 1287.05L2996.66 1300.25L3006.22 1306.19L3027.7 1301.67L3042.44 1294.07L3065.38 1293.01L3084.48 1296.96L3110.7 1292.91L3129.6 1287.16L3142.54 1282.87L3166.18 1281.94L3175.19 1274.02L3199.51 1263.12L3222.54 1257.35L3226.71 1248.01L3245.28 1246.5L3267.93 1238.53L3275.21 1230.16L3294.5 1229.49L3309.47 1218.97ZM4483.39 1997.72L4502.42 1999.44L4515.27 1992.83L4515.35 1973.39L4510.99 1954.33L4499.39 1932.95L4498.32 1911.77L4481.16 1902.3L4463.47 1892.54L4441.56 1887.03L4422.94 1884.52L4410.24 1866.23L4387.97 1862.9L4372.72 1865.04L4367.06 1877.14L4361.35 1890.95L4366.31 1908.4L4382.72 1922.95L4391.87 1915.38L4401.57 1925.86L4399.4 1937.72L4396.67 1951.49L4409.88 1961.88L4419.32 1954.2L4427.94 1968.66L4444.31 1963.48L4446.33 1952.98L4465.71 1971.61L4485.97 1985.2L4483.39 1997.72ZM1023.95 4034.46L1023.31 4046.36L1019.67 4048.19L1021.71 4067.93L1020.45 4076.59L1024.98 4089.11L1027.73 4085.21L1032.03 4085.85L1037.61 4091.41L1041.68 4089.64L1037.97 4078.17L1036.56 4066.6L1032.48 4055.68L1028.09 4045.37L1023.95 4034.46ZM1650.65 1516.04L1638.99 1527.24L1632.34 1534.31L1626.42 1542.87L1624.11 1548.07L1624.07 1551.24L1628.59 1551.24L1625.7 1558.04L1624.63 1564.12L1620.74 1573.74L1626.88 1572.69L1631.54 1572.63L1642.54 1567.72L1653.57 1562.08L1661.91 1559.84L1665.83 1561.6L1668.33 1565.06L1670.98 1567.5L1680.42 1560.86L1688.98 1557.96L1693.57 1559.95L1708.6 1547.23L1722.22 1536.27L1728.91 1533.31L1743.76 1519.93L1755.24 1507.65L1755.08 1499.46L1768.05 1483.36L1768.52 1488.02L1776.96 1486.06L1785.84 1475.77L1784.91 1470.14L1793.17 1468.33L1801.28 1466.76L1813.1 1453.69L1828.61 1441.34L1834.93 1439.16L1826.35 1451.44L1823.09 1461.62L1818.58 1472.13L1816.09 1482.41L1817.42 1490.7L1816.86 1498.11L1813.79 1508.38L1810.63 1517.39L1813.33 1521.74L1815.17 1527.64L1811.39 1537.94L1814.7 1542.22L1811.51 1552.37L1799.91 1568.67L1786.7 1585.38L1774.86 1600.64L1766.31 1607.25L1765.6 1615.69L1749.68 1632.33L1742.82 1644.66L1732.76 1656.46L1736.41 1656.88L1742.28 1656.58L1738.79 1664.52L1726.56 1677.19L1716.97 1689.14L1713.82 1697.18L1703.1 1705.05L1702.52 1696.79L1692.79 1703.29L1685.51 1715.15L1680.62 1729.85L1681.27 1735.58L1671.88 1748.26L1663.11 1768.05L1673.67 1759.59L1682.36 1747.18L1693.79 1748.25L1701.51 1752.89L1704.65 1762.48L1712.33 1768.18L1719.96 1773.98L1717.23 1788.8L1712.81 1803L1702.84 1815.83L1701.96 1827.73L1687.17 1826.13L1676.09 1831.48L1663.71 1839.85L1668.39 1849.88L1674.34 1857.16L1681.18 1862.78L1679.92 1872.73L1693.22 1867.49L1705.03 1867.51L1704.1 1884.2L1696.71 1891.9L1692.1 1884.34L1690.87 1884.93L1676.61 1888.35L1658.81 1893.44L1649.36 1893.86L1649.42 1881.71L1646.42 1872.07L1638.07 1870.59L1630.02 1864.31L1623.4 1854.72L1613.85 1852.67L1607.03 1845.65L1600.98 1837.05L1600.33 1826.23L1606.43 1813.8L1595.4 1820.89L1586.53 1819.71L1588.21 1809.02L1576.77 1810.15L1565.52 1811.36L1550.62 1816.83L1538.51 1823.63L1523.36 1833.41L1510.89 1841.97L1493.65 1853.38L1477.77 1862.96L1459.34 1878.32L1445.82 1887.28L1435.33 1893.44L1425.31 1902.08L1426.36 1911.53L1430.82 1917.94L1440.63 1919.8L1454.2 1914.45L1457.57 1921.77L1450.69 1937.51L1462.55 1929.26L1475.31 1923.5L1480.34 1928.64L1478.51 1941.42L1472.2 1952.88L1476.03 1957.27L1491.12 1942.43L1506.07 1932.97L1515.24 1933.48L1516.45 1940.67L1506.19 1952.57L1508.21 1958.08L1524.05 1946.98L1531.68 1936.6L1544.15 1930.31L1553.31 1933.41L1564.87 1918.66L1563.28 1911.77L1577.04 1902.78L1586.61 1904.5L1595.54 1909.3L1606.91 1907.8L1618.75 1904.82L1618.95 1917.19L1610.17 1929.96L1617.76 1935.05L1618.48 1947.3L1599.88 1956.33L1610.01 1961.31L1614.91 1969L1616.75 1979.43L1610.38 1996.66L1599.71 2012.43L1587.08 2026.97L1602.26 2024.05L1607.82 2033.82L1616.39 2041.99L1625.51 2048.51L1635.28 2054.6L1636.51 2065.51L1646.51 2071.35L1651.06 2082.89L1658.92 2089.9L1658.13 2108.58L1649.32 2127.02L1663.76 2128.6L1675.12 2114.97L1692.62 2098.04L1710.24 2083.88L1722.04 2073.41L1722.41 2061.06L1737.35 2052.81L1734.01 2071.6L1742.82 2079.77L1747.54 2083.15L1747.94 2083.8L1751.9 2085.4L1770.02 2080.92L1781.76 2064.73L1794.1 2070.61L1779.3 2081.46L1764.33 2094.98L1762.11 2108.39L1768.62 2114.22L1764.21 2131.73L1749.48 2143.77L1741.82 2160.22L1732.38 2183.43L1728.83 2201.88L1744.23 2195L1757.44 2194.88L1775.17 2182.46L1778.38 2197.13L1791.7 2195.43L1803.08 2198.87L1814.86 2175.22L1827.62 2154.09L1829.68 2131.04L1826.89 2113.95L1841.47 2098.01L1852.39 2080.19L1863.69 2059.25L1871.89 2038.46L1883.77 2020.6L1895.96 2002.92L1896.61 2002.46L1899.35 1998.18L1908.91 1980.43L1915.45 1962.56L1925.89 1943.32L1927.46 1925.39L1932.85 1907.9L1938.31 1890.78L1944.45 1872.75L1922.6 1880.49L1905.83 1891.48L1897.93 1887.65L1897.22 1878.06L1910.18 1870.52L1919.43 1855.86L1931.93 1850.85L1929.25 1862.09L1937.94 1861.97L1947.64 1845.77L1937.11 1842.66L1930.05 1837.28L1940.7 1819.16L1950.62 1797.78L1955.1 1777.18L1962.75 1757.83L1977.75 1741.72L1990.2 1744.8L2007 1738.01L2020.28 1726.78L2030.22 1711.21L2041.57 1693.87L2044.48 1678.49L2051.33 1666.32L2055.38 1654.46L2066.96 1653.69L2081.08 1643.99L2087.28 1634.1L2100.3 1626.71L2118.27 1624.71L2132.87 1611.09L2144.86 1594.15L2164.78 1578.84L2178.57 1565.23L2192.24 1551.91L2209.03 1535.67L2194.91 1538.81L2207.01 1525.23L2203.41 1519.78L2190.75 1521.29L2173.94 1524.2L2190.87 1508.71L2206.81 1489.48L2219.68 1482.54L2225.43 1473.95L2224.67 1466.49L2238.56 1459.07L2258.75 1454.09L2251.47 1447.35L2243.62 1441.39L2243.7 1431.33L2258.01 1424.14L2277.85 1419.7L2297 1418.85L2298.9 1429.83L2307.61 1437.95L2332.31 1433.13L2353.14 1422L2380.23 1409.28L2399.31 1395.76L2394.18 1389.71L2382.03 1388.84L2395.09 1377.69L2419.14 1364.25L2439.29 1356.29L2444.61 1364.06L2460.52 1354.55L2478.3 1348.82L2489.53 1340.59L2500.45 1330.37L2518.26 1335.96L2517.52 1345.15L2532.5 1339.64L2535.86 1333.63L2518.26 1335.96L2510.67 1329.42L2522.34 1323.53L2534.08 1321.72L2547.89 1319.42L2552.76 1310.86L2541.88 1309.73L2556.16 1299L2569.87 1289.07L2583.3 1283.36L2578.95 1295.1L2578.2 1295.8L2566.69 1304.62L2555.65 1320.06L2544.52 1333.67L2533.66 1350.01L2525.92 1362.78L2531.82 1373.22L2541.41 1379.71L2556.84 1380.89L2571.28 1378.34L2587.67 1372.75L2601.49 1366.58L2602.06 1359.64L2616.17 1353.58L2610.77 1369.2L2626.07 1364.95L2643.07 1358.24L2628.69 1373.04L2650.41 1373.36L2662.66 1359.95L2674.54 1344.75L2671.51 1332.76L2692.22 1326.04L2686.27 1319.4L2715.17 1306.55L2712.5 1315.61L2736.14 1302.97L2752.36 1298.99L2764.34 1287.96L2782.37 1279.96L2804.72 1269.59L2819.6 1258.96L2832.09 1249.01L2834.89 1240.31L2830.92 1231.05L2853.32 1225.77L2873.34 1219.56L2896.22 1215.22L2918.17 1211.65L2917.6 1197.72L2922.65 1185.59L2906.06 1182.92L2900.75 1173.78L2919.68 1168.49L2929.51 1177.22L2941.58 1182.33L2955.02 1181.8L2961.98 1187.55L2975.19 1181.28L2961.22 1173.77L2971.33 1169.47L2979.5 1175.22L2993.04 1171.25L2991.8 1161.31L2975.02 1155.87L2970.85 1150.24L2991.35 1153.63L3011.65 1157.27L3004.52 1169.15L2992.98 1179.2L2989.29 1191.41L2997.4 1199.7L3003.96 1195.82L2995.88 1189.47L2999.58 1181.21L3011.02 1173.31L3026.03 1169.57L3041.77 1158.02L3037.69 1149.93L3036.95 1140.04L3050.54 1130.88L3060.71 1119.74L3066.12 1106.62L3042.6 1104.41L3060.83 1099.15L3069.72 1088.46L3073.16 1076.09L3093.52 1067.67L3108.67 1059.34L3131.32 1053.39L3151.45 1049.32L3162.42 1058.9L3134.16 1064.06L3117.34 1070.21L3099.32 1078.46L3092.46 1087.32L3079.35 1095.88L3088.2 1105.57L3079.93 1116.59L3069.08 1129.44L3060.88 1140.85L3052.73 1152.39L3057.42 1162.83L3042.5 1172.36L3041.74 1173.09L3030.45 1181.97L3025.06 1190.24L3040.11 1197.4L3031.6 1203.27L3032.23 1211.83L3048.51 1208.64L3063.05 1199.18L3078.06 1189.69L3089.66 1177.91L3104.33 1168.73L3127.48 1163.07L3138.37 1153.76L3139.7 1143.62L3153.99 1134.91L3160.73 1127.64L3150.87 1122.31L3153.22 1110.64L3146.63 1104.02L3163.93 1094.19L3171.91 1100.91L3175.5 1109.19L3188.08 1115.07L3196.24 1122.44L3209.06 1126.6L3216.67 1136.69L3232.19 1141.97L3245.72 1153.93L3249.5 1166.59L3264.55 1161.3L3263.18 1153.91L3255.86 1145.24L3259.81 1136.97L3259.66 1128.22L3274.08 1125.03L3285.66 1125.71L3294.25 1118.76L3302.75 1123.33L3287.91 1135.09L3304.96 1135.07L3326.6 1132.11L3339.46 1138.27L3355.4 1141.12L3369.36 1136.34L3371.28 1146.57L3357.94 1156.61L3377.36 1156.23L3396.85 1156.23L3416.15 1158.79L3434.7 1158.91L3456.72 1160.81L3473.59 1163.61L3492.59 1153.6L3511.7 1154.87L3524.78 1161.59L3519.92 1170.56L3525.98 1179.4L3504.62 1182.25L3487.45 1175.84L3478.74 1185.66L3477.45 1193.69L3491.26 1201.43L3499.85 1212.76L3503.68 1199.52L3523.56 1190.05L3544.84 1184.57L3542.39 1177.13L3559.44 1169.35L3578.12 1168.69L3582.1 1176.73L3591.34 1185.78L3611.62 1186.19L3632.74 1190.95L3654.8 1193.56L3663.86 1183.76L3675.56 1172.99L3687.08 1184.38L3691.39 1193.84L3693.14 1205.27L3699.5 1214L3717.19 1213.97L3723.76 1202.07L3714.68 1195.07L3733.21 1189.21L3748.49 1201.29L3744.77 1215.62L3747.55 1228.99L3728.26 1234.41L3712.07 1239.1L3692.76 1244.86L3686.88 1259.23L3685.41 1270.08L3671.26 1281.33L3675.8 1268.69L3675.37 1267.79L3670.42 1256.02L3669.64 1243.79L3663.21 1234.27L3655.17 1224.35L3649.28 1212.68L3632.38 1203.9L3610.54 1198.37L3590.73 1197.77L3572.92 1205.05L3561.69 1213.85L3560.06 1225.89L3561.74 1237.35L3559.97 1250.11L3557.36 1262.94L3559.2 1275.96L3565.46 1289.01L3574.74 1302.01L3561.7 1306.51L3563.44 1317.07L3577.13 1321.85L3584 1333.7L3579.78 1348.79L3573.82 1336.83L3550.89 1331.33L3548.59 1342.91L3546.52 1355.29L3549.38 1368.47L3579.98 1369.58L3564.1 1376.66L3585.05 1381.64L3559.56 1387.49L3572.15 1392.96L3589.82 1394.72L3584.77 1405.68L3601.44 1412.45L3624.44 1416.47L3639.27 1428L3640.05 1428.88L3645.9 1440.5L3647.57 1441.16L3672.34 1445.43L3684.73 1455.74L3699.9 1453.63L3700.57 1446.9L3719.81 1454.83L3705.5 1457.74L3719.75 1463.51L3696.23 1463.57L3714.83 1470.96L3729.99 1479.85L3738.78 1472.17L3752.09 1486.65L3774.09 1493.9L3754.33 1482.54L3746.36 1471.37L3737.35 1458.6L3765.23 1469.58L3785.08 1471.77L3807.69 1480.31L3828.8 1485.23L3848.72 1488.36L3869.39 1492.83L3893.68 1497.38L3911.98 1508.28L3941.18 1517.12L3961.92 1525.42L3982.94 1534.03L3973.67 1542.05L3994.01 1548.74L4010.54 1556.78L4017.05 1571.84L4037.86 1583.19L4054.43 1594.43L4071.47 1607.51L4085.67 1603.77L4101.54 1611.98L4120.17 1611.26L4138.91 1612.02L4156.21 1605.92L4172.2 1613.2L4186.66 1612.17L4181.11 1599.08L4197.18 1609.31L4216.21 1613.29L4226.21 1607.48L4234.9 1594.44L4235.77 1580.27L4221.66 1564.81L4205.13 1554.85L4183.51 1540.66L4181.37 1532.37L4165.33 1525.92L4174.06 1518.52L4198.43 1516.18L4218.72 1512.05L4220.07 1511.99L4242.39 1508.46L4262.45 1504.58L4277.29 1495.89L4293 1501.5L4309.23 1497.35L4323.42 1498.7L4319.3 1486.83L4315.52 1476.59L4301.95 1476.86L4280.64 1466.84L4276.16 1455.51L4272.03 1445.5L4244.32 1437.36L4218.25 1433.57L4198.99 1430.26L4177.54 1429.75L4162.22 1426.98L4142.18 1415.16L4125.86 1403.73L4121.5 1408.86L4106.45 1400.23L4093.85 1396.79L4081.06 1400.88L4071.62 1410.99L4061.89 1421.13L4044.17 1422.78L4021.33 1421.28L3998.94 1420.9L3985.85 1416.85L3959.65 1409L3940.28 1400.08L3924.84 1392.35L3908.08 1382.63L3891.06 1380.05L3871.96 1373.43L3866.02 1382.97L3848.21 1378.68L3838 1381.09L3826.58 1375.24L3809.43 1372.39L3807.34 1363.19L3802.33 1355.63L3793.76 1348.66L3800.99 1336.83L3821.97 1333.07L3834.53 1339.51L3860.48 1343.18L3884.5 1350.76L3912.37 1358.44L3936.85 1367.2L3961.45 1370.51L3982.19 1367.57L4000.14 1360.17L4024.15 1363.22L4038.19 1362.3L4042.49 1351.05L4048.64 1343.29L4047.45 1329.85L4035.52 1317.42L4019.64 1305.74L4003.55 1294.21L3987.62 1282.96L3975.38 1267.97L3983.71 1256.11L3972.94 1248.07L3984.84 1240.3L3989.51 1253.98L4012.07 1263.19L4026.65 1267.38L4038.41 1281.98L4041.28 1295L4053.84 1307.36L4065.23 1318.62L4082.06 1327.43L4099.48 1326.3L4114.47 1321.68L4112.05 1313.08L4132.62 1311.92L4153.17 1310.91L4168.51 1318.05L4171.06 1326.91L4160.26 1332.39L4154.64 1340.26L4165.34 1351.57L4189.36 1356.48L4206.16 1361.57L4230.38 1361.63L4250.4 1360.52L4274.2 1366.32L4311.26 1384.04L4322.84 1392.9L4327.98 1402.83L4326.44 1403.4L4309.94 1407.53L4320.19 1422L4333.93 1436.96L4352.95 1449.91L4362.47 1464.99L4378.93 1481.3L4378.9 1490.04L4375.42 1499.83L4365.88 1491.48L4353.56 1496.09L4366.82 1504.68L4374.65 1517.35L4383.95 1525.97L4397.5 1536.72L4400.59 1547.62L4385.5 1542.42L4379.32 1558.12L4368.54 1556.56L4360.43 1565.81L4337.17 1556.8L4313.45 1546.51L4302.87 1533.87L4288.53 1532.32L4291.31 1542.64L4276.92 1541.04L4257.31 1534.78L4242.87 1533.45L4249.39 1545.26L4265.68 1553.95L4272.69 1567.6L4285.3 1576.37L4300.48 1581.28L4322.38 1584.29L4340.39 1585.26L4349.32 1577.62L4371.05 1580.85L4383.95 1576.82L4392.68 1584.2L4402.12 1579.59L4414.71 1589.42L4429.27 1593.29L4424 1601.67L4426.56 1614.66L4438.55 1623.12L4441.61 1641.14L4450.69 1654.14L4468.85 1657.9L4471.07 1650.23L4481.82 1652.46L4493.79 1663.34L4487.68 1670.19L4466.18 1665.51L4470.89 1672.94L4489.01 1680.34L4504.18 1688.83L4519.1 1699.03L4534.14 1711.29L4542.5 1725.29L4554.3 1742.31L4562.32 1756.68L4576.59 1764.31L4594.49 1771.15L4601.66 1782.39L4630.62 1839.12L4612.77 1838.81L4612.47 1851.95L4633.79 1851.46L4658.61 1856.38L4658.28 1869.53L4661.02 1886.07L4646.83 1888.6L4649.2 1905.05L4655.49 1919.15L4657.63 1933.74L4678.69 1939.99L4686.6 1932.99L4687.48 1921.32L4698.77 1911.78L4702.9 1897.45L4710.04 1896.09L4724.04 1891.62L4734.33 1897.42L4744.78 1895.4L4755.22 1887.47L4772.54 1888.08L4796.09 1899.24L4819.58 1910.76L4836.5 1919.61L4859.69 1933.5L4860.76 1934.09L4869.47 1943.95L4872.69 1958.05L4868.48 1970.95L4864.09 1990.38L4869.2 2014.56L4860.87 2028.11L4855.62 2045.55L4856.37 2066.05L4853.98 2082.99L4841.07 2097.15L4856.27 2113.79L4856.7 2130.43L4865.34 2141.9L4890.11 2142.96L4906.15 2153.68L4919.33 2158.43L4939.46 2164.31L4955.2 2175.56L4973.53 2190.39L4995.09 2205.33L5006.3 2221.6L5024.58 2234.76L5038.24 2235.18L5040.34 2223.92L5058.54 2237.2L5077 2248.34L5091.55 2262.49L5091.21 2244.02L5096.83 2232.02L5092.37 2216.88L5094.14 2205.19L5105.27 2196.68L5115.09 2197.41L5134.43 2199.08L5142.31 2188.69L5128.44 2165.61L5123.51 2148.06L5121.92 2130.26L5123.05 2113.88L5123.99 2097.83L5124.62 2081.81L5109.5 2064.01L5091.25 2040.48L5089.71 2039.07L4964.13 1917.77L4963.63 1916.52L4957.03 1902.06L4949.99 1884.63L4935.67 1864.16L4924.84 1847.56L4902.32 1840.69L4882.73 1834.91L4871.49 1816.87L4860.51 1802.94L4865.65 1791.37L4866.73 1776.3L4874.56 1765.85L4869.12 1750.44L4854.02 1735.94L4841.51 1718.56L4832.43 1702.74L4817.71 1692.54L4809.17 1680.71L4809.69 1670.15L4814.6 1664.57L4814.37 1652.13L4833.5 1656.15L4848.44 1655.5L4861.2 1648.92L4873.88 1651.28L4870.46 1639.53L4882.71 1632.91L4895.67 1628.28L4901.34 1619.66L4895.95 1604.17L4904.91 1598.38L4910.65 1591.58L4911.12 1585.01L4924.14 1584.16L4924.11 1570.59L4935.56 1572.78L4948.59 1572.16L4963.22 1575.61L4974.82 1584.77L4991.33 1594.02L5000.44 1597.38L4997.15 1589.45L4996.66 1588.75L4986.31 1582.1L4973.82 1570.94L4958.88 1565.67L4947.51 1551.8L4932.12 1546.64L4928.08 1555.26L4907.89 1545.28L4893.02 1535.62L4895.01 1528.2L4892.66 1517.73L4903.86 1519.46L4903.49 1512.98L4889.1 1505.23L4879.46 1511.95L4875.55 1520.45L4871.42 1529.03L4867.92 1539.63L4866.42 1549.12L4851.54 1539.7L4859.31 1558.62L4855.02 1569.05L4849.74 1577.59L4842.3 1580.45L4826.76 1577.78L4812.53 1578.79L4806.77 1587.29L4800.05 1593.82L4790.21 1599.64L4777.67 1597.8L4763.08 1590.54L4754.95 1593.5L4741.14 1588.02L4738.22 1578.99L4724.63 1565.44L4724.04 1555.32L4735.2 1561.27L4748.09 1562.98L4755.94 1559.95L4746.6 1551.02L4732.81 1545.79L4740.38 1534.64L4756.09 1536.76L4763.71 1533.75L4776.6 1537.08L4781.11 1526.8L4788.4 1523.77L4785.94 1511.8L4794.61 1499.57L4804.47 1490.74L4807.72 1480.48L4814.57 1472.84L4818.25 1464.35L4834.76 1470.37L4857.26 1478.39L4875.72 1483.79L4879.87 1477.06L4891.09 1474.33L4899.93 1472.37L4913.62 1470.36L4923.34 1465.88L4916.18 1450.02L4903.09 1432.38L4909.9 1428.56L4904.29 1416.62L4908.82 1409.41L4888.31 1402.94L4885.52 1392.16L4885.73 1399.27L4875.57 1397.7L4875.55 1404.82L4871.68 1409.59L4862.22 1409.6L4855.15 1413.6L4844.66 1416.53L4822.62 1409.06L4830.59 1402.35L4823.62 1391.67L4812.18 1385.68L4806.72 1388.63L4799.65 1378.09L4787.1 1370.67L4783.1 1361.01L4773.63 1351.57L4768.21 1340.45L4774.9 1336.52L4764.3 1325.67L4782.31 1336.92L4791.12 1339.1L4792.3 1339.36L4814.14 1347.89L4798.19 1330.01L4809.46 1335.58L4828.32 1339.38L4834.13 1338.29L4841.29 1344.36L4838.19 1348.99L4850.82 1353.95L4848.59 1345.21L4847.2 1337.99L4860.26 1343.27L4861.7 1337.04L4878.42 1347.43L4869.88 1336.89L4861.32 1326.44L4872.66 1332.64L4862.48 1320.56L4864.46 1311.05L4860.61 1302.47L4838.47 1284.69L4821.83 1277.18L4813.47 1266.42L4807.14 1254.04L4812.85 1252.34L4808.34 1244.25L4794.45 1234.45L4786.09 1226.58L4765.32 1214.09L4746.07 1203.25L4739.96 1193.05L4732.95 1187L4711.54 1174.99L4717.62 1175.66L4735.46 1184.56L4742.04 1184.47L4756.03 1190.59L4776.74 1196.97L4790.32 1200.42L4810.48 1210.89L4833.63 1221.82L4854.19 1232.13L4873.03 1241.18L4891.5 1250.22L4913.87 1263.07L4930.96 1273.78L4949.88 1290.18L4964.68 1303.1L4964.36 1306.86L4977.58 1314.51L4981.58 1321.17L4969.62 1315.05L4980.72 1327.82L4995.01 1341.42L5014.11 1357.24L5031.56 1371.54L5043.92 1383.81L5047.26 1393.09L5058.2 1406.23L5062.09 1415.05L5064.15 1421.93L5072.02 1434.27L5079.52 1446.35L5091.86 1460.96L5082.65 1460.64L5092.27 1474.38L5096.43 1485.68L5102.53 1498.08L5090.67 1494.26L5093.9 1505.52L5101.11 1520.3L5112.05 1535.48L5125.71 1552.07L5147.23 1572.77L5147.95 1573.49L5196.95 1600.53L5197.92 1600.65L5210.54 1613.37L5221.41 1626.54L5225.41 1637.89L5220.76 1644.98L5218.33 1656.62L5222.55 1675.08L5226.52 1689.04L5223.75 1697.83L5222.68 1698.58L5218.17 1700.11L5201.51 1691.65L5201.78 1703.83L5199.14 1714.75L5202.01 1728.81L5206.05 1747.19L5211.71 1764.61L5210.04 1774.96L5206.09 1786.31L5192.84 1783.21L5199.01 1795.97L5196.09 1804.17L5182.01 1798.98L5170.95 1785.96L5156.39 1769.3L5139.71 1755.76L5125.76 1751.08L5122.14 1757.13L5102.45 1751.88L5093.97 1740.66L5076.99 1727.71L5090.8 1748.79L5074.33 1747.2L5074.63 1758.81L5080.69 1772.91L5092.21 1787.61L5098.34 1802.09L5096.06 1818.83L5104.37 1832.7L5101.52 1849.51L5112.4 1864.95L5117.31 1879.67L5112.63 1885.63L5111.3 1899.5L5113.01 1915.24L5117.43 1927.89L5118.62 1941.32L5125.49 1957.78L5129.95 1977.69L5133.77 1999.63L5134.26 2000.4L5161.86 2069.57L5162.59 2070.64L5173.75 2083.3L5182.33 2107.25L5184.97 2123.18L5175.22 2134.31L5177.42 2147.84L5176.05 2166.49L5177.95 2180.13L5164.23 2191.93L5151.59 2191.83L5152.82 2207.67L5169.96 2225.9L5184.45 2239.83L5198.06 2256.29L5211.81 2273.1L5220.92 2297.81L5224.07 2318.73L5230.33 2339.3L5243.04 2359.03L5251.99 2379.43L5263.3 2387.42L5276.07 2405.19L5282.49 2421.25L5310.23 2442L5322.99 2442.95L5340.49 2465.16L5351.96 2486.26L5362.45 2509.37L5366.3 2534.05L5377.18 2555.31L5379.93 2582.69L5376.22 2608.16L5386.52 2629.73L5400.42 2648.59L5408.3 2665.45L5411.32 2688.04L5416.5 2702.8L5429.95 2721.75L5440.77 2738.92L5455.36 2763.14L5463.26 2788.49L5471.83 2810.98L5480.79 2830.8L5496.92 2858.16L5505.8 2878.44L5508.86 2896.48L5521.51 2913.95L5534.09 2931.25L5547.89 2927.1L5563.84 2925.88L5564.7 2926.41L5576.97 2940.51L5581.73 2961.2L5598.5 2964.94L5613.17 2974.02L5625.71 2988.8L5637.21 3006.26L5647.53 3026.84L5657.53 3047.47L5673.46 3067.54L5679.08 3091.03L5685.73 3112.19L5686.27 3133.98L5697.12 3127.27L5711.43 3133.84L5725.18 3148.61L5735.09 3166.54L5747.65 3184.39L5757.96 3177.56L5768.1 3171.07L5770.98 3153.82L5785.76 3171.35L5793.94 3161.99L5805.84 3163.04L5816.83 3167.11L5826.12 3160.12L5838.53 3158.21L5849.68 3159.17L5859.89 3171.55L5868.52 3181.15L5877.66 3188.28L5891.24 3186L5900.21 3176.14L5908.83 3166.28L5919.34 3163.99L5930.34 3150.91L5942.3 3148.62L5950.63 3144.28L5959.24 3136.83L5969.59 3129.04L5975.17 3116.73L5978.64 3104.85L5976.14 3077.37L5977.48 3054.11L5973.99 3029.92L5975.06 3007.04L5975.62 2984.24L5975.65 2967.34L5976.99 2950.05L5981.43 2929.32L5983.59 2914.55L5988.4 2902.14L5984.77 2880.21L5982.45 2859.41L5982.3 2858.06L5970.96 2770.79L5970.58 2767.67L5964.58 2749.2L5960.83 2724.97L5958.24 2705.53L5957.03 2688.7L5953.92 2666.71L5952.02 2647.34L5953.05 2635.78L5957.8 2631.23L5967.72 2642.66L5977.66 2656.96L5979.86 2647.58L5977.17 2631.18L5973.06 2612.34L5968.61 2593.31L5965.33 2577.06L5961.21 2561.06L5958.22 2547.76L5965.28 2559.68L5963.37 2548.89L5967.71 2553.31L5971.07 2554.9L5980.74 2577.77L5989.48 2597.84L5996.41 2616.05L6003.93 2636.95L6003.43 2631.17L6010.73 2652.07L6016.87 2667.43L6019.25 2673.15L6023.46 2685.36L6031.06 2711.81L6034.85 2719.2L6039.02 2729.28L6040.84 2731.7L6037.87 2720.27C6015.44 2644.41 5989.45 2568.89 5959.86 2493.92C5417.48 1119.83 3863.87 445.568 2489.73 987.964C2170.87 1113.82 1891.17 1293.02 1654.14 1512.9L1650.65 1516.04ZM4589.34 1927.53L4593.94 1917.63L4581.19 1899.7L4589.42 1883.66L4572.24 1873.96L4569.23 1857.92L4577.21 1843.94L4566.92 1826.09L4565.34 1824.84L4524.97 1763.28L4523.65 1761.72L4512.37 1746.7L4494.07 1736.77L4480.03 1738.27L4473.21 1748.25L4471.85 1748.79L4401.37 1773.36L4400.04 1773.62L4382.84 1775.17L4360.77 1772.88L4346.05 1775.54L4338.05 1786.62L4337.33 1799.36L4326.8 1786.86L4312.57 1775.34L4294.19 1764.4L4279.6 1756.34L4264.39 1754.51L4263.83 1769.85L4263.11 1782.19L4266.08 1797.11L4247.85 1786.19L4234.03 1767.55L4222.66 1767.98L4225.11 1785.29L4223.61 1801.97L4241.81 1812.82L4255.64 1824.51L4270.12 1830.03L4261.87 1837.41L4268.09 1845.78L4280.26 1840.98L4281.74 1828.35L4302.98 1842.6L4318.03 1846.92L4311.81 1833.62L4330.18 1840.44L4343.1 1857.82L4344.51 1846.26L4358.99 1850.57L4342.04 1835.43L4357.32 1831.59L4381.99 1847.16L4397.54 1844.98L4391.38 1827.76L4384.99 1810.72L4402.93 1822.57L4417.88 1818.45L4418.41 1808.29L4436.38 1820.28L4454.67 1825.6L4457.4 1838.67L4452.43 1856.64L4463.58 1856.52L4477.23 1868.19L4478.31 1855.8L4499.91 1862.71L4506.26 1875.73L4515.82 1892L4526.9 1892L4524.32 1876.28L4529.06 1866.72L4540.49 1859.46L4530.56 1841.88L4547.71 1854.59L4547.07 1865.44L4546.21 1877.98L4563.36 1893.37L4576.3 1909.37L4589.34 1927.53Z" fill="white"/>
<path d="M5725.67 2127.1L5722.07 2114.06L5726.84 2115.32L5734.17 2123.83L5729.34 2108.51L5723.42 2093.53L5736.32 2111.65L5745.79 2131.11L5755.83 2150.04L5753.24 2151.06L5747.09 2145.07L5745.22 2148.55L5737.75 2142.77L5733.02 2141.81L5725.67 2127.1ZM2235.04 2620.21L2258.72 2625.49L2285.14 2627.51L2296.72 2642.51L2276.83 2649.06L2262.2 2652.98L2244.38 2675.62L2268.67 2682.69L2276.72 2669.08L2296.76 2658.18L2294.31 2673.7L2278.37 2693.33L2314.12 2676.56L2309.89 2654.38L2333.41 2666.85L2344.77 2650.15L2356.19 2636.66L2332.34 2635.64L2311.28 2626.32L2326.93 2618.45L2343.66 2610.63L2329.42 2599.76L2303.71 2608.78L2280.41 2610.37L2259.2 2613.98L2235.04 2620.21ZM2300.57 2871.7L2316.41 2890.69L2331.38 2893.19L2349.68 2888.14L2358.98 2893.28L2365.56 2878.8L2383.79 2873.39L2400.17 2867.98L2412.96 2846.27L2431.4 2836.64L2453.61 2834.51L2448.85 2822.65L2471.79 2824.42L2453.37 2815.67L2438.86 2814.37L2421.43 2819.96L2412.6 2830.57L2399.77 2844.77L2386.07 2846.7L2373.13 2837.09L2369.17 2824.82L2347.06 2821.43L2349.05 2833.43L2356.66 2850.47L2341.22 2851.71L2336.07 2866.35L2323.52 2875.93L2300.57 2871.7ZM2396.04 3002.69L2415.73 3008.75L2425.28 2993.81L2442.77 2987.73L2464.8 2989.22L2484.07 2982.34L2472.15 2973.85L2459.48 2973.11L2448.17 2960.84L2437.41 2960L2423.77 2978.32L2411.1 2988.82L2396.04 3002.69ZM2575.71 3118.65L2598.19 3106.55L2598.61 3087.14L2599.03 3067.72L2613.29 3055.71L2602 3033.07L2591.63 3052.69L2583.32 3068.09L2590.67 3087.35L2584.22 3102.76L2575.71 3118.65ZM2674.27 3253.83L2683.75 3268.61L2691.58 3291.32L2705.87 3301.94L2706.82 3317.24L2727.55 3315.45L2731.7 3338.47L2745.04 3329.65L2744.09 3348.96L2743.39 3368.72L2744.98 3388.31L2760.92 3378.7L2765.22 3346.78L2752.05 3329L2738.28 3302.74L2729.77 3280.14L2719.31 3257.74L2711.26 3235.12L2695.43 3232.71L2680.14 3233.9L2674.27 3253.83ZM2623.37 3268.27L2632.9 3291.19L2643.7 3279L2655.33 3290.02L2648.9 3302.01L2649.68 3325.31L2666.14 3336.05L2685.66 3353.97L2686.58 3369.78L2696.83 3384.49L2695.43 3400L2716.68 3394.61L2708.21 3375.63L2698.16 3364.72L2690.29 3349.88L2693.66 3329.95L2679.58 3327.26L2666.15 3336.04L2660.67 3308.86L2666.99 3296.81L2666.42 3281.43L2647.92 3267.14L2623.37 3268.27ZM2912.61 3538.69L2928.09 3536.14L2946.54 3521.01L2962.95 3537.99L2984.09 3522.12L3004.99 3506.01L3024.05 3482L3039.32 3478.65L3022.05 3498.63L3025.18 3513.72L3045.11 3505.62L3062.25 3521.41L3082.79 3516.7L3106.05 3499.03L3130.7 3488.97L3133.66 3500.35L3149.04 3496.28L3136.45 3479.34L3134.12 3460.13L3121.21 3451.4L3117.34 3436.03L3094.76 3441.72L3078.57 3429.82L3063.41 3409.45L3038.73 3415.14L3014.07 3408.62L3007.08 3425.93L2989.68 3441.45L2982.49 3459.09L2972.22 3473.03L2953.25 3484.14L2940.71 3502.58L2925.53 3520.87L2912.61 3538.69ZM3059.73 3610.08L3080.3 3589.25L3076.67 3610.17L3077.49 3625.79L3078.08 3653.92L3076.7 3673.79L3083.99 3692.27L3090.05 3718.66L3106.47 3738.95L3120.57 3735.73L3132.6 3725.23L3137.16 3707.92L3136.36 3680.25L3128.05 3658.21L3117.9 3640.47L3113.38 3621.88L3116.82 3600.88L3117.57 3580.45L3138.59 3563.26L3143.22 3537.9L3158.91 3533.81L3174.15 3537.98L3191.99 3541.37L3204 3554L3211.33 3580.14L3201.57 3607.02L3205.77 3622.37L3214.78 3603.43L3228.82 3591.68L3243.38 3611.8L3258.1 3631.86L3276.6 3614.2L3268.53 3587.81L3269.75 3563.06L3269.55 3543.08L3259.5 3529.51L3283.61 3542.63L3313.7 3545.31L3319.34 3527.22L3295.16 3506.13L3272.55 3488.78L3241.92 3490.44L3220.3 3492.43L3199.55 3498.43L3177.77 3500.64L3162.31 3504.88L3171.59 3518.36L3145.66 3525.2L3131.57 3524.95L3116.85 3532.54L3087.38 3547.81L3079.51 3549.61L3072.55 3566.99L3066.02 3588.56L3059.73 3610.08ZM3239.73 3701.63L3265.44 3706.54L3284.82 3700.92L3303.12 3691.58L3319.32 3674.45L3336.12 3660.87L3354.54 3642.6L3369.77 3625.26L3378.51 3606.04L3356.73 3613.35L3334.97 3620.5L3327.78 3635.06L3312.79 3635.38L3295.01 3645.24L3288.63 3663.3L3269.83 3681.05L3250.58 3686.56L3239.73 3701.63ZM3342.43 3597.37L3359.77 3595.63L3378.97 3581.18L3397.54 3574.75L3417.4 3571.59L3434.96 3561.18L3453.19 3545.89L3442.37 3525.02L3442.25 3508.55L3426.42 3522.51L3420.05 3537.32L3397.6 3541.5L3382.98 3550.56L3363.35 3561.87L3346.87 3575.25L3342.43 3597.37ZM5006.15 1289.56L5000.44 1288.58L4995.08 1287.54L4991.16 1288.03L5002.69 1298.19L4984.95 1287.65L4966.89 1277.15L4952.67 1270.23L4976.76 1284.91L4999.16 1298.46L5010.67 1304.51L5021.14 1312.19L5021.34 1315.98L5019.09 1317.85L5013.41 1316.61L5009.39 1317.06L5000.32 1315.22L4991.68 1312.97L5002.03 1320.53L5008.7 1321.05L5018.91 1325.19L5025.54 1326.05L5029.96 1325.13L5032.25 1323.34L5041.7 1327.62L5045.59 1327.61L5055.04 1332.3L5061.08 1333.3L5068.58 1336.49L5076.06 1339.45L5081.35 1341.16L5088.45 1344.41L5089.08 1343.11L5101.81 1352.08L5108.38 1356.2L5114.93 1359.84L5112.72 1357.32L5108.69 1353.33L5104.24 1349.43L5118.51 1360.13L5120.21 1361.16L5128.16 1367.4L5006.15 1289.56ZM4676.94 1287.3L4685.31 1282.06L4697.32 1281.93L4701.13 1274.61L4696.93 1264.38L4688.8 1252.4L4674 1239.07L4666.88 1228.78L4649.3 1217.86L4631.63 1207.12L4613.89 1196.58L4595.68 1183.64L4587.46 1173.86L4574.59 1162.2L4562.21 1153.17L4566.8 1149.18L4553.44 1137.87L4560.59 1134.49L4551.97 1127.38L4549.78 1120.39L4538.38 1113.01L4532.97 1105.68L4517.96 1095.92L4502.78 1086.31L4492.32 1077.42L4476.92 1068.13L4453.21 1057.84L4434.06 1049.46L4421.67 1046.99L4416.94 1049.58L4407.41 1050.83L4407.53 1054.02L4414.09 1063.25L4416.7 1070.05L4415.54 1074.31L4412.55 1080.83L4414.49 1087.82L4421.65 1095.26L4422.93 1099.94L4425.52 1106.11L4419.24 1109.23L4425.65 1114.38L4439.65 1123.89L4446.45 1131.64L4464.4 1140.49L4476.45 1148.91L4491.16 1155.23L4506.21 1164.25L4503.5 1168.88L4485.94 1164.73L4485.87 1169.69L4490.43 1178.97L4468.43 1170.76L4450.59 1159.2L4451.9 1168.06L4468.19 1178.37L4471.92 1190.24L4455.92 1185.15L4466.83 1196.22L4476.46 1206.32L4495.43 1211.93L4514.35 1220.3L4529.63 1231.33L4546.3 1231.78L4561.39 1236.41L4575.13 1246.28L4592.69 1254.07L4607.46 1256.25L4626.88 1260.78L4639.36 1272.28L4658.6 1276.98L4676.94 1287.3ZM4438.6 1148.25L4438.58 1143.32L4445.48 1140.11L4442.06 1132.49L4425.32 1122.85L4414.08 1113.62L4404.36 1103.55L4379.23 1096.24L4355.21 1088.18L4355.94 1092.9L4352.21 1096.39L4342.55 1088.97L4320.14 1080.27L4306.01 1071.94L4306.81 1076.64L4320.81 1085.02L4339.91 1097.37L4365.43 1108.97L4382.21 1120.54L4403.01 1131.26L4422.57 1138.57L4438.6 1148.25ZM4221.47 974.944L4231.46 975.051L4226.75 970.115L4233.44 966.356L4243.24 966.601L4255.66 967.12L4260.23 962.89L4261.81 958.545L4258.4 953.997L4261.65 950.934L4269.18 949.9L4267.91 945.057L4257 938.771L4272.75 944.849L4290.73 949.795L4309.2 953.584L4320.52 955.83L4331.7 961.037L4346.05 962.559L4357.51 963.698L4369.12 965.259L4359.76 959.826L4343.7 952.09L4345.95 951.455L4335.89 945.239L4323.81 939.417L4295.24 928.863L4269.08 919.782L4249.41 912.18L4238.42 909.726L4228.8 909.316L4211.53 906.591L4189.34 902.002L4198.95 906.058L4192.77 906.401L4179.48 904.445L4200.33 912.228L4193.79 912.225L4173.55 908.485L4161.8 902.862L4143.12 896.158L4118.29 889.948L4121.36 893.43L4123.73 897.02L4119.68 899.027L4139.98 905.814L4157.81 909.607L4166.88 909.418L4162.34 912.093L4153.38 912.478L4133.07 908.61L4130.76 910.165L4148.47 917.081L4152.04 922.226L4142.21 923.758L4138.8 928.256L4148.79 934.499L4139.67 933.731L4122.84 926.55L4112.44 921.278L4104.62 924.282L4080.74 918.672L4059.33 911.359L4051.46 905.323L4034.11 899.876L4019.06 894.499L4020.83 898.009L4011.7 899.596L4002.1 902.173L4003.3 907.842L4008.43 914.314L4020.67 919.098L4036.71 925.548L4046.42 930.687L4076.56 937.391L4094.84 944.331L4113.62 950.345L4119.09 949.069L4133.34 954.432L4149.02 956.896L4159.97 964.699L4178.2 967.289L4201.02 970.975L4221.47 974.944ZM3921.18 861.324L3933.71 860.492L3935.59 858.867L3950.02 858.181L3931.22 853.151L3912.27 848.339L3911.81 846.977L3888.62 842.542L3860.23 839.434L3848.39 840.387L3834.63 837.893L3819.43 836.452L3820.95 839.335L3824.9 843.593L3819 844.391L3799.87 843.7L3782.74 842.861L3807.03 846.054L3809.75 848.215L3832.08 851.931L3840.16 850.84L3845.17 853.545L3862.03 854.013L3875.61 857.466L3886.81 859.602L3899.51 859.204L3921.18 861.324ZM2526.07 976.635L2500.65 984.965L2480.59 993.766L2463.01 1001.84L2455.55 1007.94L2436.83 1017.91L2415.78 1028.08L2404.23 1035.48L2389.55 1045.8L2381.53 1053.33L2382.31 1057.14L2381.48 1062.63L2378.48 1068.75L2389.55 1065.26L2394 1060.76L2394.1 1057.73L2400.11 1051.24L2406.11 1044.92L2412.42 1038.79L2425.61 1029.78L2438.9 1021.05L2448.66 1014.62L2461.02 1007.8L2470.95 1001.61L2481.36 995.404L2501.4 987.003L2526.07 976.635ZM3932.49 1244.6L3939.11 1235.35L3951.74 1228.43L3966.03 1223.84L3961.01 1218.7L3948.2 1217.2L3939.13 1208.17L3922.27 1206.58L3909.46 1208.97L3900.21 1215.45L3901.82 1224.42L3896.69 1231.15L3904.28 1239.07L3920.63 1244.26L3932.49 1244.6ZM3853.59 1197.54L3859.03 1191.68L3857.09 1182.83L3872.59 1179.3L3866.06 1173.79L3854.55 1170.65L3841.84 1173.73L3837.91 1180.53L3828.59 1186.23L3811.73 1189.41L3809.33 1197.88L3812.17 1207.35L3817.85 1201.47L3814.8 1195.39L3827.34 1192.3L3835.46 1199.36L3853.59 1197.54Z" fill="white"/>
</svg>
