<svg width="16" height="16" viewBox="0 0 16 16" fill="none" xmlns="http://www.w3.org/2000/svg">
<path d="M3.53594 5.0375C2.55239 6.02276 2 7.35795 2 8.75C2 10.1421 2.55239 11.4772 3.53594 12.4625C4.56359 13.49 5.90629 14 7.24899 14C8.59169 14 9.93439 13.49 10.962 12.4625C13.5724 9.8525 14 2 14 2C14 2 6.14633 2.4275 3.53594 5.0375ZM9.90439 11.405C9.19178 12.11 8.25414 12.5 7.24899 12.5C6.58139 12.5 5.9513 12.3125 5.38871 11.99C6.07882 9.83 7.35401 7.9325 9.04926 6.5C7.07647 7.52 5.41872 9.095 4.27105 11C3.16088 9.53 3.2584 7.4375 4.6011 6.095C5.90629 4.79 9.52933 3.9875 12.3498 3.65C12.0122 6.47 11.2096 10.0925 9.90439 11.405V11.405Z" fill="#1A8854"/>
</svg>
