<svg width="319" height="544" viewBox="0 0 319 544" fill="none" xmlns="http://www.w3.org/2000/svg">
<path d="M41 153.857C42.2095 117.975 63.56 92.3994 92.0544 72.2497C125.789 48.3946 160.78 41 201.428 41C225.161 41 247.808 43.1565 263.928 62.6957C277.112 78.6768 280.795 103.441 275.074 123.205C271.316 136.186 261.41 146.964 252.682 156.843C237.534 173.989 220.812 188.143 201.826 200.831C186.599 211.008 169.954 224.891 152.265 230.787C148.442 232.061 148.727 235.197 148.583 238.948C147.989 254.37 148.003 269.645 146.294 285.026C144.154 304.281 139.73 323.021 135.943 341.953" stroke="#F5F5F7" stroke-opacity="0.19" stroke-width="81" stroke-linecap="round"/>
<path d="M132.364 492.43C131.504 493.611 124.974 500.634 127.388 502.78C129.206 504.396 130.295 500.429 130.572 499.595" stroke="#F5F5F7" stroke-opacity="0.19" stroke-width="81" stroke-linecap="round"/>
</svg>
