<svg width="16" height="16" viewBox="0 0 16 16" fill="none" xmlns="http://www.w3.org/2000/svg">
<path d="M12.787 4.01611C12.6632 4.04059 12.5925 4.06643 12.4606 4.13307C12.364 4.18338 12.1859 4.35881 9.33821 7.20376L6.31783 10.2214L5.03271 9.02061C4.32691 8.35969 3.71223 7.79124 3.67007 7.75725C3.33145 7.48526 2.82284 7.4635 2.45975 7.70285C2.27344 7.8266 2.13609 8.00339 2.05313 8.22642C2.01505 8.32705 2.00825 8.36785 2.00145 8.51744C1.99737 8.64935 2.00145 8.71735 2.01913 8.8003C2.05177 8.94445 2.1524 9.143 2.24488 9.24499C2.39175 9.4041 5.67323 12.4571 5.76842 12.5224C5.93841 12.638 6.12064 12.6924 6.33959 12.6924C6.52454 12.6924 6.66597 12.6597 6.82916 12.5754C6.94611 12.517 6.96923 12.4925 10.3568 9.109C12.8223 6.64619 13.7851 5.67657 13.8287 5.60858C13.951 5.42363 14 5.25636 14 5.03061C13.9986 4.8443 13.9728 4.73551 13.8939 4.57368C13.7919 4.36833 13.6328 4.20922 13.4288 4.10995C13.2235 4.01067 12.9896 3.97668 12.787 4.01611Z" fill="#1B1B2D"/>
</svg>
