<svg width="400" height="400" viewBox="0 0 400 400" fill="none" xmlns="http://www.w3.org/2000/svg">
<path d="M52.5999 1.39133C52.3145 0.963333 51.9279 0.61241 51.4743 0.3697C51.0208 0.12699 50.5143 0 49.9999 0C49.4855 0 48.979 0.12699 48.5255 0.3697C48.0719 0.61241 47.6853 0.963333 47.3999 1.39133L28.6499 29.5163C28.3367 29.9869 28.1571 30.5336 28.1301 31.0983C28.1031 31.6629 28.2297 32.2242 28.4965 32.7226C28.7633 33.2209 29.1603 33.6376 29.6452 33.9281C30.13 34.2187 30.6846 34.3723 31.2499 34.3726H31.8624L19.2249 54.5913C18.9292 55.0644 18.7656 55.6079 18.751 56.1656C18.7363 56.7232 18.8712 57.2746 19.1416 57.7625C19.412 58.2504 19.8081 58.657 20.2888 58.9401C20.7694 59.2233 21.3171 59.3726 21.8749 59.3726H23.0686L12.8311 79.8476C12.5924 80.324 12.4795 80.8536 12.5031 81.386C12.5267 81.9183 12.686 82.4358 12.966 82.8893C13.2459 83.3427 13.6372 83.717 14.1026 83.9766C14.568 84.2363 15.092 84.3726 15.6249 84.3726H43.7499V99.9976H56.2499V84.3726H84.3749C84.9078 84.3726 85.4318 84.2363 85.8972 83.9766C86.3626 83.717 86.7539 83.3427 87.0338 82.8893C87.3138 82.4358 87.4731 81.9183 87.4967 81.386C87.5203 80.8536 87.4074 80.324 87.1686 79.8476L76.9374 59.3726H78.1311C78.689 59.3726 79.2366 59.2233 79.7173 58.9401C80.1979 58.657 80.594 58.2504 80.8644 57.7625C81.1348 57.2746 81.2697 56.7232 81.2551 56.1656C81.2404 55.6079 81.0768 55.0644 80.7812 54.5913L68.1374 34.3726H68.7499C69.3152 34.3723 69.8698 34.2187 70.3546 33.9281C70.8395 33.6376 71.2365 33.2209 71.5033 32.7226C71.7701 32.2242 71.8967 31.6629 71.8697 31.0983C71.8427 30.5336 71.6631 29.9869 71.3499 29.5163L52.5999 1.39133ZM40.2311 29.7351C39.9612 29.247 39.5656 28.8401 39.0853 28.5566C38.605 28.273 38.0576 28.1232 37.4999 28.1226H37.0874L49.9999 8.75383L62.9124 28.1226H62.4999C61.9421 28.1226 61.3944 28.2719 60.9138 28.555C60.4331 28.8382 60.037 29.2448 59.7666 29.7327C59.4962 30.2206 59.3613 30.772 59.376 31.3296C59.3906 31.8872 59.5542 32.4308 59.8499 32.9038L72.4874 53.1226H71.8749C71.342 53.1226 70.818 53.2589 70.3526 53.5185C69.8872 53.7781 69.4959 54.1524 69.216 54.6059C68.936 55.0593 68.7767 55.5768 68.7531 56.1092C68.7295 56.6416 68.8424 57.1711 69.0812 57.6476L79.3124 78.1226H20.6811L30.9186 57.6476C31.1574 57.1711 31.2703 56.6416 31.2467 56.1092C31.2231 55.5768 31.0638 55.0593 30.7838 54.6059C30.5039 54.1524 30.1126 53.7781 29.6472 53.5185C29.1818 53.2589 28.6578 53.1226 28.1249 53.1226H27.5124L40.1499 32.9038C40.4448 32.4309 40.6078 31.8877 40.6221 31.3305C40.6364 30.7734 40.5014 30.2225 40.2311 29.7351Z" fill="#F0F0F0" fill-opacity="0.15"/>
<path d="M152.6 1.39133C152.315 0.963333 151.928 0.61241 151.474 0.3697C151.021 0.12699 150.514 0 150 0C149.485 0 148.979 0.12699 148.525 0.3697C148.072 0.61241 147.685 0.963333 147.4 1.39133L128.65 29.5163C128.337 29.9869 128.157 30.5336 128.13 31.0983C128.103 31.6629 128.23 32.2242 128.497 32.7226C128.763 33.2209 129.16 33.6376 129.645 33.9281C130.13 34.2187 130.685 34.3723 131.25 34.3726H131.862L119.225 54.5913C118.929 55.0644 118.766 55.6079 118.751 56.1656C118.736 56.7232 118.871 57.2746 119.142 57.7625C119.412 58.2504 119.808 58.657 120.289 58.9401C120.769 59.2233 121.317 59.3726 121.875 59.3726H123.069L112.831 79.8476C112.592 80.324 112.479 80.8536 112.503 81.386C112.527 81.9183 112.686 82.4358 112.966 82.8893C113.246 83.3427 113.637 83.717 114.103 83.9766C114.568 84.2363 115.092 84.3726 115.625 84.3726H143.75V99.9976H156.25V84.3726H184.375C184.908 84.3726 185.432 84.2363 185.897 83.9766C186.363 83.717 186.754 83.3427 187.034 82.8893C187.314 82.4358 187.473 81.9183 187.497 81.386C187.52 80.8536 187.407 80.324 187.169 79.8476L176.937 59.3726H178.131C178.689 59.3726 179.237 59.2233 179.717 58.9401C180.198 58.657 180.594 58.2504 180.864 57.7625C181.135 57.2746 181.27 56.7232 181.255 56.1656C181.24 55.6079 181.077 55.0644 180.781 54.5913L168.137 34.3726H168.75C169.315 34.3723 169.87 34.2187 170.355 33.9281C170.839 33.6376 171.236 33.2209 171.503 32.7226C171.77 32.2242 171.897 31.6629 171.87 31.0983C171.843 30.5336 171.663 29.9869 171.35 29.5163L152.6 1.39133ZM140.231 29.7351C139.961 29.247 139.566 28.8401 139.085 28.5566C138.605 28.273 138.058 28.1232 137.5 28.1226H137.087L150 8.75383L162.912 28.1226H162.5C161.942 28.1226 161.394 28.2719 160.914 28.555C160.433 28.8382 160.037 29.2448 159.767 29.7327C159.496 30.2206 159.361 30.772 159.376 31.3296C159.391 31.8872 159.554 32.4308 159.85 32.9038L172.487 53.1226H171.875C171.342 53.1226 170.818 53.2589 170.353 53.5185C169.887 53.7781 169.496 54.1524 169.216 54.6059C168.936 55.0593 168.777 55.5768 168.753 56.1092C168.729 56.6416 168.842 57.1711 169.081 57.6476L179.312 78.1226H120.681L130.919 57.6476C131.157 57.1711 131.27 56.6416 131.247 56.1092C131.223 55.5768 131.064 55.0593 130.784 54.6059C130.504 54.1524 130.113 53.7781 129.647 53.5185C129.182 53.2589 128.658 53.1226 128.125 53.1226H127.512L140.15 32.9038C140.445 32.4309 140.608 31.8877 140.622 31.3305C140.636 30.7734 140.501 30.2225 140.231 29.7351Z" fill="#F0F0F0" fill-opacity="0.15"/>
<path d="M252.6 1.39133C252.315 0.963333 251.928 0.61241 251.474 0.3697C251.021 0.12699 250.514 0 250 0C249.485 0 248.979 0.12699 248.525 0.3697C248.072 0.61241 247.685 0.963333 247.4 1.39133L228.65 29.5163C228.337 29.9869 228.157 30.5336 228.13 31.0983C228.103 31.6629 228.23 32.2242 228.497 32.7226C228.763 33.2209 229.16 33.6376 229.645 33.9281C230.13 34.2187 230.685 34.3723 231.25 34.3726H231.862L219.225 54.5913C218.929 55.0644 218.766 55.6079 218.751 56.1656C218.736 56.7232 218.871 57.2746 219.142 57.7625C219.412 58.2504 219.808 58.657 220.289 58.9401C220.769 59.2233 221.317 59.3726 221.875 59.3726H223.069L212.831 79.8476C212.592 80.324 212.479 80.8536 212.503 81.386C212.527 81.9183 212.686 82.4358 212.966 82.8893C213.246 83.3427 213.637 83.717 214.103 83.9766C214.568 84.2363 215.092 84.3726 215.625 84.3726H243.75V99.9976H256.25V84.3726H284.375C284.908 84.3726 285.432 84.2363 285.897 83.9766C286.363 83.717 286.754 83.3427 287.034 82.8893C287.314 82.4358 287.473 81.9183 287.497 81.386C287.52 80.8536 287.407 80.324 287.169 79.8476L276.937 59.3726H278.131C278.689 59.3726 279.237 59.2233 279.717 58.9401C280.198 58.657 280.594 58.2504 280.864 57.7625C281.135 57.2746 281.27 56.7232 281.255 56.1656C281.24 55.6079 281.077 55.0644 280.781 54.5913L268.137 34.3726H268.75C269.315 34.3723 269.87 34.2187 270.355 33.9281C270.839 33.6376 271.236 33.2209 271.503 32.7226C271.77 32.2242 271.897 31.6629 271.87 31.0983C271.843 30.5336 271.663 29.9869 271.35 29.5163L252.6 1.39133ZM240.231 29.7351C239.961 29.247 239.566 28.8401 239.085 28.5566C238.605 28.273 238.058 28.1232 237.5 28.1226H237.087L250 8.75383L262.912 28.1226H262.5C261.942 28.1226 261.394 28.2719 260.914 28.555C260.433 28.8382 260.037 29.2448 259.767 29.7327C259.496 30.2206 259.361 30.772 259.376 31.3296C259.391 31.8872 259.554 32.4308 259.85 32.9038L272.487 53.1226H271.875C271.342 53.1226 270.818 53.2589 270.353 53.5185C269.887 53.7781 269.496 54.1524 269.216 54.6059C268.936 55.0593 268.777 55.5768 268.753 56.1092C268.729 56.6416 268.842 57.1711 269.081 57.6476L279.312 78.1226H220.681L230.919 57.6476C231.157 57.1711 231.27 56.6416 231.247 56.1092C231.223 55.5768 231.064 55.0593 230.784 54.6059C230.504 54.1524 230.113 53.7781 229.647 53.5185C229.182 53.2589 228.658 53.1226 228.125 53.1226H227.512L240.15 32.9038C240.445 32.4309 240.608 31.8877 240.622 31.3305C240.636 30.7734 240.501 30.2225 240.231 29.7351Z" fill="#F0F0F0" fill-opacity="0.15"/>
<path d="M352.6 1.39133C352.315 0.963333 351.928 0.61241 351.474 0.3697C351.021 0.12699 350.514 0 350 0C349.485 0 348.979 0.12699 348.525 0.3697C348.072 0.61241 347.685 0.963333 347.4 1.39133L328.65 29.5163C328.337 29.9869 328.157 30.5336 328.13 31.0983C328.103 31.6629 328.23 32.2242 328.497 32.7226C328.763 33.2209 329.16 33.6376 329.645 33.9281C330.13 34.2187 330.685 34.3723 331.25 34.3726H331.862L319.225 54.5913C318.929 55.0644 318.766 55.6079 318.751 56.1656C318.736 56.7232 318.871 57.2746 319.142 57.7625C319.412 58.2504 319.808 58.657 320.289 58.9401C320.769 59.2233 321.317 59.3726 321.875 59.3726H323.069L312.831 79.8476C312.592 80.324 312.479 80.8536 312.503 81.386C312.527 81.9183 312.686 82.4358 312.966 82.8893C313.246 83.3427 313.637 83.717 314.103 83.9766C314.568 84.2363 315.092 84.3726 315.625 84.3726H343.75V99.9976H356.25V84.3726H384.375C384.908 84.3726 385.432 84.2363 385.897 83.9766C386.363 83.717 386.754 83.3427 387.034 82.8893C387.314 82.4358 387.473 81.9183 387.497 81.386C387.52 80.8536 387.407 80.324 387.169 79.8476L376.937 59.3726H378.131C378.689 59.3726 379.237 59.2233 379.717 58.9401C380.198 58.657 380.594 58.2504 380.864 57.7625C381.135 57.2746 381.27 56.7232 381.255 56.1656C381.24 55.6079 381.077 55.0644 380.781 54.5913L368.137 34.3726H368.75C369.315 34.3723 369.87 34.2187 370.355 33.9281C370.839 33.6376 371.236 33.2209 371.503 32.7226C371.77 32.2242 371.897 31.6629 371.87 31.0983C371.843 30.5336 371.663 29.9869 371.35 29.5163L352.6 1.39133ZM340.231 29.7351C339.961 29.247 339.566 28.8401 339.085 28.5566C338.605 28.273 338.058 28.1232 337.5 28.1226H337.087L350 8.75383L362.912 28.1226H362.5C361.942 28.1226 361.394 28.2719 360.914 28.555C360.433 28.8382 360.037 29.2448 359.767 29.7327C359.496 30.2206 359.361 30.772 359.376 31.3296C359.391 31.8872 359.554 32.4308 359.85 32.9038L372.487 53.1226H371.875C371.342 53.1226 370.818 53.2589 370.353 53.5185C369.887 53.7781 369.496 54.1524 369.216 54.6059C368.936 55.0593 368.777 55.5768 368.753 56.1092C368.729 56.6416 368.842 57.1711 369.081 57.6476L379.312 78.1226H320.681L330.919 57.6476C331.157 57.1711 331.27 56.6416 331.247 56.1092C331.223 55.5768 331.064 55.0593 330.784 54.6059C330.504 54.1524 330.113 53.7781 329.647 53.5185C329.182 53.2589 328.658 53.1226 328.125 53.1226H327.512L340.15 32.9038C340.445 32.4309 340.608 31.8877 340.622 31.3305C340.636 30.7734 340.501 30.2225 340.231 29.7351Z" fill="#F0F0F0" fill-opacity="0.15"/>
<path d="M302.6 101.391C302.315 100.963 301.928 100.612 301.474 100.37C301.021 100.127 300.514 100 300 100C299.485 100 298.979 100.127 298.525 100.37C298.072 100.612 297.685 100.963 297.4 101.391L278.65 129.516C278.337 129.987 278.157 130.534 278.13 131.098C278.103 131.663 278.23 132.224 278.497 132.723C278.763 133.221 279.16 133.638 279.645 133.928C280.13 134.219 280.685 134.372 281.25 134.373H281.862L269.225 154.591C268.929 155.064 268.766 155.608 268.751 156.166C268.736 156.723 268.871 157.275 269.142 157.762C269.412 158.25 269.808 158.657 270.289 158.94C270.769 159.223 271.317 159.373 271.875 159.373H273.069L262.831 179.848C262.592 180.324 262.479 180.854 262.503 181.386C262.527 181.918 262.686 182.436 262.966 182.889C263.246 183.343 263.637 183.717 264.103 183.977C264.568 184.236 265.092 184.373 265.625 184.373H293.75V199.998H306.25V184.373H334.375C334.908 184.373 335.432 184.236 335.897 183.977C336.363 183.717 336.754 183.343 337.034 182.889C337.314 182.436 337.473 181.918 337.497 181.386C337.52 180.854 337.407 180.324 337.169 179.848L326.937 159.373H328.131C328.689 159.373 329.237 159.223 329.717 158.94C330.198 158.657 330.594 158.25 330.864 157.762C331.135 157.275 331.27 156.723 331.255 156.166C331.24 155.608 331.077 155.064 330.781 154.591L318.137 134.373H318.75C319.315 134.372 319.87 134.219 320.355 133.928C320.839 133.638 321.236 133.221 321.503 132.723C321.77 132.224 321.897 131.663 321.87 131.098C321.843 130.534 321.663 129.987 321.35 129.516L302.6 101.391ZM290.231 129.735C289.961 129.247 289.566 128.84 289.085 128.557C288.605 128.273 288.058 128.123 287.5 128.123H287.087L300 108.754L312.912 128.123H312.5C311.942 128.123 311.394 128.272 310.914 128.555C310.433 128.838 310.037 129.245 309.767 129.733C309.496 130.221 309.361 130.772 309.376 131.33C309.391 131.887 309.554 132.431 309.85 132.904L322.487 153.123H321.875C321.342 153.123 320.818 153.259 320.353 153.519C319.887 153.778 319.496 154.152 319.216 154.606C318.936 155.059 318.777 155.577 318.753 156.109C318.729 156.642 318.842 157.171 319.081 157.648L329.312 178.123H270.681L280.919 157.648C281.157 157.171 281.27 156.642 281.247 156.109C281.223 155.577 281.064 155.059 280.784 154.606C280.504 154.152 280.113 153.778 279.647 153.519C279.182 153.259 278.658 153.123 278.125 153.123H277.512L290.15 132.904C290.445 132.431 290.608 131.888 290.622 131.331C290.636 130.773 290.501 130.223 290.231 129.735Z" fill="#F0F0F0" fill-opacity="0.15"/>
<path d="M202.6 102.391C202.315 101.963 201.928 101.612 201.474 101.37C201.021 101.127 200.514 101 200 101C199.485 101 198.979 101.127 198.525 101.37C198.072 101.612 197.685 101.963 197.4 102.391L178.65 130.516C178.337 130.987 178.157 131.534 178.13 132.098C178.103 132.663 178.23 133.224 178.497 133.723C178.763 134.221 179.16 134.638 179.645 134.928C180.13 135.219 180.685 135.372 181.25 135.373H181.862L169.225 155.591C168.929 156.064 168.766 156.608 168.751 157.166C168.736 157.723 168.871 158.275 169.142 158.762C169.412 159.25 169.808 159.657 170.289 159.94C170.769 160.223 171.317 160.373 171.875 160.373H173.069L162.831 180.848C162.592 181.324 162.479 181.854 162.503 182.386C162.527 182.918 162.686 183.436 162.966 183.889C163.246 184.343 163.637 184.717 164.103 184.977C164.568 185.236 165.092 185.373 165.625 185.373H193.75V200.998H206.25V185.373H234.375C234.908 185.373 235.432 185.236 235.897 184.977C236.363 184.717 236.754 184.343 237.034 183.889C237.314 183.436 237.473 182.918 237.497 182.386C237.52 181.854 237.407 181.324 237.169 180.848L226.937 160.373H228.131C228.689 160.373 229.237 160.223 229.717 159.94C230.198 159.657 230.594 159.25 230.864 158.762C231.135 158.275 231.27 157.723 231.255 157.166C231.24 156.608 231.077 156.064 230.781 155.591L218.137 135.373H218.75C219.315 135.372 219.87 135.219 220.355 134.928C220.839 134.638 221.236 134.221 221.503 133.723C221.77 133.224 221.897 132.663 221.87 132.098C221.843 131.534 221.663 130.987 221.35 130.516L202.6 102.391ZM190.231 130.735C189.961 130.247 189.566 129.84 189.085 129.557C188.605 129.273 188.058 129.123 187.5 129.123H187.087L200 109.754L212.912 129.123H212.5C211.942 129.123 211.394 129.272 210.914 129.555C210.433 129.838 210.037 130.245 209.767 130.733C209.496 131.221 209.361 131.772 209.376 132.33C209.391 132.887 209.554 133.431 209.85 133.904L222.487 154.123H221.875C221.342 154.123 220.818 154.259 220.353 154.519C219.887 154.778 219.496 155.152 219.216 155.606C218.936 156.059 218.777 156.577 218.753 157.109C218.729 157.642 218.842 158.171 219.081 158.648L229.312 179.123H170.681L180.919 158.648C181.157 158.171 181.27 157.642 181.247 157.109C181.223 156.577 181.064 156.059 180.784 155.606C180.504 155.152 180.113 154.778 179.647 154.519C179.182 154.259 178.658 154.123 178.125 154.123H177.512L190.15 133.904C190.445 133.431 190.608 132.888 190.622 132.331C190.636 131.773 190.501 131.223 190.231 130.735Z" fill="#F0F0F0" fill-opacity="0.15"/>
<path d="M102.6 102.391C102.315 101.963 101.928 101.612 101.474 101.37C101.021 101.127 100.514 101 99.9999 101C99.4855 101 98.979 101.127 98.5255 101.37C98.0719 101.612 97.6853 101.963 97.3999 102.391L78.6499 130.516C78.3367 130.987 78.1571 131.534 78.1301 132.098C78.1031 132.663 78.2297 133.224 78.4965 133.723C78.7633 134.221 79.1603 134.638 79.6452 134.928C80.13 135.219 80.6846 135.372 81.2499 135.373H81.8624L69.2249 155.591C68.9292 156.064 68.7656 156.608 68.751 157.166C68.7363 157.723 68.8712 158.275 69.1416 158.762C69.412 159.25 69.8081 159.657 70.2888 159.94C70.7694 160.223 71.3171 160.373 71.8749 160.373H73.0686L62.8311 180.848C62.5924 181.324 62.4795 181.854 62.5031 182.386C62.5267 182.918 62.686 183.436 62.966 183.889C63.2459 184.343 63.6372 184.717 64.1026 184.977C64.568 185.236 65.092 185.373 65.6249 185.373H93.7499V200.998H106.25V185.373H134.375C134.908 185.373 135.432 185.236 135.897 184.977C136.363 184.717 136.754 184.343 137.034 183.889C137.314 183.436 137.473 182.918 137.497 182.386C137.52 181.854 137.407 181.324 137.169 180.848L126.937 160.373H128.131C128.689 160.373 129.237 160.223 129.717 159.94C130.198 159.657 130.594 159.25 130.864 158.762C131.135 158.275 131.27 157.723 131.255 157.166C131.24 156.608 131.077 156.064 130.781 155.591L118.137 135.373H118.75C119.315 135.372 119.87 135.219 120.355 134.928C120.839 134.638 121.236 134.221 121.503 133.723C121.77 133.224 121.897 132.663 121.87 132.098C121.843 131.534 121.663 130.987 121.35 130.516L102.6 102.391ZM90.2311 130.735C89.9612 130.247 89.5656 129.84 89.0853 129.557C88.605 129.273 88.0576 129.123 87.4999 129.123H87.0874L99.9999 109.754L112.912 129.123H112.5C111.942 129.123 111.394 129.272 110.914 129.555C110.433 129.838 110.037 130.245 109.767 130.733C109.496 131.221 109.361 131.772 109.376 132.33C109.391 132.887 109.554 133.431 109.85 133.904L122.487 154.123H121.875C121.342 154.123 120.818 154.259 120.353 154.519C119.887 154.778 119.496 155.152 119.216 155.606C118.936 156.059 118.777 156.577 118.753 157.109C118.729 157.642 118.842 158.171 119.081 158.648L129.312 179.123H70.6811L80.9186 158.648C81.1574 158.171 81.2703 157.642 81.2467 157.109C81.2231 156.577 81.0638 156.059 80.7838 155.606C80.5039 155.152 80.1126 154.778 79.6472 154.519C79.1818 154.259 78.6578 154.123 78.1249 154.123H77.5124L90.1499 133.904C90.4448 133.431 90.6078 132.888 90.6221 132.331C90.6364 131.773 90.5014 131.223 90.2311 130.735Z" fill="#F0F0F0" fill-opacity="0.15"/>
<path d="M152.6 202.391C152.315 201.963 151.928 201.612 151.474 201.37C151.021 201.127 150.514 201 150 201C149.485 201 148.979 201.127 148.525 201.37C148.072 201.612 147.685 201.963 147.4 202.391L128.65 230.516C128.337 230.987 128.157 231.534 128.13 232.098C128.103 232.663 128.23 233.224 128.497 233.723C128.763 234.221 129.16 234.638 129.645 234.928C130.13 235.219 130.685 235.372 131.25 235.373H131.862L119.225 255.591C118.929 256.064 118.766 256.608 118.751 257.166C118.736 257.723 118.871 258.275 119.142 258.762C119.412 259.25 119.808 259.657 120.289 259.94C120.769 260.223 121.317 260.373 121.875 260.373H123.069L112.831 280.848C112.592 281.324 112.479 281.854 112.503 282.386C112.527 282.918 112.686 283.436 112.966 283.889C113.246 284.343 113.637 284.717 114.103 284.977C114.568 285.236 115.092 285.373 115.625 285.373H143.75V300.998H156.25V285.373H184.375C184.908 285.373 185.432 285.236 185.897 284.977C186.363 284.717 186.754 284.343 187.034 283.889C187.314 283.436 187.473 282.918 187.497 282.386C187.52 281.854 187.407 281.324 187.169 280.848L176.937 260.373H178.131C178.689 260.373 179.237 260.223 179.717 259.94C180.198 259.657 180.594 259.25 180.864 258.762C181.135 258.275 181.27 257.723 181.255 257.166C181.24 256.608 181.077 256.064 180.781 255.591L168.137 235.373H168.75C169.315 235.372 169.87 235.219 170.355 234.928C170.839 234.638 171.236 234.221 171.503 233.723C171.77 233.224 171.897 232.663 171.87 232.098C171.843 231.534 171.663 230.987 171.35 230.516L152.6 202.391ZM140.231 230.735C139.961 230.247 139.566 229.84 139.085 229.557C138.605 229.273 138.058 229.123 137.5 229.123H137.087L150 209.754L162.912 229.123H162.5C161.942 229.123 161.394 229.272 160.914 229.555C160.433 229.838 160.037 230.245 159.767 230.733C159.496 231.221 159.361 231.772 159.376 232.33C159.391 232.887 159.554 233.431 159.85 233.904L172.487 254.123H171.875C171.342 254.123 170.818 254.259 170.353 254.519C169.887 254.778 169.496 255.152 169.216 255.606C168.936 256.059 168.777 256.577 168.753 257.109C168.729 257.642 168.842 258.171 169.081 258.648L179.312 279.123H120.681L130.919 258.648C131.157 258.171 131.27 257.642 131.247 257.109C131.223 256.577 131.064 256.059 130.784 255.606C130.504 255.152 130.113 254.778 129.647 254.519C129.182 254.259 128.658 254.123 128.125 254.123H127.512L140.15 233.904C140.445 233.431 140.608 232.888 140.622 232.331C140.636 231.773 140.501 231.223 140.231 230.735Z" fill="#F0F0F0" fill-opacity="0.15"/>
<path d="M252.6 201.391C252.315 200.963 251.928 200.612 251.474 200.37C251.021 200.127 250.514 200 250 200C249.485 200 248.979 200.127 248.525 200.37C248.072 200.612 247.685 200.963 247.4 201.391L228.65 229.516C228.337 229.987 228.157 230.534 228.13 231.098C228.103 231.663 228.23 232.224 228.497 232.723C228.763 233.221 229.16 233.638 229.645 233.928C230.13 234.219 230.685 234.372 231.25 234.373H231.862L219.225 254.591C218.929 255.064 218.766 255.608 218.751 256.166C218.736 256.723 218.871 257.275 219.142 257.762C219.412 258.25 219.808 258.657 220.289 258.94C220.769 259.223 221.317 259.373 221.875 259.373H223.069L212.831 279.848C212.592 280.324 212.479 280.854 212.503 281.386C212.527 281.918 212.686 282.436 212.966 282.889C213.246 283.343 213.637 283.717 214.103 283.977C214.568 284.236 215.092 284.373 215.625 284.373H243.75V299.998H256.25V284.373H284.375C284.908 284.373 285.432 284.236 285.897 283.977C286.363 283.717 286.754 283.343 287.034 282.889C287.314 282.436 287.473 281.918 287.497 281.386C287.52 280.854 287.407 280.324 287.169 279.848L276.937 259.373H278.131C278.689 259.373 279.237 259.223 279.717 258.94C280.198 258.657 280.594 258.25 280.864 257.762C281.135 257.275 281.27 256.723 281.255 256.166C281.24 255.608 281.077 255.064 280.781 254.591L268.137 234.373H268.75C269.315 234.372 269.87 234.219 270.355 233.928C270.839 233.638 271.236 233.221 271.503 232.723C271.77 232.224 271.897 231.663 271.87 231.098C271.843 230.534 271.663 229.987 271.35 229.516L252.6 201.391ZM240.231 229.735C239.961 229.247 239.566 228.84 239.085 228.557C238.605 228.273 238.058 228.123 237.5 228.123H237.087L250 208.754L262.912 228.123H262.5C261.942 228.123 261.394 228.272 260.914 228.555C260.433 228.838 260.037 229.245 259.767 229.733C259.496 230.221 259.361 230.772 259.376 231.33C259.391 231.887 259.554 232.431 259.85 232.904L272.487 253.123H271.875C271.342 253.123 270.818 253.259 270.353 253.519C269.887 253.778 269.496 254.152 269.216 254.606C268.936 255.059 268.777 255.577 268.753 256.109C268.729 256.642 268.842 257.171 269.081 257.648L279.312 278.123H220.681L230.919 257.648C231.157 257.171 231.27 256.642 231.247 256.109C231.223 255.577 231.064 255.059 230.784 254.606C230.504 254.152 230.113 253.778 229.647 253.519C229.182 253.259 228.658 253.123 228.125 253.123H227.512L240.15 232.904C240.445 232.431 240.608 231.888 240.622 231.331C240.636 230.773 240.501 230.223 240.231 229.735Z" fill="#F0F0F0" fill-opacity="0.15"/>
<path d="M202.6 301.391C202.315 300.963 201.928 300.612 201.474 300.37C201.021 300.127 200.514 300 200 300C199.485 300 198.979 300.127 198.525 300.37C198.072 300.612 197.685 300.963 197.4 301.391L178.65 329.516C178.337 329.987 178.157 330.534 178.13 331.098C178.103 331.663 178.23 332.224 178.497 332.723C178.763 333.221 179.16 333.638 179.645 333.928C180.13 334.219 180.685 334.372 181.25 334.373H181.862L169.225 354.591C168.929 355.064 168.766 355.608 168.751 356.166C168.736 356.723 168.871 357.275 169.142 357.762C169.412 358.25 169.808 358.657 170.289 358.94C170.769 359.223 171.317 359.373 171.875 359.373H173.069L162.831 379.848C162.592 380.324 162.479 380.854 162.503 381.386C162.527 381.918 162.686 382.436 162.966 382.889C163.246 383.343 163.637 383.717 164.103 383.977C164.568 384.236 165.092 384.373 165.625 384.373H193.75V399.998H206.25V384.373H234.375C234.908 384.373 235.432 384.236 235.897 383.977C236.363 383.717 236.754 383.343 237.034 382.889C237.314 382.436 237.473 381.918 237.497 381.386C237.52 380.854 237.407 380.324 237.169 379.848L226.937 359.373H228.131C228.689 359.373 229.237 359.223 229.717 358.94C230.198 358.657 230.594 358.25 230.864 357.762C231.135 357.275 231.27 356.723 231.255 356.166C231.24 355.608 231.077 355.064 230.781 354.591L218.137 334.373H218.75C219.315 334.372 219.87 334.219 220.355 333.928C220.839 333.638 221.236 333.221 221.503 332.723C221.77 332.224 221.897 331.663 221.87 331.098C221.843 330.534 221.663 329.987 221.35 329.516L202.6 301.391ZM190.231 329.735C189.961 329.247 189.566 328.84 189.085 328.557C188.605 328.273 188.058 328.123 187.5 328.123H187.087L200 308.754L212.912 328.123H212.5C211.942 328.123 211.394 328.272 210.914 328.555C210.433 328.838 210.037 329.245 209.767 329.733C209.496 330.221 209.361 330.772 209.376 331.33C209.391 331.887 209.554 332.431 209.85 332.904L222.487 353.123H221.875C221.342 353.123 220.818 353.259 220.353 353.519C219.887 353.778 219.496 354.152 219.216 354.606C218.936 355.059 218.777 355.577 218.753 356.109C218.729 356.642 218.842 357.171 219.081 357.648L229.312 378.123H170.681L180.919 357.648C181.157 357.171 181.27 356.642 181.247 356.109C181.223 355.577 181.064 355.059 180.784 354.606C180.504 354.152 180.113 353.778 179.647 353.519C179.182 353.259 178.658 353.123 178.125 353.123H177.512L190.15 332.904C190.445 332.431 190.608 331.888 190.622 331.331C190.636 330.773 190.501 330.223 190.231 329.735Z" fill="#F0F0F0" fill-opacity="0.15"/>
</svg>
